M48
;DRILL file {KiCad (5.0.0-3-g5ebb6b6)} date 2019 September 09, Monday 22:48:26
;FORMAT={-:-/ absolute / metric / decimal}
FMAT,2
METRIC,TZ
T1C0.400
T2C0.800
T3C1.000
T4C3.200
%
G90
G05
M71
T1
X107.036Y-73.473
X110.04Y-63.62
X129.861Y-49.269
X145.313Y-50.787
X146.594Y-86.734
X149.4Y-83.398
X152.812Y-76.837
X152.859Y-96.157
X154.656Y-68.713
X155.182Y-70.572
X155.678Y-93.505
X161.467Y-59.53
X162.345Y-87.855
X164.993Y-78.776
X166.926Y-94.033
X167.362Y-98.048
X173.468Y-89.034
X180.297Y-85.995
X188.339Y-73.805
T2
X119.Y-74.5
X121.5Y-74.5
X186.Y-43.5
X188.5Y-43.5
X177.5Y-82.5
X177.5Y-85.04
X177.5Y-87.58
X177.5Y-90.12
X177.5Y-92.66
X177.5Y-95.2
X177.5Y-97.74
X177.5Y-100.28
X185.12Y-82.5
X185.12Y-85.04
X185.12Y-87.58
X185.12Y-90.12
X185.12Y-92.66
X185.12Y-95.2
X185.12Y-97.74
X185.12Y-100.28
X178.5Y-43.5
X181.Y-43.5
X164.5Y-84.
X167.04Y-84.
X169.58Y-84.
X139.Y-73.5
X141.5Y-73.5
X162.84Y-95.5
X173.Y-95.5
X183.25Y-105.5
X185.75Y-105.5
X181.Y-48.
X185.88Y-48.
X177.5Y-58.75
X177.5Y-61.29
X177.5Y-63.83
X177.5Y-66.37
X177.5Y-68.91
X177.5Y-71.45
X177.5Y-73.99
X177.5Y-76.53
X185.12Y-58.75
X185.12Y-61.29
X185.12Y-63.83
X185.12Y-66.37
X185.12Y-68.91
X185.12Y-71.45
X185.12Y-73.99
X185.12Y-76.53
X178.5Y-53.
X188.66Y-53.
X132.25Y-45.
X132.25Y-47.54
X132.25Y-50.08
X132.25Y-52.62
X132.25Y-55.16
X132.25Y-57.7
X132.25Y-60.24
X132.25Y-62.78
X132.25Y-65.32
X132.25Y-67.86
X132.25Y-70.4
X132.25Y-72.94
X132.25Y-75.48
X132.25Y-78.02
X132.25Y-80.56
X132.25Y-83.1
X132.25Y-85.64
X132.25Y-88.18
X132.25Y-90.72
X132.25Y-93.26
X147.49Y-45.
X147.49Y-47.54
X147.49Y-50.08
X147.49Y-52.62
X147.49Y-55.16
X147.49Y-57.7
X147.49Y-60.24
X147.49Y-62.78
X147.49Y-65.32
X147.49Y-67.86
X147.49Y-70.4
X147.49Y-72.94
X147.49Y-75.48
X147.49Y-78.02
X147.49Y-80.56
X147.49Y-83.1
X147.49Y-85.64
X147.49Y-88.18
X147.49Y-90.72
X147.49Y-93.26
X112.5Y-45.
X112.5Y-47.54
X112.5Y-50.08
X112.5Y-52.62
X112.5Y-55.16
X112.5Y-57.7
X112.5Y-60.24
X112.5Y-62.78
X112.5Y-65.32
X112.5Y-67.86
X112.5Y-70.4
X112.5Y-72.94
X112.5Y-75.48
X112.5Y-78.02
X112.5Y-80.56
X112.5Y-83.1
X112.5Y-85.64
X112.5Y-88.18
X112.5Y-90.72
X112.5Y-93.26
X127.74Y-45.
X127.74Y-47.54
X127.74Y-50.08
X127.74Y-52.62
X127.74Y-55.16
X127.74Y-57.7
X127.74Y-60.24
X127.74Y-62.78
X127.74Y-65.32
X127.74Y-67.86
X127.74Y-70.4
X127.74Y-72.94
X127.74Y-75.48
X127.74Y-78.02
X127.74Y-80.56
X127.74Y-83.1
X127.74Y-85.64
X127.74Y-88.18
X127.74Y-90.72
X127.74Y-93.26
X173.Y-82.5
X173.Y-85.
X152.Y-45.
X152.Y-47.54
X152.Y-50.08
X152.Y-52.62
X152.Y-55.16
X152.Y-57.7
X152.Y-60.24
X152.Y-62.78
X152.Y-65.32
X152.Y-67.86
X152.Y-70.4
X152.Y-72.94
X152.Y-75.48
X152.Y-78.02
X167.24Y-45.
X167.24Y-47.54
X167.24Y-50.08
X167.24Y-52.62
X167.24Y-55.16
X167.24Y-57.7
X167.24Y-60.24
X167.24Y-62.78
X167.24Y-65.32
X167.24Y-67.86
X167.24Y-70.4
X167.24Y-72.94
X167.24Y-75.48
X167.24Y-78.02
X158.5Y-66.
X161.Y-66.
X183.Y-79.5
X185.5Y-79.5
X162.84Y-90.5
X173.Y-90.5
X183.Y-56.
X185.5Y-56.
T3
X172.51Y-58.88
X172.51Y-61.42
X172.51Y-63.96
X193.Y-75.
X193.Y-77.54
X193.Y-80.08
X193.Y-82.62
X193.Y-85.16
X193.Y-87.7
X103.835Y-84.26
X103.835Y-86.8
X103.835Y-89.34
X103.835Y-91.88
X103.835Y-94.42
X103.835Y-96.96
X103.835Y-99.5
X106.375Y-84.26
X106.375Y-86.8
X106.375Y-89.34
X106.375Y-91.88
X106.375Y-94.42
X106.375Y-96.96
X106.375Y-99.5
X193.Y-92.5
X193.Y-95.04
X193.Y-97.58
X193.Y-100.12
X193.Y-102.66
X193.Y-105.2
X171.5Y-48.
X174.04Y-48.
X152.92Y-91.5
X155.46Y-91.5
X158.Y-91.5
X152.Y-82.46
X152.Y-85.
X154.54Y-82.46
X154.54Y-85.
X157.08Y-82.46
X157.08Y-85.
X159.62Y-82.46
X159.62Y-85.
X192.025Y-52.325
X192.025Y-54.865
X192.025Y-57.405
X192.025Y-59.945
X192.025Y-62.485
X192.025Y-65.025
X192.025Y-67.565
X194.565Y-52.325
X194.565Y-54.865
X194.565Y-57.405
X194.565Y-59.945
X194.565Y-62.485
X194.565Y-65.025
X194.565Y-67.565
X125.74Y-102.362
X125.74Y-104.902
X128.28Y-102.362
X128.28Y-104.902
X130.82Y-102.362
X130.82Y-104.902
X133.36Y-102.362
X133.36Y-104.902
X135.9Y-102.362
X135.9Y-104.902
X138.44Y-102.362
X138.44Y-104.902
X140.98Y-102.362
X140.98Y-104.902
X143.52Y-102.362
X143.52Y-104.902
X146.06Y-102.362
X146.06Y-104.902
X148.6Y-102.362
X148.6Y-104.902
X151.14Y-102.362
X151.14Y-104.902
X153.68Y-102.362
X153.68Y-104.902
X156.22Y-102.362
X156.22Y-104.902
X158.76Y-102.362
X158.76Y-104.902
X161.3Y-102.362
X161.3Y-104.902
X163.84Y-102.362
X163.84Y-104.902
X166.38Y-102.362
X166.38Y-104.902
X168.92Y-102.362
X168.92Y-104.902
X171.46Y-102.362
X171.46Y-104.902
X174.Y-102.362
X174.Y-104.902
X103.835Y-54.69
X103.835Y-57.23
X103.835Y-59.77
X103.835Y-62.31
X103.835Y-64.85
X103.835Y-67.39
X103.835Y-69.93
X106.375Y-54.69
X106.375Y-57.23
X106.375Y-59.77
X106.375Y-62.31
X106.375Y-64.85
X106.375Y-67.39
X106.375Y-69.93
T4
X194.5Y-110.5
X105.5Y-110.5
X194.5Y-44.5
X105.5Y-44.5
T0
M30
