G04 #@! TF.GenerationSoftware,KiCad,Pcbnew,(5.0.0-3-g5ebb6b6)*
G04 #@! TF.CreationDate,2019-09-11T12:01:12+09:00*
G04 #@! TF.ProjectId,KZ80_PIOSIO,4B5A38305F50494F53494F2E6B696361,rev?*
G04 #@! TF.SameCoordinates,Original*
G04 #@! TF.FileFunction,Copper,L2,Bot,Signal*
G04 #@! TF.FilePolarity,Positive*
%FSLAX46Y46*%
G04 Gerber Fmt 4.6, Leading zero omitted, Abs format (unit mm)*
G04 Created by KiCad (PCBNEW (5.0.0-3-g5ebb6b6)) date 2019 September 11, Wednesday 12:01:12*
%MOMM*%
%LPD*%
G01*
G04 APERTURE LIST*
G04 #@! TA.AperFunction,ComponentPad*
%ADD10R,1.700000X1.700000*%
G04 #@! TD*
G04 #@! TA.AperFunction,ComponentPad*
%ADD11O,1.700000X1.700000*%
G04 #@! TD*
G04 #@! TA.AperFunction,ComponentPad*
%ADD12R,1.600000X1.600000*%
G04 #@! TD*
G04 #@! TA.AperFunction,ComponentPad*
%ADD13C,1.600000*%
G04 #@! TD*
G04 #@! TA.AperFunction,ComponentPad*
%ADD14C,1.500000*%
G04 #@! TD*
G04 #@! TA.AperFunction,ComponentPad*
%ADD15O,1.600000X1.600000*%
G04 #@! TD*
G04 #@! TA.AperFunction,ComponentPad*
%ADD16R,1.500000X1.500000*%
G04 #@! TD*
G04 #@! TA.AperFunction,ViaPad*
%ADD17C,0.800000*%
G04 #@! TD*
G04 #@! TA.AperFunction,Conductor*
%ADD18C,0.250000*%
G04 #@! TD*
G04 #@! TA.AperFunction,Conductor*
%ADD19C,0.600000*%
G04 #@! TD*
G04 #@! TA.AperFunction,Conductor*
%ADD20C,0.254000*%
G04 #@! TD*
G04 APERTURE END LIST*
D10*
G04 #@! TO.P,JP2,1*
G04 #@! TO.N,Net-(JP2-Pad1)*
X172510000Y-58880000D03*
D11*
G04 #@! TO.P,JP2,2*
G04 #@! TO.N,SIO-CLK*
X172510000Y-61420000D03*
G04 #@! TO.P,JP2,3*
G04 #@! TO.N,Net-(JP2-Pad3)*
X172510000Y-63960000D03*
G04 #@! TD*
D10*
G04 #@! TO.P,J8,1*
G04 #@! TO.N,~RD*
X192025000Y-52325000D03*
D11*
G04 #@! TO.P,J8,2*
G04 #@! TO.N,/~WR*
X194565000Y-52325000D03*
G04 #@! TO.P,J8,3*
G04 #@! TO.N,~IORQ*
X192025000Y-54865000D03*
G04 #@! TO.P,J8,4*
G04 #@! TO.N,/~MEMRQ*
X194565000Y-54865000D03*
G04 #@! TO.P,J8,5*
G04 #@! TO.N,~M1*
X192025000Y-57405000D03*
G04 #@! TO.P,J8,6*
G04 #@! TO.N,~RESET*
X194565000Y-57405000D03*
G04 #@! TO.P,J8,7*
G04 #@! TO.N,/~BUSREQ*
X192025000Y-59945000D03*
G04 #@! TO.P,J8,8*
G04 #@! TO.N,/~BUSACK*
X194565000Y-59945000D03*
G04 #@! TO.P,J8,9*
G04 #@! TO.N,/~NMI*
X192025000Y-62485000D03*
G04 #@! TO.P,J8,10*
G04 #@! TO.N,~INT-J*
X194565000Y-62485000D03*
G04 #@! TO.P,J8,11*
G04 #@! TO.N,/~RFSH*
X192025000Y-65025000D03*
G04 #@! TO.P,J8,12*
G04 #@! TO.N,/~WAIT*
X194565000Y-65025000D03*
G04 #@! TO.P,J8,13*
G04 #@! TO.N,/HALT*
X192025000Y-67565000D03*
G04 #@! TO.P,J8,14*
G04 #@! TO.N,Net-(J8-Pad14)*
X194565000Y-67565000D03*
G04 #@! TD*
D12*
G04 #@! TO.P,C9,1*
G04 #@! TO.N,VCC*
X185750000Y-105500000D03*
D13*
G04 #@! TO.P,C9,2*
G04 #@! TO.N,GND*
X183250000Y-105500000D03*
G04 #@! TD*
G04 #@! TO.P,C1,2*
G04 #@! TO.N,GND*
X141500000Y-73500000D03*
G04 #@! TO.P,C1,1*
G04 #@! TO.N,VCC*
X139000000Y-73500000D03*
G04 #@! TD*
G04 #@! TO.P,C2,1*
G04 #@! TO.N,VCC*
X119000000Y-74500000D03*
G04 #@! TO.P,C2,2*
G04 #@! TO.N,GND*
X121500000Y-74500000D03*
G04 #@! TD*
G04 #@! TO.P,C3,2*
G04 #@! TO.N,GND*
X158500000Y-66000000D03*
G04 #@! TO.P,C3,1*
G04 #@! TO.N,VCC*
X161000000Y-66000000D03*
G04 #@! TD*
G04 #@! TO.P,C4,1*
G04 #@! TO.N,VCC*
X185500000Y-79500000D03*
G04 #@! TO.P,C4,2*
G04 #@! TO.N,GND*
X183000000Y-79500000D03*
G04 #@! TD*
G04 #@! TO.P,C5,2*
G04 #@! TO.N,GND*
X183000000Y-56000000D03*
G04 #@! TO.P,C5,1*
G04 #@! TO.N,VCC*
X185500000Y-56000000D03*
G04 #@! TD*
G04 #@! TO.P,C6,1*
G04 #@! TO.N,Net-(C6-Pad1)*
X173000000Y-82500000D03*
G04 #@! TO.P,C6,2*
G04 #@! TO.N,A7*
X173000000Y-85000000D03*
G04 #@! TD*
G04 #@! TO.P,C7,2*
G04 #@! TO.N,GND*
X181000000Y-43500000D03*
G04 #@! TO.P,C7,1*
G04 #@! TO.N,Net-(C7-Pad1)*
X178500000Y-43500000D03*
G04 #@! TD*
G04 #@! TO.P,C8,1*
G04 #@! TO.N,Net-(C8-Pad1)*
X188500000Y-43500000D03*
G04 #@! TO.P,C8,2*
G04 #@! TO.N,GND*
X186000000Y-43500000D03*
G04 #@! TD*
D10*
G04 #@! TO.P,J6,1*
G04 #@! TO.N,Net-(J6-Pad1)*
X171500000Y-48000000D03*
D11*
G04 #@! TO.P,J6,2*
G04 #@! TO.N,GND*
X174040000Y-48000000D03*
G04 #@! TD*
D10*
G04 #@! TO.P,JP1,1*
G04 #@! TO.N,Net-(JP1-Pad1)*
X158000000Y-91500000D03*
D11*
G04 #@! TO.P,JP1,2*
G04 #@! TO.N,Net-(JP1-Pad2)*
X155460000Y-91500000D03*
G04 #@! TO.P,JP1,3*
G04 #@! TO.N,A7*
X152920000Y-91500000D03*
G04 #@! TD*
G04 #@! TO.P,J1,6*
G04 #@! TO.N,CTSA*
X193000000Y-87700000D03*
G04 #@! TO.P,J1,5*
G04 #@! TO.N,TxDA*
X193000000Y-85160000D03*
G04 #@! TO.P,J1,4*
G04 #@! TO.N,RxDA*
X193000000Y-82620000D03*
G04 #@! TO.P,J1,3*
G04 #@! TO.N,Net-(J1-Pad3)*
X193000000Y-80080000D03*
G04 #@! TO.P,J1,2*
G04 #@! TO.N,RTSA*
X193000000Y-77540000D03*
D10*
G04 #@! TO.P,J1,1*
G04 #@! TO.N,GND*
X193000000Y-75000000D03*
G04 #@! TD*
G04 #@! TO.P,J2,1*
G04 #@! TO.N,GND*
X193000000Y-92500000D03*
D11*
G04 #@! TO.P,J2,2*
G04 #@! TO.N,RTSB*
X193000000Y-95040000D03*
G04 #@! TO.P,J2,3*
G04 #@! TO.N,Net-(J2-Pad3)*
X193000000Y-97580000D03*
G04 #@! TO.P,J2,4*
G04 #@! TO.N,RxDB*
X193000000Y-100120000D03*
G04 #@! TO.P,J2,5*
G04 #@! TO.N,TxDB*
X193000000Y-102660000D03*
G04 #@! TO.P,J2,6*
G04 #@! TO.N,CTSB*
X193000000Y-105200000D03*
G04 #@! TD*
D10*
G04 #@! TO.P,J7,1*
G04 #@! TO.N,Net-(J7-Pad1)*
X152000000Y-85000000D03*
D11*
G04 #@! TO.P,J7,2*
G04 #@! TO.N,Net-(J7-Pad2)*
X152000000Y-82460000D03*
G04 #@! TO.P,J7,3*
G04 #@! TO.N,Net-(J7-Pad3)*
X154540000Y-85000000D03*
G04 #@! TO.P,J7,4*
G04 #@! TO.N,Net-(J7-Pad2)*
X154540000Y-82460000D03*
G04 #@! TO.P,J7,5*
G04 #@! TO.N,Net-(J7-Pad5)*
X157080000Y-85000000D03*
G04 #@! TO.P,J7,6*
G04 #@! TO.N,Net-(J7-Pad2)*
X157080000Y-82460000D03*
G04 #@! TO.P,J7,7*
G04 #@! TO.N,Net-(J7-Pad7)*
X159620000Y-85000000D03*
G04 #@! TO.P,J7,8*
G04 #@! TO.N,Net-(J7-Pad2)*
X159620000Y-82460000D03*
G04 #@! TD*
D10*
G04 #@! TO.P,J3,1*
G04 #@! TO.N,PA0*
X106375000Y-69930000D03*
D11*
G04 #@! TO.P,J3,2*
G04 #@! TO.N,PA1*
X103835000Y-69930000D03*
G04 #@! TO.P,J3,3*
G04 #@! TO.N,PA2*
X106375000Y-67390000D03*
G04 #@! TO.P,J3,4*
G04 #@! TO.N,PA3*
X103835000Y-67390000D03*
G04 #@! TO.P,J3,5*
G04 #@! TO.N,PA4*
X106375000Y-64850000D03*
G04 #@! TO.P,J3,6*
G04 #@! TO.N,PA5*
X103835000Y-64850000D03*
G04 #@! TO.P,J3,7*
G04 #@! TO.N,PA6*
X106375000Y-62310000D03*
G04 #@! TO.P,J3,8*
G04 #@! TO.N,PA7*
X103835000Y-62310000D03*
G04 #@! TO.P,J3,9*
G04 #@! TO.N,ARDY*
X106375000Y-59770000D03*
G04 #@! TO.P,J3,10*
G04 #@! TO.N,~ASTB*
X103835000Y-59770000D03*
G04 #@! TO.P,J3,11*
G04 #@! TO.N,Net-(J3-Pad11)*
X106375000Y-57230000D03*
G04 #@! TO.P,J3,12*
G04 #@! TO.N,Net-(J3-Pad12)*
X103835000Y-57230000D03*
G04 #@! TO.P,J3,13*
G04 #@! TO.N,VCC*
X106375000Y-54690000D03*
G04 #@! TO.P,J3,14*
G04 #@! TO.N,GND*
X103835000Y-54690000D03*
G04 #@! TD*
G04 #@! TO.P,J4,14*
G04 #@! TO.N,GND*
X103835000Y-84260000D03*
G04 #@! TO.P,J4,13*
G04 #@! TO.N,VCC*
X106375000Y-84260000D03*
G04 #@! TO.P,J4,12*
G04 #@! TO.N,Net-(J4-Pad12)*
X103835000Y-86800000D03*
G04 #@! TO.P,J4,11*
G04 #@! TO.N,Net-(J4-Pad11)*
X106375000Y-86800000D03*
G04 #@! TO.P,J4,10*
G04 #@! TO.N,~BSTB*
X103835000Y-89340000D03*
G04 #@! TO.P,J4,9*
G04 #@! TO.N,BRDY*
X106375000Y-89340000D03*
G04 #@! TO.P,J4,8*
G04 #@! TO.N,PB7*
X103835000Y-91880000D03*
G04 #@! TO.P,J4,7*
G04 #@! TO.N,PB6*
X106375000Y-91880000D03*
G04 #@! TO.P,J4,6*
G04 #@! TO.N,PB5*
X103835000Y-94420000D03*
G04 #@! TO.P,J4,5*
G04 #@! TO.N,PB4*
X106375000Y-94420000D03*
G04 #@! TO.P,J4,4*
G04 #@! TO.N,PB3*
X103835000Y-96960000D03*
G04 #@! TO.P,J4,3*
G04 #@! TO.N,PB2*
X106375000Y-96960000D03*
G04 #@! TO.P,J4,2*
G04 #@! TO.N,PB1*
X103835000Y-99500000D03*
D10*
G04 #@! TO.P,J4,1*
G04 #@! TO.N,PB0*
X106375000Y-99500000D03*
G04 #@! TD*
G04 #@! TO.P,J5,1*
G04 #@! TO.N,VCC*
X174000000Y-102362000D03*
D11*
G04 #@! TO.P,J5,2*
G04 #@! TO.N,GND*
X174000000Y-104902000D03*
G04 #@! TO.P,J5,3*
G04 #@! TO.N,VCC*
X171460000Y-102362000D03*
G04 #@! TO.P,J5,4*
G04 #@! TO.N,GND*
X171460000Y-104902000D03*
G04 #@! TO.P,J5,5*
G04 #@! TO.N,Net-(J5-Pad5)*
X168920000Y-102362000D03*
G04 #@! TO.P,J5,6*
G04 #@! TO.N,Net-(J5-Pad6)*
X168920000Y-104902000D03*
G04 #@! TO.P,J5,7*
G04 #@! TO.N,Net-(J5-Pad7)*
X166380000Y-102362000D03*
G04 #@! TO.P,J5,8*
G04 #@! TO.N,CLK*
X166380000Y-104902000D03*
G04 #@! TO.P,J5,9*
G04 #@! TO.N,/D0*
X163840000Y-102362000D03*
G04 #@! TO.P,J5,10*
G04 #@! TO.N,/D1*
X163840000Y-104902000D03*
G04 #@! TO.P,J5,11*
G04 #@! TO.N,/D2*
X161300000Y-102362000D03*
G04 #@! TO.P,J5,12*
G04 #@! TO.N,/D3*
X161300000Y-104902000D03*
G04 #@! TO.P,J5,13*
G04 #@! TO.N,/D4*
X158760000Y-102362000D03*
G04 #@! TO.P,J5,14*
G04 #@! TO.N,/D5*
X158760000Y-104902000D03*
G04 #@! TO.P,J5,15*
G04 #@! TO.N,/D6*
X156220000Y-102362000D03*
G04 #@! TO.P,J5,16*
G04 #@! TO.N,/D7*
X156220000Y-104902000D03*
G04 #@! TO.P,J5,17*
G04 #@! TO.N,/~IOR*
X153680000Y-102362000D03*
G04 #@! TO.P,J5,18*
G04 #@! TO.N,/~MEMR*
X153680000Y-104902000D03*
G04 #@! TO.P,J5,19*
G04 #@! TO.N,/~IOW*
X151140000Y-102362000D03*
G04 #@! TO.P,J5,20*
G04 #@! TO.N,/~MEMW*
X151140000Y-104902000D03*
G04 #@! TO.P,J5,21*
G04 #@! TO.N,/RES*
X148600000Y-102362000D03*
G04 #@! TO.P,J5,22*
G04 #@! TO.N,/HLDA*
X148600000Y-104902000D03*
G04 #@! TO.P,J5,23*
G04 #@! TO.N,/INT*
X146060000Y-102362000D03*
G04 #@! TO.P,J5,24*
G04 #@! TO.N,/HOLD*
X146060000Y-104902000D03*
G04 #@! TO.P,J5,25*
G04 #@! TO.N,A0*
X143520000Y-102362000D03*
G04 #@! TO.P,J5,26*
G04 #@! TO.N,A1*
X143520000Y-104902000D03*
G04 #@! TO.P,J5,27*
G04 #@! TO.N,/A2*
X140980000Y-102362000D03*
G04 #@! TO.P,J5,28*
G04 #@! TO.N,A3*
X140980000Y-104902000D03*
G04 #@! TO.P,J5,29*
G04 #@! TO.N,A4*
X138440000Y-102362000D03*
G04 #@! TO.P,J5,30*
G04 #@! TO.N,A5*
X138440000Y-104902000D03*
G04 #@! TO.P,J5,31*
G04 #@! TO.N,A6*
X135900000Y-102362000D03*
G04 #@! TO.P,J5,32*
G04 #@! TO.N,A7*
X135900000Y-104902000D03*
G04 #@! TO.P,J5,33*
G04 #@! TO.N,/A8*
X133360000Y-102362000D03*
G04 #@! TO.P,J5,34*
G04 #@! TO.N,/A9*
X133360000Y-104902000D03*
G04 #@! TO.P,J5,35*
G04 #@! TO.N,/A10*
X130820000Y-102362000D03*
G04 #@! TO.P,J5,36*
G04 #@! TO.N,/A11*
X130820000Y-104902000D03*
G04 #@! TO.P,J5,37*
G04 #@! TO.N,/A12*
X128280000Y-102362000D03*
G04 #@! TO.P,J5,38*
G04 #@! TO.N,/A13*
X128280000Y-104902000D03*
G04 #@! TO.P,J5,39*
G04 #@! TO.N,/A14*
X125740000Y-102362000D03*
G04 #@! TO.P,J5,40*
G04 #@! TO.N,/A15*
X125740000Y-104902000D03*
G04 #@! TD*
D14*
G04 #@! TO.P,Y1,1*
G04 #@! TO.N,Net-(C7-Pad1)*
X181000000Y-48000000D03*
G04 #@! TO.P,Y1,2*
G04 #@! TO.N,Net-(C8-Pad1)*
X185880000Y-48000000D03*
G04 #@! TD*
D15*
G04 #@! TO.P,U3,16*
G04 #@! TO.N,VCC*
X185120000Y-82500000D03*
G04 #@! TO.P,U3,8*
G04 #@! TO.N,GND*
X177500000Y-100280000D03*
G04 #@! TO.P,U3,15*
G04 #@! TO.N,Net-(JP1-Pad2)*
X185120000Y-85040000D03*
G04 #@! TO.P,U3,7*
G04 #@! TO.N,Net-(U3-Pad7)*
X177500000Y-97740000D03*
G04 #@! TO.P,U3,14*
G04 #@! TO.N,A5*
X185120000Y-87580000D03*
G04 #@! TO.P,U3,6*
G04 #@! TO.N,CTC-CE*
X177500000Y-95200000D03*
G04 #@! TO.P,U3,13*
G04 #@! TO.N,A6*
X185120000Y-90120000D03*
G04 #@! TO.P,U3,5*
G04 #@! TO.N,PIO-CE*
X177500000Y-92660000D03*
G04 #@! TO.P,U3,12*
G04 #@! TO.N,Net-(J7-Pad1)*
X185120000Y-92660000D03*
G04 #@! TO.P,U3,4*
G04 #@! TO.N,SIO-CE*
X177500000Y-90120000D03*
G04 #@! TO.P,U3,11*
G04 #@! TO.N,Net-(J7-Pad3)*
X185120000Y-95200000D03*
G04 #@! TO.P,U3,3*
G04 #@! TO.N,A4*
X177500000Y-87580000D03*
G04 #@! TO.P,U3,10*
G04 #@! TO.N,Net-(J7-Pad5)*
X185120000Y-97740000D03*
G04 #@! TO.P,U3,2*
G04 #@! TO.N,A3*
X177500000Y-85040000D03*
G04 #@! TO.P,U3,9*
G04 #@! TO.N,Net-(J7-Pad7)*
X185120000Y-100280000D03*
D12*
G04 #@! TO.P,U3,1*
G04 #@! TO.N,Net-(J7-Pad2)*
X177500000Y-82500000D03*
G04 #@! TD*
G04 #@! TO.P,U5,1*
G04 #@! TO.N,Net-(U5-Pad1)*
X177500000Y-58750000D03*
D15*
G04 #@! TO.P,U5,9*
G04 #@! TO.N,Net-(U5-Pad9)*
X185120000Y-76530000D03*
G04 #@! TO.P,U5,2*
G04 #@! TO.N,Net-(U5-Pad2)*
X177500000Y-61290000D03*
G04 #@! TO.P,U5,10*
G04 #@! TO.N,Net-(C8-Pad1)*
X185120000Y-73990000D03*
G04 #@! TO.P,U5,3*
G04 #@! TO.N,Net-(U5-Pad3)*
X177500000Y-63830000D03*
G04 #@! TO.P,U5,11*
G04 #@! TO.N,Net-(C7-Pad1)*
X185120000Y-71450000D03*
G04 #@! TO.P,U5,4*
G04 #@! TO.N,Net-(U5-Pad4)*
X177500000Y-66370000D03*
G04 #@! TO.P,U5,12*
G04 #@! TO.N,GND*
X185120000Y-68910000D03*
G04 #@! TO.P,U5,5*
G04 #@! TO.N,Net-(U5-Pad5)*
X177500000Y-68910000D03*
G04 #@! TO.P,U5,13*
G04 #@! TO.N,Net-(U5-Pad13)*
X185120000Y-66370000D03*
G04 #@! TO.P,U5,6*
G04 #@! TO.N,Net-(U5-Pad6)*
X177500000Y-71450000D03*
G04 #@! TO.P,U5,14*
G04 #@! TO.N,Net-(U5-Pad14)*
X185120000Y-63830000D03*
G04 #@! TO.P,U5,7*
G04 #@! TO.N,Net-(JP2-Pad3)*
X177500000Y-73990000D03*
G04 #@! TO.P,U5,15*
G04 #@! TO.N,Net-(U5-Pad15)*
X185120000Y-61290000D03*
G04 #@! TO.P,U5,8*
G04 #@! TO.N,GND*
X177500000Y-76530000D03*
G04 #@! TO.P,U5,16*
G04 #@! TO.N,VCC*
X185120000Y-58750000D03*
G04 #@! TD*
D12*
G04 #@! TO.P,U4,1*
G04 #@! TO.N,/D4*
X152000000Y-45000000D03*
D15*
G04 #@! TO.P,U4,15*
G04 #@! TO.N,CLK*
X167240000Y-78020000D03*
G04 #@! TO.P,U4,2*
G04 #@! TO.N,/D5*
X152000000Y-47540000D03*
G04 #@! TO.P,U4,16*
G04 #@! TO.N,CTC-CE*
X167240000Y-75480000D03*
G04 #@! TO.P,U4,3*
G04 #@! TO.N,/D6*
X152000000Y-50080000D03*
G04 #@! TO.P,U4,17*
G04 #@! TO.N,~RESET*
X167240000Y-72940000D03*
G04 #@! TO.P,U4,4*
G04 #@! TO.N,/D7*
X152000000Y-52620000D03*
G04 #@! TO.P,U4,18*
G04 #@! TO.N,A0*
X167240000Y-70400000D03*
G04 #@! TO.P,U4,5*
G04 #@! TO.N,GND*
X152000000Y-55160000D03*
G04 #@! TO.P,U4,19*
G04 #@! TO.N,A1*
X167240000Y-67860000D03*
G04 #@! TO.P,U4,6*
G04 #@! TO.N,~RD*
X152000000Y-57700000D03*
G04 #@! TO.P,U4,20*
G04 #@! TO.N,Net-(J6-Pad1)*
X167240000Y-65320000D03*
G04 #@! TO.P,U4,7*
G04 #@! TO.N,Net-(U4-Pad22)*
X152000000Y-60240000D03*
G04 #@! TO.P,U4,21*
G04 #@! TO.N,Net-(JP2-Pad3)*
X167240000Y-62780000D03*
G04 #@! TO.P,U4,8*
G04 #@! TO.N,Net-(J6-Pad1)*
X152000000Y-62780000D03*
G04 #@! TO.P,U4,22*
G04 #@! TO.N,Net-(U4-Pad22)*
X167240000Y-60240000D03*
G04 #@! TO.P,U4,9*
G04 #@! TO.N,Net-(JP2-Pad1)*
X152000000Y-65320000D03*
G04 #@! TO.P,U4,23*
G04 #@! TO.N,Net-(JP2-Pad3)*
X167240000Y-57700000D03*
G04 #@! TO.P,U4,10*
G04 #@! TO.N,~IORQ*
X152000000Y-67860000D03*
G04 #@! TO.P,U4,24*
G04 #@! TO.N,VCC*
X167240000Y-55160000D03*
G04 #@! TO.P,U4,11*
G04 #@! TO.N,Net-(U4-Pad11)*
X152000000Y-70400000D03*
G04 #@! TO.P,U4,25*
G04 #@! TO.N,/D0*
X167240000Y-52620000D03*
G04 #@! TO.P,U4,12*
G04 #@! TO.N,~INT-J*
X152000000Y-72940000D03*
G04 #@! TO.P,U4,26*
G04 #@! TO.N,/D1*
X167240000Y-50080000D03*
G04 #@! TO.P,U4,13*
G04 #@! TO.N,Net-(U2-Pad22)*
X152000000Y-75480000D03*
G04 #@! TO.P,U4,27*
G04 #@! TO.N,/D2*
X167240000Y-47540000D03*
G04 #@! TO.P,U4,14*
G04 #@! TO.N,~M1*
X152000000Y-78020000D03*
G04 #@! TO.P,U4,28*
G04 #@! TO.N,/D3*
X167240000Y-45000000D03*
G04 #@! TD*
G04 #@! TO.P,U1,40*
G04 #@! TO.N,/D0*
X147490000Y-45000000D03*
G04 #@! TO.P,U1,20*
G04 #@! TO.N,CLK*
X132250000Y-93260000D03*
G04 #@! TO.P,U1,39*
G04 #@! TO.N,/D2*
X147490000Y-47540000D03*
G04 #@! TO.P,U1,19*
G04 #@! TO.N,Net-(U1-Pad16)*
X132250000Y-90720000D03*
G04 #@! TO.P,U1,38*
G04 #@! TO.N,/D4*
X147490000Y-50080000D03*
G04 #@! TO.P,U1,18*
G04 #@! TO.N,CTSA*
X132250000Y-88180000D03*
G04 #@! TO.P,U1,37*
G04 #@! TO.N,/D6*
X147490000Y-52620000D03*
G04 #@! TO.P,U1,17*
G04 #@! TO.N,RTSA*
X132250000Y-85640000D03*
G04 #@! TO.P,U1,36*
G04 #@! TO.N,~IORQ*
X147490000Y-55160000D03*
G04 #@! TO.P,U1,16*
G04 #@! TO.N,Net-(U1-Pad16)*
X132250000Y-83100000D03*
G04 #@! TO.P,U1,35*
G04 #@! TO.N,SIO-CE*
X147490000Y-57700000D03*
G04 #@! TO.P,U1,15*
G04 #@! TO.N,TxDA*
X132250000Y-80560000D03*
G04 #@! TO.P,U1,34*
G04 #@! TO.N,A0*
X147490000Y-60240000D03*
G04 #@! TO.P,U1,14*
G04 #@! TO.N,SIO-CLK*
X132250000Y-78020000D03*
G04 #@! TO.P,U1,33*
G04 #@! TO.N,A1*
X147490000Y-62780000D03*
G04 #@! TO.P,U1,13*
G04 #@! TO.N,SIO-CLK*
X132250000Y-75480000D03*
G04 #@! TO.P,U1,32*
G04 #@! TO.N,~RD*
X147490000Y-65320000D03*
G04 #@! TO.P,U1,12*
G04 #@! TO.N,RxDA*
X132250000Y-72940000D03*
G04 #@! TO.P,U1,31*
G04 #@! TO.N,GND*
X147490000Y-67860000D03*
G04 #@! TO.P,U1,11*
G04 #@! TO.N,Net-(U1-Pad11)*
X132250000Y-70400000D03*
G04 #@! TO.P,U1,30*
G04 #@! TO.N,Net-(U1-Pad30)*
X147490000Y-70400000D03*
G04 #@! TO.P,U1,10*
G04 #@! TO.N,Net-(U1-Pad10)*
X132250000Y-67860000D03*
G04 #@! TO.P,U1,29*
G04 #@! TO.N,RxDB*
X147490000Y-72940000D03*
G04 #@! TO.P,U1,9*
G04 #@! TO.N,VCC*
X132250000Y-65320000D03*
G04 #@! TO.P,U1,28*
G04 #@! TO.N,SIO-CLK*
X147490000Y-75480000D03*
G04 #@! TO.P,U1,8*
G04 #@! TO.N,~M1*
X132250000Y-62780000D03*
G04 #@! TO.P,U1,27*
G04 #@! TO.N,SIO-CLK*
X147490000Y-78020000D03*
G04 #@! TO.P,U1,7*
G04 #@! TO.N,Net-(U1-Pad7)*
X132250000Y-60240000D03*
G04 #@! TO.P,U1,26*
G04 #@! TO.N,TxDB*
X147490000Y-80560000D03*
G04 #@! TO.P,U1,6*
G04 #@! TO.N,VCC*
X132250000Y-57700000D03*
G04 #@! TO.P,U1,25*
G04 #@! TO.N,Net-(U1-Pad22)*
X147490000Y-83100000D03*
G04 #@! TO.P,U1,5*
G04 #@! TO.N,~INT-J*
X132250000Y-55160000D03*
G04 #@! TO.P,U1,24*
G04 #@! TO.N,RTSB*
X147490000Y-85640000D03*
G04 #@! TO.P,U1,4*
G04 #@! TO.N,/D7*
X132250000Y-52620000D03*
G04 #@! TO.P,U1,23*
G04 #@! TO.N,CTSB*
X147490000Y-88180000D03*
G04 #@! TO.P,U1,3*
G04 #@! TO.N,/D5*
X132250000Y-50080000D03*
G04 #@! TO.P,U1,22*
G04 #@! TO.N,Net-(U1-Pad22)*
X147490000Y-90720000D03*
G04 #@! TO.P,U1,2*
G04 #@! TO.N,/D3*
X132250000Y-47540000D03*
G04 #@! TO.P,U1,21*
G04 #@! TO.N,~RESET*
X147490000Y-93260000D03*
D12*
G04 #@! TO.P,U1,1*
G04 #@! TO.N,/D1*
X132250000Y-45000000D03*
G04 #@! TD*
G04 #@! TO.P,U2,1*
G04 #@! TO.N,/D2*
X112500000Y-45000000D03*
D15*
G04 #@! TO.P,U2,21*
G04 #@! TO.N,BRDY*
X127740000Y-93260000D03*
G04 #@! TO.P,U2,2*
G04 #@! TO.N,/D7*
X112500000Y-47540000D03*
G04 #@! TO.P,U2,22*
G04 #@! TO.N,Net-(U2-Pad22)*
X127740000Y-90720000D03*
G04 #@! TO.P,U2,3*
G04 #@! TO.N,/D6*
X112500000Y-50080000D03*
G04 #@! TO.P,U2,23*
G04 #@! TO.N,~INT-J*
X127740000Y-88180000D03*
G04 #@! TO.P,U2,4*
G04 #@! TO.N,PIO-CE*
X112500000Y-52620000D03*
G04 #@! TO.P,U2,24*
G04 #@! TO.N,Net-(U1-Pad7)*
X127740000Y-85640000D03*
G04 #@! TO.P,U2,5*
G04 #@! TO.N,A1*
X112500000Y-55160000D03*
G04 #@! TO.P,U2,25*
G04 #@! TO.N,CLK*
X127740000Y-83100000D03*
G04 #@! TO.P,U2,6*
G04 #@! TO.N,A0*
X112500000Y-57700000D03*
G04 #@! TO.P,U2,26*
G04 #@! TO.N,VCC*
X127740000Y-80560000D03*
G04 #@! TO.P,U2,7*
G04 #@! TO.N,PA7*
X112500000Y-60240000D03*
G04 #@! TO.P,U2,27*
G04 #@! TO.N,PB0*
X127740000Y-78020000D03*
G04 #@! TO.P,U2,8*
G04 #@! TO.N,PA6*
X112500000Y-62780000D03*
G04 #@! TO.P,U2,28*
G04 #@! TO.N,PB1*
X127740000Y-75480000D03*
G04 #@! TO.P,U2,9*
G04 #@! TO.N,PA5*
X112500000Y-65320000D03*
G04 #@! TO.P,U2,29*
G04 #@! TO.N,PB2*
X127740000Y-72940000D03*
G04 #@! TO.P,U2,10*
G04 #@! TO.N,PA4*
X112500000Y-67860000D03*
G04 #@! TO.P,U2,30*
G04 #@! TO.N,PB3*
X127740000Y-70400000D03*
G04 #@! TO.P,U2,11*
G04 #@! TO.N,GND*
X112500000Y-70400000D03*
G04 #@! TO.P,U2,31*
G04 #@! TO.N,PB4*
X127740000Y-67860000D03*
G04 #@! TO.P,U2,12*
G04 #@! TO.N,PA3*
X112500000Y-72940000D03*
G04 #@! TO.P,U2,32*
G04 #@! TO.N,PB5*
X127740000Y-65320000D03*
G04 #@! TO.P,U2,13*
G04 #@! TO.N,PA2*
X112500000Y-75480000D03*
G04 #@! TO.P,U2,33*
G04 #@! TO.N,PB6*
X127740000Y-62780000D03*
G04 #@! TO.P,U2,14*
G04 #@! TO.N,PA1*
X112500000Y-78020000D03*
G04 #@! TO.P,U2,34*
G04 #@! TO.N,PB7*
X127740000Y-60240000D03*
G04 #@! TO.P,U2,15*
G04 #@! TO.N,PA0*
X112500000Y-80560000D03*
G04 #@! TO.P,U2,35*
G04 #@! TO.N,~RD*
X127740000Y-57700000D03*
G04 #@! TO.P,U2,16*
G04 #@! TO.N,~ASTB*
X112500000Y-83100000D03*
G04 #@! TO.P,U2,36*
G04 #@! TO.N,~IORQ*
X127740000Y-55160000D03*
G04 #@! TO.P,U2,17*
G04 #@! TO.N,~BSTB*
X112500000Y-85640000D03*
G04 #@! TO.P,U2,37*
G04 #@! TO.N,~M1*
X127740000Y-52620000D03*
G04 #@! TO.P,U2,18*
G04 #@! TO.N,ARDY*
X112500000Y-88180000D03*
G04 #@! TO.P,U2,38*
G04 #@! TO.N,/D5*
X127740000Y-50080000D03*
G04 #@! TO.P,U2,19*
G04 #@! TO.N,/D0*
X112500000Y-90720000D03*
G04 #@! TO.P,U2,39*
G04 #@! TO.N,/D4*
X127740000Y-47540000D03*
G04 #@! TO.P,U2,20*
G04 #@! TO.N,/D1*
X112500000Y-93260000D03*
G04 #@! TO.P,U2,40*
G04 #@! TO.N,/D3*
X127740000Y-45000000D03*
G04 #@! TD*
D14*
G04 #@! TO.P,Q1,2*
G04 #@! TO.N,Net-(JP1-Pad1)*
X167040000Y-84000000D03*
G04 #@! TO.P,Q1,3*
G04 #@! TO.N,Net-(C6-Pad1)*
X169580000Y-84000000D03*
D16*
G04 #@! TO.P,Q1,1*
G04 #@! TO.N,GND*
X164500000Y-84000000D03*
G04 #@! TD*
D13*
G04 #@! TO.P,R1,1*
G04 #@! TO.N,Net-(C6-Pad1)*
X173000000Y-90500000D03*
D15*
G04 #@! TO.P,R1,2*
G04 #@! TO.N,A7*
X162840000Y-90500000D03*
G04 #@! TD*
G04 #@! TO.P,R2,2*
G04 #@! TO.N,Net-(JP1-Pad1)*
X162840000Y-95500000D03*
D13*
G04 #@! TO.P,R2,1*
G04 #@! TO.N,VCC*
X173000000Y-95500000D03*
G04 #@! TD*
G04 #@! TO.P,R3,1*
G04 #@! TO.N,Net-(C7-Pad1)*
X178500000Y-53000000D03*
D15*
G04 #@! TO.P,R3,2*
G04 #@! TO.N,Net-(C8-Pad1)*
X188660000Y-53000000D03*
G04 #@! TD*
D17*
G04 #@! TO.N,Net-(C8-Pad1)*
X188339300Y-73805400D03*
G04 #@! TO.N,VCC*
X161466700Y-59530400D03*
G04 #@! TO.N,A7*
X152859200Y-96157200D03*
G04 #@! TO.N,GND*
X164992800Y-78775600D03*
X107036400Y-73473300D03*
G04 #@! TO.N,/D7*
X129860900Y-49269200D03*
G04 #@! TO.N,A0*
X155182300Y-70572200D03*
G04 #@! TO.N,CLK*
X166926100Y-94033500D03*
G04 #@! TO.N,A1*
X154656100Y-68713100D03*
G04 #@! TO.N,PA5*
X110040000Y-63620400D03*
G04 #@! TO.N,/D5*
X145312800Y-50787300D03*
G04 #@! TO.N,CTSA*
X149400100Y-83397700D03*
G04 #@! TO.N,RTSA*
X152811900Y-76837200D03*
G04 #@! TO.N,TxDB*
X146594100Y-86734300D03*
G04 #@! TO.N,~RESET*
X155678300Y-93505400D03*
G04 #@! TO.N,CTC-CE*
X173467800Y-89033700D03*
G04 #@! TO.N,A4*
X167361500Y-98048100D03*
G04 #@! TO.N,Net-(J7-Pad5)*
X162345100Y-87855300D03*
G04 #@! TO.N,A3*
X180297500Y-85994500D03*
G04 #@! TD*
D18*
G04 #@! TO.N,Net-(C7-Pad1)*
X185120000Y-70324700D02*
X184915500Y-70324700D01*
X184915500Y-70324700D02*
X182344000Y-67753200D01*
X182344000Y-67753200D02*
X182344000Y-56990300D01*
X182344000Y-56990300D02*
X178500000Y-53146300D01*
X178500000Y-53146300D02*
X178500000Y-53000000D01*
X181000000Y-48000000D02*
X181000000Y-50500000D01*
X181000000Y-50500000D02*
X178500000Y-53000000D01*
X185120000Y-71450000D02*
X185120000Y-70324700D01*
G04 #@! TO.N,Net-(C8-Pad1)*
X188660000Y-53000000D02*
X188660000Y-51874700D01*
X188660000Y-51874700D02*
X185880000Y-49094700D01*
X185880000Y-49094700D02*
X185880000Y-48000000D01*
X188660000Y-53000000D02*
X188660000Y-73484700D01*
X188660000Y-73484700D02*
X188339300Y-73805400D01*
X185880000Y-48000000D02*
X188500000Y-45380000D01*
X188500000Y-45380000D02*
X188500000Y-43500000D01*
G04 #@! TO.N,Net-(JP1-Pad1)*
X160413800Y-91500000D02*
X160413800Y-91331700D01*
X160413800Y-91331700D02*
X162714600Y-89030900D01*
X162714600Y-89030900D02*
X162832200Y-89030900D01*
X162832200Y-89030900D02*
X167040000Y-84823100D01*
X167040000Y-84823100D02*
X167040000Y-84000000D01*
X162840000Y-94374700D02*
X160413800Y-91948500D01*
X160413800Y-91948500D02*
X160413800Y-91500000D01*
X158000000Y-91500000D02*
X160413800Y-91500000D01*
X162840000Y-95500000D02*
X162840000Y-94374700D01*
D19*
G04 #@! TO.N,VCC*
X118526400Y-99600600D02*
X125502800Y-92624200D01*
X125502800Y-92624200D02*
X125502800Y-82797200D01*
X125502800Y-82797200D02*
X127740000Y-80560000D01*
X103280000Y-82904100D02*
X102431900Y-83752200D01*
X102431900Y-83752200D02*
X102431900Y-100008600D01*
X102431900Y-100008600D02*
X103293500Y-100870200D01*
X103293500Y-100870200D02*
X117256800Y-100870200D01*
X117256800Y-100870200D02*
X118526400Y-99600600D01*
X118526400Y-99600600D02*
X127051000Y-108125300D01*
X127051000Y-108125300D02*
X179872000Y-108125300D01*
X179872000Y-108125300D02*
X181933300Y-106064000D01*
X181933300Y-106064000D02*
X181933300Y-104940700D01*
X181933300Y-104940700D02*
X182674400Y-104199600D01*
X182674400Y-104199600D02*
X183137300Y-104199600D01*
X183137300Y-104199600D02*
X186444900Y-100892000D01*
X186444900Y-100892000D02*
X186444900Y-83824900D01*
X186444900Y-83824900D02*
X185120000Y-82500000D01*
X185750000Y-105500000D02*
X184415200Y-106834800D01*
X184415200Y-106834800D02*
X182704100Y-106834800D01*
X182704100Y-106834800D02*
X181933300Y-106064000D01*
X185500000Y-79500000D02*
X187235300Y-77764700D01*
X187235300Y-77764700D02*
X187235300Y-60865300D01*
X187235300Y-60865300D02*
X185120000Y-58750000D01*
X185120000Y-81199700D02*
X185500000Y-80819700D01*
X185500000Y-80819700D02*
X185500000Y-79500000D01*
X185500000Y-56000000D02*
X185120000Y-56380000D01*
X185120000Y-56380000D02*
X185120000Y-58750000D01*
X130949700Y-65320000D02*
X130470500Y-65799200D01*
X130470500Y-65799200D02*
X130470500Y-77829500D01*
X130470500Y-77829500D02*
X127740000Y-80560000D01*
X103280000Y-82904100D02*
X105019100Y-82904100D01*
X105019100Y-82904100D02*
X106375000Y-84260000D01*
X103280000Y-82904100D02*
X102458800Y-82082900D01*
X102458800Y-82082900D02*
X102458800Y-54088900D01*
X102458800Y-54088900D02*
X103239800Y-53307900D01*
X103239800Y-53307900D02*
X104992900Y-53307900D01*
X104992900Y-53307900D02*
X106375000Y-54690000D01*
X130949700Y-65320000D02*
X130949700Y-59000300D01*
X130949700Y-59000300D02*
X132250000Y-57700000D01*
X161000000Y-66000000D02*
X161466700Y-65533300D01*
X161466700Y-65533300D02*
X161466700Y-59530400D01*
X185120000Y-82500000D02*
X185120000Y-81199700D01*
X132250000Y-65320000D02*
X130949700Y-65320000D01*
X173000000Y-95500000D02*
X174000000Y-96500000D01*
X174000000Y-96500000D02*
X174000000Y-101011700D01*
X174000000Y-102362000D02*
X174000000Y-101011700D01*
D18*
G04 #@! TO.N,Net-(C6-Pad1)*
X169580000Y-84000000D02*
X169580000Y-87080000D01*
X169580000Y-87080000D02*
X173000000Y-90500000D01*
G04 #@! TO.N,A7*
X162840000Y-91625300D02*
X165973600Y-94758900D01*
X165973600Y-94758900D02*
X168004000Y-94758900D01*
X168004000Y-94758900D02*
X171094400Y-91668500D01*
X171094400Y-91668500D02*
X173488300Y-91668500D01*
X173488300Y-91668500D02*
X174193100Y-90963700D01*
X174193100Y-90963700D02*
X174193100Y-86193100D01*
X174193100Y-86193100D02*
X173000000Y-85000000D01*
X162840000Y-90500000D02*
X162840000Y-91625300D01*
X152920000Y-91500000D02*
X152920000Y-92675300D01*
X152920000Y-92675300D02*
X152859200Y-92736100D01*
X152859200Y-92736100D02*
X152859200Y-96157200D01*
D19*
G04 #@! TO.N,GND*
X177500000Y-100280000D02*
X177500000Y-101580300D01*
X174000000Y-104902000D02*
X177321700Y-101580300D01*
X177321700Y-101580300D02*
X177500000Y-101580300D01*
X183000000Y-45500000D02*
X181000000Y-43500000D01*
X183000000Y-56000000D02*
X183000000Y-45500000D01*
X183000000Y-45500000D02*
X184000000Y-45500000D01*
X184000000Y-45500000D02*
X186000000Y-43500000D01*
X185120000Y-68910000D02*
X183000000Y-66790000D01*
X183000000Y-66790000D02*
X183000000Y-56000000D01*
X158500000Y-66000000D02*
X158500000Y-61660000D01*
X158500000Y-61660000D02*
X152000000Y-55160000D01*
X164500000Y-78796200D02*
X158500000Y-72796200D01*
X158500000Y-72796200D02*
X158500000Y-66000000D01*
X164500000Y-78796200D02*
X164972200Y-78796200D01*
X164972200Y-78796200D02*
X164992800Y-78775600D01*
X164500000Y-78796200D02*
X164500000Y-82749700D01*
X183000000Y-79500000D02*
X184485000Y-78015000D01*
X184485000Y-78015000D02*
X185573700Y-78015000D01*
X185573700Y-78015000D02*
X186435000Y-77153700D01*
X186435000Y-77153700D02*
X186435000Y-70225000D01*
X186435000Y-70225000D02*
X185120000Y-68910000D01*
X112500000Y-70400000D02*
X111199700Y-70400000D01*
X111199700Y-70400000D02*
X108126400Y-73473300D01*
X108126400Y-73473300D02*
X107036400Y-73473300D01*
X181000000Y-43500000D02*
X176500000Y-48000000D01*
X176500000Y-48000000D02*
X174040000Y-48000000D01*
X183250000Y-105500000D02*
X191410900Y-97339100D01*
X191410900Y-97339100D02*
X191410900Y-94089100D01*
X191410900Y-94089100D02*
X193000000Y-92500000D01*
X164500000Y-84000000D02*
X164500000Y-82749700D01*
D18*
G04 #@! TO.N,/D2*
X162475300Y-102362000D02*
X162475300Y-101995800D01*
X162475300Y-101995800D02*
X164097100Y-100374000D01*
X164097100Y-100374000D02*
X166061500Y-100374000D01*
X166061500Y-100374000D02*
X170140900Y-96294600D01*
X170140900Y-96294600D02*
X170140900Y-96070200D01*
X170140900Y-96070200D02*
X172291000Y-93920100D01*
X172291000Y-93920100D02*
X177870900Y-93920100D01*
X177870900Y-93920100D02*
X179087300Y-92703700D01*
X179087300Y-92703700D02*
X179087300Y-71410400D01*
X179087300Y-71410400D02*
X177933800Y-70256900D01*
X177933800Y-70256900D02*
X177251600Y-70256900D01*
X177251600Y-70256900D02*
X176374700Y-69380000D01*
X176374700Y-69380000D02*
X176374700Y-57518700D01*
X176374700Y-57518700D02*
X167521300Y-48665300D01*
X167521300Y-48665300D02*
X167240000Y-48665300D01*
X161300000Y-102362000D02*
X162475300Y-102362000D01*
X167240000Y-47540000D02*
X167240000Y-48665300D01*
G04 #@! TO.N,/D7*
X132250000Y-51494700D02*
X131966200Y-51494700D01*
X131966200Y-51494700D02*
X129860900Y-49389400D01*
X129860900Y-49389400D02*
X129860900Y-49269200D01*
X132250000Y-52620000D02*
X132250000Y-51494700D01*
X156220000Y-103726700D02*
X156587400Y-103726700D01*
X156587400Y-103726700D02*
X157395300Y-102918800D01*
X157395300Y-102918800D02*
X157395300Y-101946200D01*
X157395300Y-101946200D02*
X162660900Y-96680600D01*
X162660900Y-96680600D02*
X167356100Y-96680600D01*
X167356100Y-96680600D02*
X171917800Y-92118900D01*
X171917800Y-92118900D02*
X173674800Y-92118900D01*
X173674800Y-92118900D02*
X174643400Y-91150300D01*
X174643400Y-91150300D02*
X174643400Y-78732000D01*
X174643400Y-78732000D02*
X167581400Y-71670000D01*
X167581400Y-71670000D02*
X165015600Y-71670000D01*
X165015600Y-71670000D02*
X159750000Y-66404400D01*
X159750000Y-66404400D02*
X159750000Y-61214000D01*
X159750000Y-61214000D02*
X152281300Y-53745300D01*
X152281300Y-53745300D02*
X152000000Y-53745300D01*
X156220000Y-104902000D02*
X156220000Y-103726700D01*
X152000000Y-52620000D02*
X152000000Y-53745300D01*
G04 #@! TO.N,Net-(U2-Pad22)*
X152000000Y-75480000D02*
X150874700Y-75480000D01*
X127740000Y-90720000D02*
X127740000Y-89594700D01*
X127740000Y-89594700D02*
X128021300Y-89594700D01*
X128021300Y-89594700D02*
X130551100Y-87064900D01*
X130551100Y-87064900D02*
X130551100Y-83190700D01*
X130551100Y-83190700D02*
X131911800Y-81830000D01*
X131911800Y-81830000D02*
X134761600Y-81830000D01*
X134761600Y-81830000D02*
X142236900Y-74354700D01*
X142236900Y-74354700D02*
X149749400Y-74354700D01*
X149749400Y-74354700D02*
X150874700Y-75480000D01*
G04 #@! TO.N,/D6*
X156220000Y-101186700D02*
X154283600Y-99250300D01*
X154283600Y-99250300D02*
X154283600Y-90429600D01*
X154283600Y-90429600D02*
X155875900Y-88837300D01*
X155875900Y-88837300D02*
X155875900Y-78253900D01*
X155875900Y-78253900D02*
X156382200Y-77747600D01*
X156382200Y-77747600D02*
X156382200Y-60426600D01*
X156382200Y-60426600D02*
X152241000Y-56285400D01*
X152241000Y-56285400D02*
X151531200Y-56285400D01*
X151531200Y-56285400D02*
X148615300Y-53369500D01*
X148615300Y-53369500D02*
X148615300Y-52620000D01*
X156220000Y-102362000D02*
X156220000Y-101186700D01*
X150874700Y-50080000D02*
X150874700Y-50360600D01*
X150874700Y-50360600D02*
X148615300Y-52620000D01*
X152000000Y-50080000D02*
X150874700Y-50080000D01*
X147490000Y-52620000D02*
X148615300Y-52620000D01*
G04 #@! TO.N,~INT-J*
X132250000Y-55160000D02*
X132250000Y-56285300D01*
X141564300Y-71814700D02*
X149749400Y-71814700D01*
X149749400Y-71814700D02*
X150874700Y-72940000D01*
X127740000Y-87054700D02*
X128021300Y-87054700D01*
X128021300Y-87054700D02*
X129548900Y-85527100D01*
X129548900Y-85527100D02*
X129548900Y-81639200D01*
X129548900Y-81639200D02*
X131898100Y-79290000D01*
X131898100Y-79290000D02*
X134843500Y-79290000D01*
X134843500Y-79290000D02*
X140250000Y-73883500D01*
X140250000Y-73883500D02*
X140250000Y-73129000D01*
X140250000Y-73129000D02*
X141564300Y-71814700D01*
X132250000Y-56285300D02*
X132531300Y-56285300D01*
X132531300Y-56285300D02*
X141564300Y-65318300D01*
X141564300Y-65318300D02*
X141564300Y-71814700D01*
X152000000Y-72940000D02*
X150874700Y-72940000D01*
X127740000Y-88180000D02*
X127740000Y-87054700D01*
G04 #@! TO.N,Net-(U1-Pad7)*
X132250000Y-60240000D02*
X132250000Y-61365300D01*
X127740000Y-85640000D02*
X127740000Y-84514700D01*
X127740000Y-84514700D02*
X127977100Y-84514700D01*
X127977100Y-84514700D02*
X128865300Y-83626500D01*
X128865300Y-83626500D02*
X128865300Y-81197600D01*
X128865300Y-81197600D02*
X131099800Y-78963100D01*
X131099800Y-78963100D02*
X131099800Y-77537600D01*
X131099800Y-77537600D02*
X131887400Y-76750000D01*
X131887400Y-76750000D02*
X132631500Y-76750000D01*
X132631500Y-76750000D02*
X133375300Y-76006200D01*
X133375300Y-76006200D02*
X133375300Y-62209200D01*
X133375300Y-62209200D02*
X132531400Y-61365300D01*
X132531400Y-61365300D02*
X132250000Y-61365300D01*
G04 #@! TO.N,A0*
X147490000Y-59114700D02*
X147208600Y-59114700D01*
X147208600Y-59114700D02*
X133849900Y-45756000D01*
X133849900Y-45756000D02*
X133849900Y-43868800D01*
X133849900Y-43868800D02*
X133351300Y-43370200D01*
X133351300Y-43370200D02*
X123400000Y-43370200D01*
X123400000Y-43370200D02*
X112880200Y-53890000D01*
X112880200Y-53890000D02*
X112135200Y-53890000D01*
X112135200Y-53890000D02*
X111345500Y-54679700D01*
X111345500Y-54679700D02*
X111345500Y-55701500D01*
X111345500Y-55701500D02*
X112218700Y-56574700D01*
X112218700Y-56574700D02*
X112500000Y-56574700D01*
X147490000Y-60240000D02*
X147490000Y-59114700D01*
X112500000Y-57700000D02*
X112500000Y-56574700D01*
X147490000Y-60240000D02*
X147490000Y-61365300D01*
X155182300Y-70572200D02*
X155182300Y-77148100D01*
X155182300Y-77148100D02*
X150824600Y-81505800D01*
X150824600Y-81505800D02*
X150824600Y-93882100D01*
X150824600Y-93882100D02*
X143520000Y-101186700D01*
X147490000Y-61365300D02*
X147771400Y-61365300D01*
X147771400Y-61365300D02*
X148615300Y-62209200D01*
X148615300Y-62209200D02*
X148615300Y-64163800D01*
X148615300Y-64163800D02*
X150633600Y-66182100D01*
X150633600Y-66182100D02*
X150633600Y-68101000D01*
X150633600Y-68101000D02*
X151518000Y-68985400D01*
X151518000Y-68985400D02*
X152769800Y-68985400D01*
X152769800Y-68985400D02*
X153798200Y-67957000D01*
X153798200Y-67957000D02*
X154969700Y-67957000D01*
X154969700Y-67957000D02*
X155398000Y-68385300D01*
X155398000Y-68385300D02*
X155398000Y-70356500D01*
X155398000Y-70356500D02*
X155182300Y-70572200D01*
X143520000Y-102362000D02*
X143520000Y-101186700D01*
G04 #@! TO.N,CLK*
X167240000Y-78020000D02*
X167240000Y-79145300D01*
X166926100Y-94033500D02*
X168117600Y-92842000D01*
X168117600Y-92842000D02*
X168117600Y-80022900D01*
X168117600Y-80022900D02*
X167240000Y-79145300D01*
G04 #@! TO.N,A1*
X112500000Y-55160000D02*
X113625300Y-55160000D01*
X113625300Y-55160000D02*
X124964800Y-43820500D01*
X124964800Y-43820500D02*
X133164700Y-43820500D01*
X133164700Y-43820500D02*
X133399600Y-44055400D01*
X133399600Y-44055400D02*
X133399600Y-48689600D01*
X133399600Y-48689600D02*
X147490000Y-62780000D01*
X152357400Y-71654000D02*
X153539100Y-72835700D01*
X153539100Y-72835700D02*
X153539100Y-78137700D01*
X153539100Y-78137700D02*
X150374200Y-81302600D01*
X150374200Y-81302600D02*
X150374200Y-91973200D01*
X150374200Y-91973200D02*
X142344700Y-100002700D01*
X142344700Y-100002700D02*
X142344700Y-102918800D01*
X142344700Y-102918800D02*
X143152600Y-103726700D01*
X143152600Y-103726700D02*
X143520000Y-103726700D01*
X152357400Y-71654000D02*
X154656100Y-69355300D01*
X154656100Y-69355300D02*
X154656100Y-68713100D01*
X147490000Y-63905300D02*
X147719900Y-63905300D01*
X147719900Y-63905300D02*
X148615400Y-64800800D01*
X148615400Y-64800800D02*
X148615400Y-68609400D01*
X148615400Y-68609400D02*
X151660000Y-71654000D01*
X151660000Y-71654000D02*
X152357400Y-71654000D01*
X143520000Y-104902000D02*
X143520000Y-103726700D01*
X147490000Y-62780000D02*
X147490000Y-63905300D01*
G04 #@! TO.N,PB0*
X127740000Y-78020000D02*
X127740000Y-79145300D01*
X127740000Y-79145300D02*
X127458700Y-79145300D01*
X127458700Y-79145300D02*
X124877400Y-81726600D01*
X124877400Y-81726600D02*
X124877400Y-85718800D01*
X124877400Y-85718800D02*
X111096200Y-99500000D01*
X111096200Y-99500000D02*
X106375000Y-99500000D01*
G04 #@! TO.N,PB1*
X105010300Y-99500000D02*
X105010300Y-98691800D01*
X105010300Y-98691800D02*
X105377500Y-98324600D01*
X105377500Y-98324600D02*
X111634700Y-98324600D01*
X111634700Y-98324600D02*
X124069000Y-85890300D01*
X124069000Y-85890300D02*
X124069000Y-80065300D01*
X124069000Y-80065300D02*
X127529000Y-76605300D01*
X127529000Y-76605300D02*
X127740000Y-76605300D01*
X103835000Y-99500000D02*
X105010300Y-99500000D01*
X127740000Y-75480000D02*
X127740000Y-76605300D01*
G04 #@! TO.N,PA5*
X111374700Y-65320000D02*
X111374700Y-64955100D01*
X111374700Y-64955100D02*
X110040000Y-63620400D01*
X112500000Y-65320000D02*
X111374700Y-65320000D01*
G04 #@! TO.N,PB2*
X127740000Y-72940000D02*
X127740000Y-74065300D01*
X127740000Y-74065300D02*
X127458700Y-74065300D01*
X127458700Y-74065300D02*
X123168300Y-78355700D01*
X123168300Y-78355700D02*
X123168300Y-86119900D01*
X123168300Y-86119900D02*
X112328200Y-96960000D01*
X112328200Y-96960000D02*
X106375000Y-96960000D01*
G04 #@! TO.N,PA4*
X106375000Y-64850000D02*
X107550300Y-64850000D01*
X112500000Y-67860000D02*
X110560300Y-67860000D01*
X110560300Y-67860000D02*
X107550300Y-64850000D01*
G04 #@! TO.N,PB3*
X127740000Y-71525300D02*
X127539300Y-71525300D01*
X127539300Y-71525300D02*
X121817300Y-77247300D01*
X121817300Y-77247300D02*
X121817300Y-86834000D01*
X121817300Y-86834000D02*
X112866600Y-95784700D01*
X112866600Y-95784700D02*
X105818200Y-95784700D01*
X105818200Y-95784700D02*
X105010300Y-96592600D01*
X105010300Y-96592600D02*
X105010300Y-96960000D01*
X103835000Y-96960000D02*
X105010300Y-96960000D01*
X127740000Y-70400000D02*
X127740000Y-71525300D01*
G04 #@! TO.N,PB4*
X127740000Y-68985300D02*
X127458600Y-68985300D01*
X127458600Y-68985300D02*
X126428100Y-70015800D01*
X126428100Y-70015800D02*
X126428100Y-71798800D01*
X126428100Y-71798800D02*
X120791300Y-77435600D01*
X120791300Y-77435600D02*
X120791300Y-87212200D01*
X120791300Y-87212200D02*
X113115900Y-94887600D01*
X113115900Y-94887600D02*
X108017900Y-94887600D01*
X108017900Y-94887600D02*
X107550300Y-94420000D01*
X106375000Y-94420000D02*
X107550300Y-94420000D01*
X127740000Y-67860000D02*
X127740000Y-68985300D01*
G04 #@! TO.N,PB5*
X127740000Y-66445300D02*
X127458700Y-66445300D01*
X127458700Y-66445300D02*
X120149700Y-73754300D01*
X120149700Y-73754300D02*
X120149700Y-87213200D01*
X120149700Y-87213200D02*
X112963600Y-94399300D01*
X112963600Y-94399300D02*
X110961300Y-94399300D01*
X110961300Y-94399300D02*
X109806700Y-93244700D01*
X109806700Y-93244700D02*
X105818200Y-93244700D01*
X105818200Y-93244700D02*
X105010300Y-94052600D01*
X105010300Y-94052600D02*
X105010300Y-94420000D01*
X103835000Y-94420000D02*
X105010300Y-94420000D01*
X127740000Y-65320000D02*
X127740000Y-66445300D01*
G04 #@! TO.N,PB7*
X103835000Y-91880000D02*
X105010300Y-91880000D01*
X127740000Y-60240000D02*
X127740000Y-61365300D01*
X127740000Y-61365300D02*
X127458700Y-61365300D01*
X127458700Y-61365300D02*
X114778900Y-74045100D01*
X114778900Y-74045100D02*
X114778900Y-90034200D01*
X114778900Y-90034200D02*
X112955600Y-91857500D01*
X112955600Y-91857500D02*
X109607000Y-91857500D01*
X109607000Y-91857500D02*
X108454200Y-90704700D01*
X108454200Y-90704700D02*
X105818200Y-90704700D01*
X105818200Y-90704700D02*
X105010300Y-91512600D01*
X105010300Y-91512600D02*
X105010300Y-91880000D01*
G04 #@! TO.N,PA0*
X106375000Y-69930000D02*
X106375000Y-71105300D01*
X112500000Y-80560000D02*
X112500000Y-79434700D01*
X112500000Y-79434700D02*
X111937300Y-79434700D01*
X111937300Y-79434700D02*
X106288400Y-73785800D01*
X106288400Y-73785800D02*
X106288400Y-71191900D01*
X106288400Y-71191900D02*
X106375000Y-71105300D01*
G04 #@! TO.N,~ASTB*
X103835000Y-59770000D02*
X103835000Y-60945300D01*
X112500000Y-83100000D02*
X112500000Y-81974700D01*
X112500000Y-81974700D02*
X112218700Y-81974700D01*
X112218700Y-81974700D02*
X105010300Y-74766300D01*
X105010300Y-74766300D02*
X105010300Y-61753200D01*
X105010300Y-61753200D02*
X104202400Y-60945300D01*
X104202400Y-60945300D02*
X103835000Y-60945300D01*
G04 #@! TO.N,~IORQ*
X152000000Y-67860000D02*
X152000000Y-66734700D01*
X147490000Y-55160000D02*
X149065800Y-56735800D01*
X149065800Y-56735800D02*
X149065800Y-63977300D01*
X149065800Y-63977300D02*
X151823200Y-66734700D01*
X151823200Y-66734700D02*
X152000000Y-66734700D01*
G04 #@! TO.N,ARDY*
X106375000Y-59770000D02*
X106375000Y-60945300D01*
X112500000Y-88180000D02*
X112500000Y-87054700D01*
X112500000Y-87054700D02*
X112781300Y-87054700D01*
X112781300Y-87054700D02*
X113625400Y-86210600D01*
X113625400Y-86210600D02*
X113625400Y-67392800D01*
X113625400Y-67392800D02*
X112748700Y-66516100D01*
X112748700Y-66516100D02*
X111900600Y-66516100D01*
X111900600Y-66516100D02*
X107550300Y-62165800D01*
X107550300Y-62165800D02*
X107550300Y-61753200D01*
X107550300Y-61753200D02*
X106742400Y-60945300D01*
X106742400Y-60945300D02*
X106375000Y-60945300D01*
G04 #@! TO.N,/D5*
X157584700Y-104902000D02*
X157584700Y-105269400D01*
X157584700Y-105269400D02*
X156776800Y-106077300D01*
X156776800Y-106077300D02*
X155723300Y-106077300D01*
X155723300Y-106077300D02*
X154950000Y-105304000D01*
X154950000Y-105304000D02*
X154950000Y-101036300D01*
X154950000Y-101036300D02*
X151692100Y-97778400D01*
X151692100Y-97778400D02*
X151692100Y-89893000D01*
X151692100Y-89893000D02*
X153175400Y-88409700D01*
X153175400Y-88409700D02*
X153175400Y-80259500D01*
X153175400Y-80259500D02*
X155907600Y-77527300D01*
X155907600Y-77527300D02*
X155907600Y-62510900D01*
X155907600Y-62510900D02*
X152366700Y-58970000D01*
X152366700Y-58970000D02*
X151607900Y-58970000D01*
X151607900Y-58970000D02*
X149889600Y-57251700D01*
X149889600Y-57251700D02*
X149889600Y-55940000D01*
X149889600Y-55940000D02*
X147839600Y-53890000D01*
X147839600Y-53890000D02*
X147144000Y-53890000D01*
X147144000Y-53890000D02*
X145312800Y-52058800D01*
X145312800Y-52058800D02*
X145312800Y-50787300D01*
X158760000Y-104902000D02*
X157584700Y-104902000D01*
X152000000Y-47540000D02*
X149435000Y-47540000D01*
X149435000Y-47540000D02*
X148020400Y-48954600D01*
X148020400Y-48954600D02*
X146983300Y-48954600D01*
X146983300Y-48954600D02*
X145312800Y-50625100D01*
X145312800Y-50625100D02*
X145312800Y-50787300D01*
G04 #@! TO.N,/D0*
X146364700Y-45000000D02*
X144284600Y-42919900D01*
X144284600Y-42919900D02*
X122055500Y-42919900D01*
X122055500Y-42919900D02*
X113625400Y-51350000D01*
X113625400Y-51350000D02*
X112100500Y-51350000D01*
X112100500Y-51350000D02*
X110895100Y-52555400D01*
X110895100Y-52555400D02*
X110895100Y-62766700D01*
X110895100Y-62766700D02*
X112178400Y-64050000D01*
X112178400Y-64050000D02*
X112850200Y-64050000D01*
X112850200Y-64050000D02*
X114075800Y-65275600D01*
X114075800Y-65275600D02*
X114075800Y-88300300D01*
X114075800Y-88300300D02*
X112781400Y-89594700D01*
X112781400Y-89594700D02*
X112500000Y-89594700D01*
X166114700Y-52620000D02*
X156898200Y-43403500D01*
X156898200Y-43403500D02*
X150211800Y-43403500D01*
X150211800Y-43403500D02*
X148615300Y-45000000D01*
X147490000Y-45000000D02*
X146364700Y-45000000D01*
X112500000Y-90720000D02*
X112500000Y-89594700D01*
X167240000Y-52620000D02*
X166114700Y-52620000D01*
X147490000Y-45000000D02*
X148615300Y-45000000D01*
G04 #@! TO.N,/D4*
X152374400Y-48810000D02*
X164735700Y-61171300D01*
X164735700Y-61171300D02*
X164735700Y-67028100D01*
X164735700Y-67028100D02*
X166837600Y-69130000D01*
X166837600Y-69130000D02*
X167601600Y-69130000D01*
X167601600Y-69130000D02*
X175093700Y-76622100D01*
X175093700Y-76622100D02*
X175093700Y-91364400D01*
X175093700Y-91364400D02*
X173823100Y-92635000D01*
X173823100Y-92635000D02*
X172302300Y-92635000D01*
X172302300Y-92635000D02*
X167806300Y-97131000D01*
X167806300Y-97131000D02*
X164799000Y-97131000D01*
X164799000Y-97131000D02*
X159935300Y-101994700D01*
X159935300Y-101994700D02*
X159935300Y-102362000D01*
X152374400Y-48810000D02*
X153125300Y-48059100D01*
X153125300Y-48059100D02*
X153125300Y-46969200D01*
X153125300Y-46969200D02*
X152281400Y-46125300D01*
X152281400Y-46125300D02*
X152000000Y-46125300D01*
X148615300Y-50080000D02*
X149885300Y-48810000D01*
X149885300Y-48810000D02*
X152374400Y-48810000D01*
X158760000Y-102362000D02*
X159935300Y-102362000D01*
X152000000Y-45000000D02*
X152000000Y-46125300D01*
X147490000Y-50080000D02*
X148615300Y-50080000D01*
G04 #@! TO.N,/D1*
X132250000Y-45000000D02*
X132250000Y-46125300D01*
X112500000Y-93260000D02*
X116467500Y-89292500D01*
X116467500Y-89292500D02*
X116467500Y-74997900D01*
X116467500Y-74997900D02*
X127415400Y-64050000D01*
X127415400Y-64050000D02*
X128068400Y-64050000D01*
X128068400Y-64050000D02*
X128865400Y-63253000D01*
X128865400Y-63253000D02*
X128865400Y-49228600D01*
X128865400Y-49228600D02*
X131968700Y-46125300D01*
X131968700Y-46125300D02*
X132250000Y-46125300D01*
G04 #@! TO.N,/D3*
X162475300Y-104902000D02*
X162475300Y-104534600D01*
X162475300Y-104534600D02*
X163283200Y-103726700D01*
X163283200Y-103726700D02*
X164176300Y-103726700D01*
X164176300Y-103726700D02*
X165015400Y-102887600D01*
X165015400Y-102887600D02*
X165015400Y-102057000D01*
X165015400Y-102057000D02*
X170591200Y-96481200D01*
X170591200Y-96481200D02*
X170591200Y-96256800D01*
X170591200Y-96256800D02*
X172477600Y-94370400D01*
X172477600Y-94370400D02*
X173942200Y-94370400D01*
X173942200Y-94370400D02*
X175933300Y-96361500D01*
X175933300Y-96361500D02*
X177950900Y-96361500D01*
X177950900Y-96361500D02*
X179537700Y-94774700D01*
X179537700Y-94774700D02*
X179537700Y-58206800D01*
X179537700Y-58206800D02*
X167456200Y-46125300D01*
X167456200Y-46125300D02*
X167240000Y-46125300D01*
X161300000Y-104902000D02*
X162475300Y-104902000D01*
X167240000Y-45000000D02*
X167240000Y-46125300D01*
G04 #@! TO.N,Net-(U1-Pad16)*
X132250000Y-90720000D02*
X132250000Y-89594700D01*
X132250000Y-83100000D02*
X132250000Y-84225300D01*
X132250000Y-84225300D02*
X131968700Y-84225300D01*
X131968700Y-84225300D02*
X131124700Y-85069300D01*
X131124700Y-85069300D02*
X131124700Y-88750800D01*
X131124700Y-88750800D02*
X131968600Y-89594700D01*
X131968600Y-89594700D02*
X132250000Y-89594700D01*
G04 #@! TO.N,CTSA*
X149400100Y-83397700D02*
X149400100Y-90405700D01*
X149400100Y-90405700D02*
X147956600Y-91849200D01*
X147956600Y-91849200D02*
X137044500Y-91849200D01*
X137044500Y-91849200D02*
X133375300Y-88180000D01*
X132250000Y-88180000D02*
X133375300Y-88180000D01*
G04 #@! TO.N,RTSA*
X133375300Y-85640000D02*
X139580700Y-79434600D01*
X139580700Y-79434600D02*
X148785200Y-79434600D01*
X148785200Y-79434600D02*
X151382600Y-76837200D01*
X151382600Y-76837200D02*
X152811900Y-76837200D01*
X132250000Y-85640000D02*
X133375300Y-85640000D01*
G04 #@! TO.N,SIO-CE*
X147490000Y-57700000D02*
X147490000Y-56574700D01*
X147490000Y-56574700D02*
X147245300Y-56574700D01*
X147245300Y-56574700D02*
X144584800Y-53914200D01*
X144584800Y-53914200D02*
X144584800Y-48804500D01*
X144584800Y-48804500D02*
X146974700Y-46414600D01*
X146974700Y-46414600D02*
X147926800Y-46414600D01*
X147926800Y-46414600D02*
X150466800Y-43874600D01*
X150466800Y-43874600D02*
X152934800Y-43874600D01*
X152934800Y-43874600D02*
X165518300Y-56458100D01*
X165518300Y-56458100D02*
X165518300Y-65197400D01*
X165518300Y-65197400D02*
X166910900Y-66590000D01*
X166910900Y-66590000D02*
X167565300Y-66590000D01*
X167565300Y-66590000D02*
X175714800Y-74739500D01*
X175714800Y-74739500D02*
X175714800Y-88334800D01*
X175714800Y-88334800D02*
X177500000Y-90120000D01*
G04 #@! TO.N,SIO-CLK*
X147490000Y-78020000D02*
X147490000Y-75480000D01*
G04 #@! TO.N,TxDB*
X147490000Y-80560000D02*
X147490000Y-81685300D01*
X147490000Y-81685300D02*
X147208700Y-81685300D01*
X147208700Y-81685300D02*
X146364600Y-82529400D01*
X146364600Y-82529400D02*
X146364600Y-86504800D01*
X146364600Y-86504800D02*
X146594100Y-86734300D01*
G04 #@! TO.N,Net-(U1-Pad22)*
X147490000Y-83100000D02*
X147490000Y-84225300D01*
X147490000Y-90720000D02*
X147490000Y-89594700D01*
X147490000Y-89594700D02*
X147771300Y-89594700D01*
X147771300Y-89594700D02*
X148615300Y-88750700D01*
X148615300Y-88750700D02*
X148615300Y-85069200D01*
X148615300Y-85069200D02*
X147771400Y-84225300D01*
X147771400Y-84225300D02*
X147490000Y-84225300D01*
G04 #@! TO.N,~RESET*
X155678300Y-93505400D02*
X156824600Y-92359100D01*
X156824600Y-92359100D02*
X156824600Y-90451600D01*
X156824600Y-90451600D02*
X158695600Y-88580600D01*
X158695600Y-88580600D02*
X162645600Y-88580600D01*
X162645600Y-88580600D02*
X165825300Y-85400900D01*
X165825300Y-85400900D02*
X165825300Y-73229400D01*
X165825300Y-73229400D02*
X166114700Y-72940000D01*
X167240000Y-72940000D02*
X166114700Y-72940000D01*
G04 #@! TO.N,CTC-CE*
X167240000Y-75480000D02*
X167240000Y-76605300D01*
X167240000Y-76605300D02*
X167521300Y-76605300D01*
X167521300Y-76605300D02*
X171679300Y-80763300D01*
X171679300Y-80763300D02*
X171679300Y-87245200D01*
X171679300Y-87245200D02*
X173467800Y-89033700D01*
G04 #@! TO.N,A5*
X185120000Y-88705300D02*
X184838700Y-88705300D01*
X184838700Y-88705300D02*
X183171100Y-90372900D01*
X183171100Y-90372900D02*
X183171100Y-98097900D01*
X183171100Y-98097900D02*
X174221300Y-107047700D01*
X174221300Y-107047700D02*
X141393700Y-107047700D01*
X141393700Y-107047700D02*
X139615300Y-105269300D01*
X139615300Y-105269300D02*
X139615300Y-104902000D01*
X138440000Y-104902000D02*
X139615300Y-104902000D01*
X185120000Y-87580000D02*
X185120000Y-88705300D01*
G04 #@! TO.N,A6*
X135900000Y-102362000D02*
X135900000Y-103537300D01*
X185120000Y-90120000D02*
X185120000Y-91245300D01*
X185120000Y-91245300D02*
X184838600Y-91245300D01*
X184838600Y-91245300D02*
X183994700Y-92089200D01*
X183994700Y-92089200D02*
X183994700Y-97911200D01*
X183994700Y-97911200D02*
X174406000Y-107499900D01*
X174406000Y-107499900D02*
X139371100Y-107499900D01*
X139371100Y-107499900D02*
X137075300Y-105204100D01*
X137075300Y-105204100D02*
X137075300Y-104345200D01*
X137075300Y-104345200D02*
X136267400Y-103537300D01*
X136267400Y-103537300D02*
X135900000Y-103537300D01*
G04 #@! TO.N,A4*
X167361500Y-98048100D02*
X167526100Y-98048100D01*
X167526100Y-98048100D02*
X172104500Y-93469700D01*
X172104500Y-93469700D02*
X174294900Y-93469700D01*
X174294900Y-93469700D02*
X176374600Y-91390000D01*
X176374600Y-91390000D02*
X177851500Y-91390000D01*
X177851500Y-91390000D02*
X178625300Y-90616200D01*
X178625300Y-90616200D02*
X178625300Y-89549200D01*
X178625300Y-89549200D02*
X177781400Y-88705300D01*
X177781400Y-88705300D02*
X177500000Y-88705300D01*
X177500000Y-87580000D02*
X177500000Y-88705300D01*
G04 #@! TO.N,Net-(J7-Pad5)*
X158255300Y-85000000D02*
X158255300Y-85367300D01*
X158255300Y-85367300D02*
X160743300Y-87855300D01*
X160743300Y-87855300D02*
X162345100Y-87855300D01*
X157080000Y-85000000D02*
X158255300Y-85000000D01*
G04 #@! TO.N,A3*
X180297500Y-85994500D02*
X180297500Y-100334600D01*
X180297500Y-100334600D02*
X174072800Y-106559300D01*
X174072800Y-106559300D02*
X143445200Y-106559300D01*
X143445200Y-106559300D02*
X142155300Y-105269400D01*
X142155300Y-105269400D02*
X142155300Y-104902000D01*
X140980000Y-104902000D02*
X142155300Y-104902000D01*
G04 #@! TO.N,Net-(J6-Pad1)*
X167240000Y-64194700D02*
X166958700Y-64194700D01*
X166958700Y-64194700D02*
X166098500Y-63334500D01*
X166098500Y-63334500D02*
X166098500Y-57188000D01*
X166098500Y-57188000D02*
X166856500Y-56430000D01*
X166856500Y-56430000D02*
X167599200Y-56430000D01*
X167599200Y-56430000D02*
X168402200Y-55627000D01*
X168402200Y-55627000D02*
X168402200Y-52120200D01*
X168402200Y-52120200D02*
X167632000Y-51350000D01*
X167632000Y-51350000D02*
X166873200Y-51350000D01*
X166873200Y-51350000D02*
X166085300Y-50562100D01*
X166085300Y-50562100D02*
X166085300Y-44548900D01*
X166085300Y-44548900D02*
X166836600Y-43797600D01*
X166836600Y-43797600D02*
X168472900Y-43797600D01*
X168472900Y-43797600D02*
X171500000Y-46824700D01*
X171500000Y-48000000D02*
X171500000Y-46824700D01*
X167240000Y-65320000D02*
X167240000Y-64194700D01*
G04 #@! TO.N,Net-(JP2-Pad3)*
X172510000Y-63960000D02*
X172510000Y-68061300D01*
X172510000Y-68061300D02*
X177500000Y-73051300D01*
X177500000Y-73990000D02*
X177500000Y-73051300D01*
X168275400Y-60900700D02*
X167521400Y-61654700D01*
X167521400Y-61654700D02*
X167240000Y-61654700D01*
X167240000Y-58825300D02*
X167521300Y-58825300D01*
X167521300Y-58825300D02*
X168365300Y-59669300D01*
X168365300Y-59669300D02*
X168365300Y-60810800D01*
X168365300Y-60810800D02*
X168275400Y-60900700D01*
X168275400Y-60900700D02*
X171334700Y-63960000D01*
X172510000Y-63960000D02*
X171334700Y-63960000D01*
X167240000Y-62780000D02*
X167240000Y-61654700D01*
X167240000Y-57700000D02*
X167240000Y-58825300D01*
G04 #@! TD*
D20*
G04 #@! TO.N,GND*
G36*
X199290001Y-114290000D02*
X100710000Y-114290000D01*
X100710000Y-110055431D01*
X103265000Y-110055431D01*
X103265000Y-110944569D01*
X103605259Y-111766026D01*
X104233974Y-112394741D01*
X105055431Y-112735000D01*
X105944569Y-112735000D01*
X106766026Y-112394741D01*
X107394741Y-111766026D01*
X107735000Y-110944569D01*
X107735000Y-110055431D01*
X192265000Y-110055431D01*
X192265000Y-110944569D01*
X192605259Y-111766026D01*
X193233974Y-112394741D01*
X194055431Y-112735000D01*
X194944569Y-112735000D01*
X195766026Y-112394741D01*
X196394741Y-111766026D01*
X196735000Y-110944569D01*
X196735000Y-110055431D01*
X196394741Y-109233974D01*
X195766026Y-108605259D01*
X194944569Y-108265000D01*
X194055431Y-108265000D01*
X193233974Y-108605259D01*
X192605259Y-109233974D01*
X192265000Y-110055431D01*
X107735000Y-110055431D01*
X107394741Y-109233974D01*
X106766026Y-108605259D01*
X105944569Y-108265000D01*
X105055431Y-108265000D01*
X104233974Y-108605259D01*
X103605259Y-109233974D01*
X103265000Y-110055431D01*
X100710000Y-110055431D01*
X100710000Y-83752200D01*
X101478583Y-83752200D01*
X101496900Y-83844286D01*
X101496901Y-99916509D01*
X101478583Y-100008600D01*
X101551150Y-100373418D01*
X101701054Y-100597765D01*
X101757804Y-100682697D01*
X101835870Y-100734859D01*
X102567241Y-101466230D01*
X102619403Y-101544297D01*
X102928681Y-101750950D01*
X103201414Y-101805200D01*
X103201418Y-101805200D01*
X103293499Y-101823516D01*
X103385580Y-101805200D01*
X117164714Y-101805200D01*
X117256800Y-101823517D01*
X117348886Y-101805200D01*
X117621619Y-101750950D01*
X117930897Y-101544297D01*
X117983061Y-101466228D01*
X118526397Y-100922892D01*
X126324740Y-108721329D01*
X126376903Y-108799397D01*
X126454969Y-108851559D01*
X126686176Y-109006048D01*
X126686179Y-109006049D01*
X126686181Y-109006050D01*
X126857306Y-109040089D01*
X127050994Y-109078617D01*
X127143082Y-109060300D01*
X179779914Y-109060300D01*
X179872000Y-109078617D01*
X179964086Y-109060300D01*
X180236819Y-109006050D01*
X180546097Y-108799397D01*
X180598261Y-108721328D01*
X181933300Y-107386290D01*
X181977841Y-107430830D01*
X182030003Y-107508897D01*
X182339281Y-107715550D01*
X182565195Y-107760487D01*
X182704100Y-107788117D01*
X182796186Y-107769800D01*
X184323114Y-107769800D01*
X184415200Y-107788117D01*
X184507286Y-107769800D01*
X184780019Y-107715550D01*
X185089297Y-107508897D01*
X185141461Y-107430828D01*
X185624849Y-106947440D01*
X186550000Y-106947440D01*
X186797765Y-106898157D01*
X187007809Y-106757809D01*
X187148157Y-106547765D01*
X187197440Y-106300000D01*
X187197440Y-104700000D01*
X187148157Y-104452235D01*
X187007809Y-104242191D01*
X186797765Y-104101843D01*
X186550000Y-104052560D01*
X184950000Y-104052560D01*
X184702235Y-104101843D01*
X184492191Y-104242191D01*
X184351843Y-104452235D01*
X184305307Y-104686187D01*
X184257745Y-104671861D01*
X183429605Y-105500000D01*
X183443748Y-105514143D01*
X183264143Y-105693748D01*
X183250000Y-105679605D01*
X183235858Y-105693748D01*
X183056253Y-105514143D01*
X183070395Y-105500000D01*
X183056253Y-105485858D01*
X183235858Y-105306252D01*
X183250000Y-105320395D01*
X183487047Y-105083348D01*
X183502119Y-105080350D01*
X183811397Y-104873697D01*
X183863561Y-104795628D01*
X187040931Y-101618259D01*
X187118997Y-101566097D01*
X187325650Y-101256819D01*
X187379900Y-100984086D01*
X187379900Y-100984085D01*
X187398217Y-100892000D01*
X187379900Y-100799914D01*
X187379900Y-95040000D01*
X191485908Y-95040000D01*
X191601161Y-95619418D01*
X191929375Y-96110625D01*
X192227761Y-96310000D01*
X191929375Y-96509375D01*
X191601161Y-97000582D01*
X191485908Y-97580000D01*
X191601161Y-98159418D01*
X191929375Y-98650625D01*
X192227761Y-98850000D01*
X191929375Y-99049375D01*
X191601161Y-99540582D01*
X191485908Y-100120000D01*
X191601161Y-100699418D01*
X191929375Y-101190625D01*
X192227761Y-101390000D01*
X191929375Y-101589375D01*
X191601161Y-102080582D01*
X191485908Y-102660000D01*
X191601161Y-103239418D01*
X191929375Y-103730625D01*
X192227761Y-103930000D01*
X191929375Y-104129375D01*
X191601161Y-104620582D01*
X191485908Y-105200000D01*
X191601161Y-105779418D01*
X191929375Y-106270625D01*
X192420582Y-106598839D01*
X192853744Y-106685000D01*
X193146256Y-106685000D01*
X193579418Y-106598839D01*
X194070625Y-106270625D01*
X194398839Y-105779418D01*
X194514092Y-105200000D01*
X194398839Y-104620582D01*
X194070625Y-104129375D01*
X193772239Y-103930000D01*
X194070625Y-103730625D01*
X194398839Y-103239418D01*
X194514092Y-102660000D01*
X194398839Y-102080582D01*
X194070625Y-101589375D01*
X193772239Y-101390000D01*
X194070625Y-101190625D01*
X194398839Y-100699418D01*
X194514092Y-100120000D01*
X194398839Y-99540582D01*
X194070625Y-99049375D01*
X193772239Y-98850000D01*
X194070625Y-98650625D01*
X194398839Y-98159418D01*
X194514092Y-97580000D01*
X194398839Y-97000582D01*
X194070625Y-96509375D01*
X193772239Y-96310000D01*
X194070625Y-96110625D01*
X194398839Y-95619418D01*
X194514092Y-95040000D01*
X194398839Y-94460582D01*
X194070625Y-93969375D01*
X194048967Y-93954904D01*
X194209698Y-93888327D01*
X194388327Y-93709699D01*
X194485000Y-93476310D01*
X194485000Y-92785750D01*
X194326250Y-92627000D01*
X193127000Y-92627000D01*
X193127000Y-92647000D01*
X192873000Y-92647000D01*
X192873000Y-92627000D01*
X191673750Y-92627000D01*
X191515000Y-92785750D01*
X191515000Y-93476310D01*
X191611673Y-93709699D01*
X191790302Y-93888327D01*
X191951033Y-93954904D01*
X191929375Y-93969375D01*
X191601161Y-94460582D01*
X191485908Y-95040000D01*
X187379900Y-95040000D01*
X187379900Y-91523690D01*
X191515000Y-91523690D01*
X191515000Y-92214250D01*
X191673750Y-92373000D01*
X192873000Y-92373000D01*
X192873000Y-91173750D01*
X193127000Y-91173750D01*
X193127000Y-92373000D01*
X194326250Y-92373000D01*
X194485000Y-92214250D01*
X194485000Y-91523690D01*
X194388327Y-91290301D01*
X194209698Y-91111673D01*
X193976309Y-91015000D01*
X193285750Y-91015000D01*
X193127000Y-91173750D01*
X192873000Y-91173750D01*
X192714250Y-91015000D01*
X192023691Y-91015000D01*
X191790302Y-91111673D01*
X191611673Y-91290301D01*
X191515000Y-91523690D01*
X187379900Y-91523690D01*
X187379900Y-83916986D01*
X187398217Y-83824900D01*
X187373642Y-83701351D01*
X187325650Y-83460081D01*
X187118997Y-83150803D01*
X187040928Y-83098639D01*
X186559749Y-82617460D01*
X186583113Y-82500000D01*
X186471740Y-81940091D01*
X186173709Y-81494056D01*
X186174097Y-81493797D01*
X186380750Y-81184519D01*
X186425833Y-80957871D01*
X186453317Y-80819701D01*
X186435000Y-80727615D01*
X186435000Y-80594396D01*
X186716534Y-80312862D01*
X186935000Y-79785439D01*
X186935000Y-79387289D01*
X187831331Y-78490959D01*
X187909397Y-78438797D01*
X188116050Y-78129519D01*
X188170300Y-77856786D01*
X188170300Y-77856785D01*
X188188617Y-77764700D01*
X188170300Y-77672614D01*
X188170300Y-77540000D01*
X191485908Y-77540000D01*
X191601161Y-78119418D01*
X191929375Y-78610625D01*
X192227761Y-78810000D01*
X191929375Y-79009375D01*
X191601161Y-79500582D01*
X191485908Y-80080000D01*
X191601161Y-80659418D01*
X191929375Y-81150625D01*
X192227761Y-81350000D01*
X191929375Y-81549375D01*
X191601161Y-82040582D01*
X191485908Y-82620000D01*
X191601161Y-83199418D01*
X191929375Y-83690625D01*
X192227761Y-83890000D01*
X191929375Y-84089375D01*
X191601161Y-84580582D01*
X191485908Y-85160000D01*
X191601161Y-85739418D01*
X191929375Y-86230625D01*
X192227761Y-86430000D01*
X191929375Y-86629375D01*
X191601161Y-87120582D01*
X191485908Y-87700000D01*
X191601161Y-88279418D01*
X191929375Y-88770625D01*
X192420582Y-89098839D01*
X192853744Y-89185000D01*
X193146256Y-89185000D01*
X193579418Y-89098839D01*
X194070625Y-88770625D01*
X194398839Y-88279418D01*
X194514092Y-87700000D01*
X194398839Y-87120582D01*
X194070625Y-86629375D01*
X193772239Y-86430000D01*
X194070625Y-86230625D01*
X194398839Y-85739418D01*
X194514092Y-85160000D01*
X194398839Y-84580582D01*
X194070625Y-84089375D01*
X193772239Y-83890000D01*
X194070625Y-83690625D01*
X194398839Y-83199418D01*
X194514092Y-82620000D01*
X194398839Y-82040582D01*
X194070625Y-81549375D01*
X193772239Y-81350000D01*
X194070625Y-81150625D01*
X194398839Y-80659418D01*
X194514092Y-80080000D01*
X194398839Y-79500582D01*
X194070625Y-79009375D01*
X193772239Y-78810000D01*
X194070625Y-78610625D01*
X194398839Y-78119418D01*
X194514092Y-77540000D01*
X194398839Y-76960582D01*
X194070625Y-76469375D01*
X194048967Y-76454904D01*
X194209698Y-76388327D01*
X194388327Y-76209699D01*
X194485000Y-75976310D01*
X194485000Y-75285750D01*
X194326250Y-75127000D01*
X193127000Y-75127000D01*
X193127000Y-75147000D01*
X192873000Y-75147000D01*
X192873000Y-75127000D01*
X191673750Y-75127000D01*
X191515000Y-75285750D01*
X191515000Y-75976310D01*
X191611673Y-76209699D01*
X191790302Y-76388327D01*
X191951033Y-76454904D01*
X191929375Y-76469375D01*
X191601161Y-76960582D01*
X191485908Y-77540000D01*
X188170300Y-77540000D01*
X188170300Y-74840400D01*
X188545174Y-74840400D01*
X188925580Y-74682831D01*
X189216731Y-74391680D01*
X189369157Y-74023690D01*
X191515000Y-74023690D01*
X191515000Y-74714250D01*
X191673750Y-74873000D01*
X192873000Y-74873000D01*
X192873000Y-73673750D01*
X193127000Y-73673750D01*
X193127000Y-74873000D01*
X194326250Y-74873000D01*
X194485000Y-74714250D01*
X194485000Y-74023690D01*
X194388327Y-73790301D01*
X194209698Y-73611673D01*
X193976309Y-73515000D01*
X193285750Y-73515000D01*
X193127000Y-73673750D01*
X192873000Y-73673750D01*
X192714250Y-73515000D01*
X192023691Y-73515000D01*
X191790302Y-73611673D01*
X191611673Y-73790301D01*
X191515000Y-74023690D01*
X189369157Y-74023690D01*
X189374300Y-74011274D01*
X189374300Y-73783638D01*
X189375904Y-73781237D01*
X189420000Y-73559552D01*
X189420000Y-73559548D01*
X189434888Y-73484701D01*
X189420000Y-73409854D01*
X189420000Y-54865000D01*
X190510908Y-54865000D01*
X190626161Y-55444418D01*
X190954375Y-55935625D01*
X191252761Y-56135000D01*
X190954375Y-56334375D01*
X190626161Y-56825582D01*
X190510908Y-57405000D01*
X190626161Y-57984418D01*
X190954375Y-58475625D01*
X191252761Y-58675000D01*
X190954375Y-58874375D01*
X190626161Y-59365582D01*
X190510908Y-59945000D01*
X190626161Y-60524418D01*
X190954375Y-61015625D01*
X191252761Y-61215000D01*
X190954375Y-61414375D01*
X190626161Y-61905582D01*
X190510908Y-62485000D01*
X190626161Y-63064418D01*
X190954375Y-63555625D01*
X191252761Y-63755000D01*
X190954375Y-63954375D01*
X190626161Y-64445582D01*
X190510908Y-65025000D01*
X190626161Y-65604418D01*
X190954375Y-66095625D01*
X191252761Y-66295000D01*
X190954375Y-66494375D01*
X190626161Y-66985582D01*
X190510908Y-67565000D01*
X190626161Y-68144418D01*
X190954375Y-68635625D01*
X191445582Y-68963839D01*
X191878744Y-69050000D01*
X192171256Y-69050000D01*
X192604418Y-68963839D01*
X193095625Y-68635625D01*
X193295000Y-68337239D01*
X193494375Y-68635625D01*
X193985582Y-68963839D01*
X194418744Y-69050000D01*
X194711256Y-69050000D01*
X195144418Y-68963839D01*
X195635625Y-68635625D01*
X195963839Y-68144418D01*
X196079092Y-67565000D01*
X195963839Y-66985582D01*
X195635625Y-66494375D01*
X195337239Y-66295000D01*
X195635625Y-66095625D01*
X195963839Y-65604418D01*
X196079092Y-65025000D01*
X195963839Y-64445582D01*
X195635625Y-63954375D01*
X195337239Y-63755000D01*
X195635625Y-63555625D01*
X195963839Y-63064418D01*
X196079092Y-62485000D01*
X195963839Y-61905582D01*
X195635625Y-61414375D01*
X195337239Y-61215000D01*
X195635625Y-61015625D01*
X195963839Y-60524418D01*
X196079092Y-59945000D01*
X195963839Y-59365582D01*
X195635625Y-58874375D01*
X195337239Y-58675000D01*
X195635625Y-58475625D01*
X195963839Y-57984418D01*
X196079092Y-57405000D01*
X195963839Y-56825582D01*
X195635625Y-56334375D01*
X195337239Y-56135000D01*
X195635625Y-55935625D01*
X195963839Y-55444418D01*
X196079092Y-54865000D01*
X195963839Y-54285582D01*
X195635625Y-53794375D01*
X195337239Y-53595000D01*
X195635625Y-53395625D01*
X195963839Y-52904418D01*
X196079092Y-52325000D01*
X195963839Y-51745582D01*
X195635625Y-51254375D01*
X195144418Y-50926161D01*
X194711256Y-50840000D01*
X194418744Y-50840000D01*
X193985582Y-50926161D01*
X193494375Y-51254375D01*
X193482184Y-51272619D01*
X193473157Y-51227235D01*
X193332809Y-51017191D01*
X193122765Y-50876843D01*
X192875000Y-50827560D01*
X191175000Y-50827560D01*
X190927235Y-50876843D01*
X190717191Y-51017191D01*
X190576843Y-51227235D01*
X190527560Y-51475000D01*
X190527560Y-53175000D01*
X190576843Y-53422765D01*
X190717191Y-53632809D01*
X190927235Y-53773157D01*
X190972619Y-53782184D01*
X190954375Y-53794375D01*
X190626161Y-54285582D01*
X190510908Y-54865000D01*
X189420000Y-54865000D01*
X189420000Y-54218043D01*
X189694577Y-54034577D01*
X190011740Y-53559909D01*
X190123113Y-53000000D01*
X190011740Y-52440091D01*
X189694577Y-51965423D01*
X189415896Y-51779214D01*
X189375904Y-51578163D01*
X189375904Y-51578162D01*
X189250329Y-51390227D01*
X189207929Y-51326771D01*
X189144473Y-51284371D01*
X186849394Y-48989293D01*
X187054147Y-48784540D01*
X187265000Y-48275494D01*
X187265000Y-47724506D01*
X187254835Y-47699966D01*
X188984473Y-45970329D01*
X189047929Y-45927929D01*
X189215904Y-45676537D01*
X189260000Y-45454852D01*
X189260000Y-45454848D01*
X189274888Y-45380000D01*
X189260000Y-45305152D01*
X189260000Y-44738430D01*
X189312862Y-44716534D01*
X189716534Y-44312862D01*
X189823165Y-44055431D01*
X192265000Y-44055431D01*
X192265000Y-44944569D01*
X192605259Y-45766026D01*
X193233974Y-46394741D01*
X194055431Y-46735000D01*
X194944569Y-46735000D01*
X195766026Y-46394741D01*
X196394741Y-45766026D01*
X196735000Y-44944569D01*
X196735000Y-44055431D01*
X196394741Y-43233974D01*
X195766026Y-42605259D01*
X194944569Y-42265000D01*
X194055431Y-42265000D01*
X193233974Y-42605259D01*
X192605259Y-43233974D01*
X192265000Y-44055431D01*
X189823165Y-44055431D01*
X189935000Y-43785439D01*
X189935000Y-43214561D01*
X189716534Y-42687138D01*
X189312862Y-42283466D01*
X188785439Y-42065000D01*
X188214561Y-42065000D01*
X187687138Y-42283466D01*
X187283466Y-42687138D01*
X187256475Y-42752299D01*
X187253864Y-42745995D01*
X187007745Y-42671861D01*
X186179605Y-43500000D01*
X187007745Y-44328139D01*
X187253864Y-44254005D01*
X187256290Y-44247254D01*
X187283466Y-44312862D01*
X187687138Y-44716534D01*
X187740000Y-44738430D01*
X187740000Y-45065198D01*
X186180034Y-46625165D01*
X186155494Y-46615000D01*
X185604506Y-46615000D01*
X185095460Y-46825853D01*
X184705853Y-47215460D01*
X184495000Y-47724506D01*
X184495000Y-48275494D01*
X184705853Y-48784540D01*
X185095460Y-49174147D01*
X185123200Y-49185637D01*
X185164096Y-49391236D01*
X185332071Y-49642629D01*
X185395530Y-49685031D01*
X187655694Y-51945196D01*
X187625423Y-51965423D01*
X187308260Y-52440091D01*
X187196887Y-53000000D01*
X187308260Y-53559909D01*
X187625423Y-54034577D01*
X187900000Y-54218044D01*
X187900000Y-60184924D01*
X187831331Y-60139041D01*
X186559749Y-58867459D01*
X186583113Y-58750000D01*
X186471740Y-58190091D01*
X186154577Y-57715423D01*
X186055000Y-57648888D01*
X186055000Y-57323344D01*
X186312862Y-57216534D01*
X186716534Y-56812862D01*
X186935000Y-56285439D01*
X186935000Y-55714561D01*
X186716534Y-55187138D01*
X186312862Y-54783466D01*
X185785439Y-54565000D01*
X185214561Y-54565000D01*
X184687138Y-54783466D01*
X184283466Y-55187138D01*
X184256475Y-55252299D01*
X184253864Y-55245995D01*
X184007745Y-55171861D01*
X183179605Y-56000000D01*
X184007745Y-56828139D01*
X184185000Y-56774748D01*
X184185001Y-57648887D01*
X184085423Y-57715423D01*
X183768260Y-58190091D01*
X183656887Y-58750000D01*
X183768260Y-59309909D01*
X184085423Y-59784577D01*
X184437758Y-60020000D01*
X184085423Y-60255423D01*
X183768260Y-60730091D01*
X183656887Y-61290000D01*
X183768260Y-61849909D01*
X184085423Y-62324577D01*
X184437758Y-62560000D01*
X184085423Y-62795423D01*
X183768260Y-63270091D01*
X183656887Y-63830000D01*
X183768260Y-64389909D01*
X184085423Y-64864577D01*
X184437758Y-65100000D01*
X184085423Y-65335423D01*
X183768260Y-65810091D01*
X183656887Y-66370000D01*
X183768260Y-66929909D01*
X184085423Y-67404577D01*
X184469108Y-67660947D01*
X184264866Y-67757611D01*
X183888959Y-68172577D01*
X183874086Y-68208485D01*
X183104000Y-67438399D01*
X183104000Y-57431671D01*
X183353454Y-57419778D01*
X183754005Y-57253864D01*
X183828139Y-57007745D01*
X183000000Y-56179605D01*
X182985858Y-56193748D01*
X182806252Y-56014142D01*
X182820395Y-56000000D01*
X181992255Y-55171861D01*
X181746136Y-55245995D01*
X181727194Y-55298693D01*
X181420756Y-54992255D01*
X182171861Y-54992255D01*
X183000000Y-55820395D01*
X183828139Y-54992255D01*
X183754005Y-54746136D01*
X183216777Y-54553035D01*
X182646546Y-54580222D01*
X182245995Y-54746136D01*
X182171861Y-54992255D01*
X181420756Y-54992255D01*
X179870253Y-53441752D01*
X179935000Y-53285439D01*
X179935000Y-52714561D01*
X179913103Y-52661698D01*
X181484473Y-51090329D01*
X181547929Y-51047929D01*
X181715904Y-50796537D01*
X181760000Y-50574852D01*
X181760000Y-50574847D01*
X181774888Y-50500000D01*
X181760000Y-50425153D01*
X181760000Y-49184312D01*
X181784540Y-49174147D01*
X182174147Y-48784540D01*
X182385000Y-48275494D01*
X182385000Y-47724506D01*
X182174147Y-47215460D01*
X181784540Y-46825853D01*
X181275494Y-46615000D01*
X180724506Y-46615000D01*
X180215460Y-46825853D01*
X179825853Y-47215460D01*
X179615000Y-47724506D01*
X179615000Y-48275494D01*
X179825853Y-48784540D01*
X180215460Y-49174147D01*
X180240000Y-49184312D01*
X180240001Y-50185197D01*
X178838302Y-51586897D01*
X178785439Y-51565000D01*
X178214561Y-51565000D01*
X177687138Y-51783466D01*
X177283466Y-52187138D01*
X177065000Y-52714561D01*
X177065000Y-53285439D01*
X177283466Y-53812862D01*
X177687138Y-54216534D01*
X178214561Y-54435000D01*
X178713899Y-54435000D01*
X181584001Y-57305103D01*
X181584000Y-67678353D01*
X181569112Y-67753200D01*
X181584000Y-67828047D01*
X181584000Y-67828051D01*
X181628096Y-68049736D01*
X181796071Y-68301129D01*
X181859530Y-68343531D01*
X184023739Y-70507740D01*
X183768260Y-70890091D01*
X183656887Y-71450000D01*
X183768260Y-72009909D01*
X184085423Y-72484577D01*
X184437758Y-72720000D01*
X184085423Y-72955423D01*
X183768260Y-73430091D01*
X183656887Y-73990000D01*
X183768260Y-74549909D01*
X184085423Y-75024577D01*
X184437758Y-75260000D01*
X184085423Y-75495423D01*
X183768260Y-75970091D01*
X183656887Y-76530000D01*
X183768260Y-77089909D01*
X184085423Y-77564577D01*
X184560091Y-77881740D01*
X184978667Y-77965000D01*
X185261333Y-77965000D01*
X185679909Y-77881740D01*
X186029679Y-77648031D01*
X185612711Y-78065000D01*
X185214561Y-78065000D01*
X184687138Y-78283466D01*
X184283466Y-78687138D01*
X184256475Y-78752299D01*
X184253864Y-78745995D01*
X184007745Y-78671861D01*
X183179605Y-79500000D01*
X184007745Y-80328139D01*
X184253864Y-80254005D01*
X184256290Y-80247254D01*
X184283466Y-80312862D01*
X184476058Y-80505454D01*
X184445904Y-80525603D01*
X184393742Y-80603669D01*
X184393741Y-80603670D01*
X184239250Y-80834882D01*
X184166683Y-81199700D01*
X184185001Y-81291790D01*
X184185001Y-81398887D01*
X184085423Y-81465423D01*
X183768260Y-81940091D01*
X183656887Y-82500000D01*
X183768260Y-83059909D01*
X184085423Y-83534577D01*
X184437758Y-83770000D01*
X184085423Y-84005423D01*
X183768260Y-84480091D01*
X183656887Y-85040000D01*
X183768260Y-85599909D01*
X184085423Y-86074577D01*
X184437758Y-86310000D01*
X184085423Y-86545423D01*
X183768260Y-87020091D01*
X183656887Y-87580000D01*
X183768260Y-88139909D01*
X183992977Y-88476221D01*
X182686630Y-89782569D01*
X182623171Y-89824971D01*
X182455196Y-90076364D01*
X182411100Y-90298049D01*
X182411100Y-90298053D01*
X182396212Y-90372900D01*
X182411100Y-90447747D01*
X182411101Y-97783097D01*
X181057500Y-99136698D01*
X181057500Y-86698211D01*
X181174931Y-86580780D01*
X181332500Y-86200374D01*
X181332500Y-85788626D01*
X181174931Y-85408220D01*
X180883780Y-85117069D01*
X180503374Y-84959500D01*
X180297700Y-84959500D01*
X180297700Y-80507745D01*
X182171861Y-80507745D01*
X182245995Y-80753864D01*
X182783223Y-80946965D01*
X183353454Y-80919778D01*
X183754005Y-80753864D01*
X183828139Y-80507745D01*
X183000000Y-79679605D01*
X182171861Y-80507745D01*
X180297700Y-80507745D01*
X180297700Y-79283223D01*
X181553035Y-79283223D01*
X181580222Y-79853454D01*
X181746136Y-80254005D01*
X181992255Y-80328139D01*
X182820395Y-79500000D01*
X181992255Y-78671861D01*
X181746136Y-78745995D01*
X181553035Y-79283223D01*
X180297700Y-79283223D01*
X180297700Y-78492255D01*
X182171861Y-78492255D01*
X183000000Y-79320395D01*
X183828139Y-78492255D01*
X183754005Y-78246136D01*
X183216777Y-78053035D01*
X182646546Y-78080222D01*
X182245995Y-78246136D01*
X182171861Y-78492255D01*
X180297700Y-78492255D01*
X180297700Y-58281646D01*
X180312588Y-58206799D01*
X180297700Y-58131952D01*
X180297700Y-58131948D01*
X180253604Y-57910263D01*
X180085629Y-57658871D01*
X180022173Y-57616471D01*
X171903141Y-49497440D01*
X172350000Y-49497440D01*
X172597765Y-49448157D01*
X172807809Y-49307809D01*
X172948157Y-49097765D01*
X172968739Y-48994292D01*
X173273076Y-49271645D01*
X173683110Y-49441476D01*
X173913000Y-49320155D01*
X173913000Y-48127000D01*
X174167000Y-48127000D01*
X174167000Y-49320155D01*
X174396890Y-49441476D01*
X174806924Y-49271645D01*
X175235183Y-48881358D01*
X175481486Y-48356892D01*
X175360819Y-48127000D01*
X174167000Y-48127000D01*
X173913000Y-48127000D01*
X173893000Y-48127000D01*
X173893000Y-47873000D01*
X173913000Y-47873000D01*
X173913000Y-46679845D01*
X174167000Y-46679845D01*
X174167000Y-47873000D01*
X175360819Y-47873000D01*
X175481486Y-47643108D01*
X175235183Y-47118642D01*
X174806924Y-46728355D01*
X174396890Y-46558524D01*
X174167000Y-46679845D01*
X173913000Y-46679845D01*
X173683110Y-46558524D01*
X173273076Y-46728355D01*
X172968739Y-47005708D01*
X172948157Y-46902235D01*
X172807809Y-46692191D01*
X172597765Y-46551843D01*
X172350000Y-46502560D01*
X172198797Y-46502560D01*
X172047929Y-46276771D01*
X171984473Y-46234371D01*
X169063231Y-43313130D01*
X169020829Y-43249671D01*
X168968284Y-43214561D01*
X177065000Y-43214561D01*
X177065000Y-43785439D01*
X177283466Y-44312862D01*
X177687138Y-44716534D01*
X178214561Y-44935000D01*
X178785439Y-44935000D01*
X179312862Y-44716534D01*
X179521651Y-44507745D01*
X180171861Y-44507745D01*
X180245995Y-44753864D01*
X180783223Y-44946965D01*
X181353454Y-44919778D01*
X181754005Y-44753864D01*
X181828139Y-44507745D01*
X185171861Y-44507745D01*
X185245995Y-44753864D01*
X185783223Y-44946965D01*
X186353454Y-44919778D01*
X186754005Y-44753864D01*
X186828139Y-44507745D01*
X186000000Y-43679605D01*
X185171861Y-44507745D01*
X181828139Y-44507745D01*
X181000000Y-43679605D01*
X180171861Y-44507745D01*
X179521651Y-44507745D01*
X179716534Y-44312862D01*
X179743525Y-44247701D01*
X179746136Y-44254005D01*
X179992255Y-44328139D01*
X180820395Y-43500000D01*
X181179605Y-43500000D01*
X182007745Y-44328139D01*
X182253864Y-44254005D01*
X182446965Y-43716777D01*
X182426295Y-43283223D01*
X184553035Y-43283223D01*
X184580222Y-43853454D01*
X184746136Y-44254005D01*
X184992255Y-44328139D01*
X185820395Y-43500000D01*
X184992255Y-42671861D01*
X184746136Y-42745995D01*
X184553035Y-43283223D01*
X182426295Y-43283223D01*
X182419778Y-43146546D01*
X182253864Y-42745995D01*
X182007745Y-42671861D01*
X181179605Y-43500000D01*
X180820395Y-43500000D01*
X179992255Y-42671861D01*
X179746136Y-42745995D01*
X179743710Y-42752746D01*
X179716534Y-42687138D01*
X179521651Y-42492255D01*
X180171861Y-42492255D01*
X181000000Y-43320395D01*
X181828139Y-42492255D01*
X185171861Y-42492255D01*
X186000000Y-43320395D01*
X186828139Y-42492255D01*
X186754005Y-42246136D01*
X186216777Y-42053035D01*
X185646546Y-42080222D01*
X185245995Y-42246136D01*
X185171861Y-42492255D01*
X181828139Y-42492255D01*
X181754005Y-42246136D01*
X181216777Y-42053035D01*
X180646546Y-42080222D01*
X180245995Y-42246136D01*
X180171861Y-42492255D01*
X179521651Y-42492255D01*
X179312862Y-42283466D01*
X178785439Y-42065000D01*
X178214561Y-42065000D01*
X177687138Y-42283466D01*
X177283466Y-42687138D01*
X177065000Y-43214561D01*
X168968284Y-43214561D01*
X168769437Y-43081696D01*
X168547752Y-43037600D01*
X168547747Y-43037600D01*
X168472900Y-43022712D01*
X168398053Y-43037600D01*
X166911448Y-43037600D01*
X166836600Y-43022712D01*
X166761752Y-43037600D01*
X166761748Y-43037600D01*
X166588205Y-43072120D01*
X166540062Y-43081696D01*
X166424823Y-43158697D01*
X166288671Y-43249671D01*
X166246271Y-43313127D01*
X165600828Y-43958571D01*
X165537372Y-44000971D01*
X165494972Y-44064427D01*
X165494971Y-44064428D01*
X165423670Y-44171138D01*
X165369397Y-44252363D01*
X165332056Y-44440091D01*
X165310412Y-44548900D01*
X165325301Y-44623752D01*
X165325300Y-50487253D01*
X165310412Y-50562100D01*
X165325300Y-50636947D01*
X165325300Y-50636951D01*
X165354810Y-50785307D01*
X157488531Y-42919030D01*
X157446129Y-42855571D01*
X157194737Y-42687596D01*
X156973052Y-42643500D01*
X156973047Y-42643500D01*
X156898200Y-42628612D01*
X156823353Y-42643500D01*
X150286647Y-42643500D01*
X150211800Y-42628612D01*
X150136953Y-42643500D01*
X150136948Y-42643500D01*
X149915263Y-42687596D01*
X149663871Y-42855571D01*
X149621471Y-42919027D01*
X148544804Y-43995695D01*
X148524577Y-43965423D01*
X148049909Y-43648260D01*
X147631333Y-43565000D01*
X147348667Y-43565000D01*
X146930091Y-43648260D01*
X146455423Y-43965423D01*
X146435196Y-43995694D01*
X144874931Y-42435430D01*
X144832529Y-42371971D01*
X144581137Y-42203996D01*
X144359452Y-42159900D01*
X144359447Y-42159900D01*
X144284600Y-42145012D01*
X144209753Y-42159900D01*
X122130348Y-42159900D01*
X122055500Y-42145012D01*
X121980652Y-42159900D01*
X121980648Y-42159900D01*
X121807105Y-42194420D01*
X121758962Y-42203996D01*
X121667664Y-42265000D01*
X121507571Y-42371971D01*
X121465171Y-42435427D01*
X113939468Y-49961131D01*
X113851740Y-49520091D01*
X113534577Y-49045423D01*
X113182242Y-48810000D01*
X113534577Y-48574577D01*
X113851740Y-48099909D01*
X113963113Y-47540000D01*
X113851740Y-46980091D01*
X113534577Y-46505423D01*
X113413894Y-46424785D01*
X113547765Y-46398157D01*
X113757809Y-46257809D01*
X113898157Y-46047765D01*
X113947440Y-45800000D01*
X113947440Y-44200000D01*
X113898157Y-43952235D01*
X113757809Y-43742191D01*
X113547765Y-43601843D01*
X113300000Y-43552560D01*
X111700000Y-43552560D01*
X111452235Y-43601843D01*
X111242191Y-43742191D01*
X111101843Y-43952235D01*
X111052560Y-44200000D01*
X111052560Y-45800000D01*
X111101843Y-46047765D01*
X111242191Y-46257809D01*
X111452235Y-46398157D01*
X111586106Y-46424785D01*
X111465423Y-46505423D01*
X111148260Y-46980091D01*
X111036887Y-47540000D01*
X111148260Y-48099909D01*
X111465423Y-48574577D01*
X111817758Y-48810000D01*
X111465423Y-49045423D01*
X111148260Y-49520091D01*
X111036887Y-50080000D01*
X111148260Y-50639909D01*
X111383591Y-50992107D01*
X110410630Y-51965069D01*
X110347171Y-52007471D01*
X110179196Y-52258864D01*
X110135100Y-52480549D01*
X110135100Y-52480553D01*
X110120212Y-52555400D01*
X110135100Y-52630247D01*
X110135101Y-62585400D01*
X109834126Y-62585400D01*
X109453720Y-62742969D01*
X109327995Y-62868694D01*
X108310300Y-61850999D01*
X108310300Y-61828046D01*
X108325188Y-61753199D01*
X108310300Y-61678352D01*
X108310300Y-61678349D01*
X108266204Y-61456663D01*
X108098229Y-61205271D01*
X108034773Y-61162871D01*
X107552531Y-60680629D01*
X107773839Y-60349418D01*
X107889092Y-59770000D01*
X107773839Y-59190582D01*
X107445625Y-58699375D01*
X107147239Y-58500000D01*
X107445625Y-58300625D01*
X107773839Y-57809418D01*
X107889092Y-57230000D01*
X107773839Y-56650582D01*
X107445625Y-56159375D01*
X107147239Y-55960000D01*
X107445625Y-55760625D01*
X107773839Y-55269418D01*
X107889092Y-54690000D01*
X107773839Y-54110582D01*
X107445625Y-53619375D01*
X106954418Y-53291161D01*
X106521256Y-53205000D01*
X106228744Y-53205000D01*
X106215019Y-53207730D01*
X105719161Y-52711872D01*
X105666997Y-52633803D01*
X105357719Y-52427150D01*
X105084986Y-52372900D01*
X104992900Y-52354583D01*
X104900814Y-52372900D01*
X103331886Y-52372900D01*
X103239800Y-52354583D01*
X103147714Y-52372900D01*
X102874981Y-52427150D01*
X102565703Y-52633803D01*
X102513541Y-52711870D01*
X101862770Y-53362641D01*
X101784704Y-53414803D01*
X101732542Y-53492869D01*
X101732541Y-53492870D01*
X101578050Y-53724082D01*
X101505483Y-54088900D01*
X101523801Y-54180991D01*
X101523800Y-81990814D01*
X101505483Y-82082900D01*
X101544826Y-82280688D01*
X101578050Y-82447718D01*
X101784703Y-82756997D01*
X101862772Y-82809161D01*
X101957711Y-82904100D01*
X101835872Y-83025939D01*
X101757803Y-83078103D01*
X101555581Y-83380750D01*
X101551150Y-83387382D01*
X101478583Y-83752200D01*
X100710000Y-83752200D01*
X100710000Y-44055431D01*
X103265000Y-44055431D01*
X103265000Y-44944569D01*
X103605259Y-45766026D01*
X104233974Y-46394741D01*
X105055431Y-46735000D01*
X105944569Y-46735000D01*
X106766026Y-46394741D01*
X107394741Y-45766026D01*
X107735000Y-44944569D01*
X107735000Y-44055431D01*
X107394741Y-43233974D01*
X106766026Y-42605259D01*
X105944569Y-42265000D01*
X105055431Y-42265000D01*
X104233974Y-42605259D01*
X103605259Y-43233974D01*
X103265000Y-44055431D01*
X100710000Y-44055431D01*
X100710000Y-40710000D01*
X199290000Y-40710000D01*
X199290001Y-114290000D01*
X199290001Y-114290000D01*
G37*
X199290001Y-114290000D02*
X100710000Y-114290000D01*
X100710000Y-110055431D01*
X103265000Y-110055431D01*
X103265000Y-110944569D01*
X103605259Y-111766026D01*
X104233974Y-112394741D01*
X105055431Y-112735000D01*
X105944569Y-112735000D01*
X106766026Y-112394741D01*
X107394741Y-111766026D01*
X107735000Y-110944569D01*
X107735000Y-110055431D01*
X192265000Y-110055431D01*
X192265000Y-110944569D01*
X192605259Y-111766026D01*
X193233974Y-112394741D01*
X194055431Y-112735000D01*
X194944569Y-112735000D01*
X195766026Y-112394741D01*
X196394741Y-111766026D01*
X196735000Y-110944569D01*
X196735000Y-110055431D01*
X196394741Y-109233974D01*
X195766026Y-108605259D01*
X194944569Y-108265000D01*
X194055431Y-108265000D01*
X193233974Y-108605259D01*
X192605259Y-109233974D01*
X192265000Y-110055431D01*
X107735000Y-110055431D01*
X107394741Y-109233974D01*
X106766026Y-108605259D01*
X105944569Y-108265000D01*
X105055431Y-108265000D01*
X104233974Y-108605259D01*
X103605259Y-109233974D01*
X103265000Y-110055431D01*
X100710000Y-110055431D01*
X100710000Y-83752200D01*
X101478583Y-83752200D01*
X101496900Y-83844286D01*
X101496901Y-99916509D01*
X101478583Y-100008600D01*
X101551150Y-100373418D01*
X101701054Y-100597765D01*
X101757804Y-100682697D01*
X101835870Y-100734859D01*
X102567241Y-101466230D01*
X102619403Y-101544297D01*
X102928681Y-101750950D01*
X103201414Y-101805200D01*
X103201418Y-101805200D01*
X103293499Y-101823516D01*
X103385580Y-101805200D01*
X117164714Y-101805200D01*
X117256800Y-101823517D01*
X117348886Y-101805200D01*
X117621619Y-101750950D01*
X117930897Y-101544297D01*
X117983061Y-101466228D01*
X118526397Y-100922892D01*
X126324740Y-108721329D01*
X126376903Y-108799397D01*
X126454969Y-108851559D01*
X126686176Y-109006048D01*
X126686179Y-109006049D01*
X126686181Y-109006050D01*
X126857306Y-109040089D01*
X127050994Y-109078617D01*
X127143082Y-109060300D01*
X179779914Y-109060300D01*
X179872000Y-109078617D01*
X179964086Y-109060300D01*
X180236819Y-109006050D01*
X180546097Y-108799397D01*
X180598261Y-108721328D01*
X181933300Y-107386290D01*
X181977841Y-107430830D01*
X182030003Y-107508897D01*
X182339281Y-107715550D01*
X182565195Y-107760487D01*
X182704100Y-107788117D01*
X182796186Y-107769800D01*
X184323114Y-107769800D01*
X184415200Y-107788117D01*
X184507286Y-107769800D01*
X184780019Y-107715550D01*
X185089297Y-107508897D01*
X185141461Y-107430828D01*
X185624849Y-106947440D01*
X186550000Y-106947440D01*
X186797765Y-106898157D01*
X187007809Y-106757809D01*
X187148157Y-106547765D01*
X187197440Y-106300000D01*
X187197440Y-104700000D01*
X187148157Y-104452235D01*
X187007809Y-104242191D01*
X186797765Y-104101843D01*
X186550000Y-104052560D01*
X184950000Y-104052560D01*
X184702235Y-104101843D01*
X184492191Y-104242191D01*
X184351843Y-104452235D01*
X184305307Y-104686187D01*
X184257745Y-104671861D01*
X183429605Y-105500000D01*
X183443748Y-105514143D01*
X183264143Y-105693748D01*
X183250000Y-105679605D01*
X183235858Y-105693748D01*
X183056253Y-105514143D01*
X183070395Y-105500000D01*
X183056253Y-105485858D01*
X183235858Y-105306252D01*
X183250000Y-105320395D01*
X183487047Y-105083348D01*
X183502119Y-105080350D01*
X183811397Y-104873697D01*
X183863561Y-104795628D01*
X187040931Y-101618259D01*
X187118997Y-101566097D01*
X187325650Y-101256819D01*
X187379900Y-100984086D01*
X187379900Y-100984085D01*
X187398217Y-100892000D01*
X187379900Y-100799914D01*
X187379900Y-95040000D01*
X191485908Y-95040000D01*
X191601161Y-95619418D01*
X191929375Y-96110625D01*
X192227761Y-96310000D01*
X191929375Y-96509375D01*
X191601161Y-97000582D01*
X191485908Y-97580000D01*
X191601161Y-98159418D01*
X191929375Y-98650625D01*
X192227761Y-98850000D01*
X191929375Y-99049375D01*
X191601161Y-99540582D01*
X191485908Y-100120000D01*
X191601161Y-100699418D01*
X191929375Y-101190625D01*
X192227761Y-101390000D01*
X191929375Y-101589375D01*
X191601161Y-102080582D01*
X191485908Y-102660000D01*
X191601161Y-103239418D01*
X191929375Y-103730625D01*
X192227761Y-103930000D01*
X191929375Y-104129375D01*
X191601161Y-104620582D01*
X191485908Y-105200000D01*
X191601161Y-105779418D01*
X191929375Y-106270625D01*
X192420582Y-106598839D01*
X192853744Y-106685000D01*
X193146256Y-106685000D01*
X193579418Y-106598839D01*
X194070625Y-106270625D01*
X194398839Y-105779418D01*
X194514092Y-105200000D01*
X194398839Y-104620582D01*
X194070625Y-104129375D01*
X193772239Y-103930000D01*
X194070625Y-103730625D01*
X194398839Y-103239418D01*
X194514092Y-102660000D01*
X194398839Y-102080582D01*
X194070625Y-101589375D01*
X193772239Y-101390000D01*
X194070625Y-101190625D01*
X194398839Y-100699418D01*
X194514092Y-100120000D01*
X194398839Y-99540582D01*
X194070625Y-99049375D01*
X193772239Y-98850000D01*
X194070625Y-98650625D01*
X194398839Y-98159418D01*
X194514092Y-97580000D01*
X194398839Y-97000582D01*
X194070625Y-96509375D01*
X193772239Y-96310000D01*
X194070625Y-96110625D01*
X194398839Y-95619418D01*
X194514092Y-95040000D01*
X194398839Y-94460582D01*
X194070625Y-93969375D01*
X194048967Y-93954904D01*
X194209698Y-93888327D01*
X194388327Y-93709699D01*
X194485000Y-93476310D01*
X194485000Y-92785750D01*
X194326250Y-92627000D01*
X193127000Y-92627000D01*
X193127000Y-92647000D01*
X192873000Y-92647000D01*
X192873000Y-92627000D01*
X191673750Y-92627000D01*
X191515000Y-92785750D01*
X191515000Y-93476310D01*
X191611673Y-93709699D01*
X191790302Y-93888327D01*
X191951033Y-93954904D01*
X191929375Y-93969375D01*
X191601161Y-94460582D01*
X191485908Y-95040000D01*
X187379900Y-95040000D01*
X187379900Y-91523690D01*
X191515000Y-91523690D01*
X191515000Y-92214250D01*
X191673750Y-92373000D01*
X192873000Y-92373000D01*
X192873000Y-91173750D01*
X193127000Y-91173750D01*
X193127000Y-92373000D01*
X194326250Y-92373000D01*
X194485000Y-92214250D01*
X194485000Y-91523690D01*
X194388327Y-91290301D01*
X194209698Y-91111673D01*
X193976309Y-91015000D01*
X193285750Y-91015000D01*
X193127000Y-91173750D01*
X192873000Y-91173750D01*
X192714250Y-91015000D01*
X192023691Y-91015000D01*
X191790302Y-91111673D01*
X191611673Y-91290301D01*
X191515000Y-91523690D01*
X187379900Y-91523690D01*
X187379900Y-83916986D01*
X187398217Y-83824900D01*
X187373642Y-83701351D01*
X187325650Y-83460081D01*
X187118997Y-83150803D01*
X187040928Y-83098639D01*
X186559749Y-82617460D01*
X186583113Y-82500000D01*
X186471740Y-81940091D01*
X186173709Y-81494056D01*
X186174097Y-81493797D01*
X186380750Y-81184519D01*
X186425833Y-80957871D01*
X186453317Y-80819701D01*
X186435000Y-80727615D01*
X186435000Y-80594396D01*
X186716534Y-80312862D01*
X186935000Y-79785439D01*
X186935000Y-79387289D01*
X187831331Y-78490959D01*
X187909397Y-78438797D01*
X188116050Y-78129519D01*
X188170300Y-77856786D01*
X188170300Y-77856785D01*
X188188617Y-77764700D01*
X188170300Y-77672614D01*
X188170300Y-77540000D01*
X191485908Y-77540000D01*
X191601161Y-78119418D01*
X191929375Y-78610625D01*
X192227761Y-78810000D01*
X191929375Y-79009375D01*
X191601161Y-79500582D01*
X191485908Y-80080000D01*
X191601161Y-80659418D01*
X191929375Y-81150625D01*
X192227761Y-81350000D01*
X191929375Y-81549375D01*
X191601161Y-82040582D01*
X191485908Y-82620000D01*
X191601161Y-83199418D01*
X191929375Y-83690625D01*
X192227761Y-83890000D01*
X191929375Y-84089375D01*
X191601161Y-84580582D01*
X191485908Y-85160000D01*
X191601161Y-85739418D01*
X191929375Y-86230625D01*
X192227761Y-86430000D01*
X191929375Y-86629375D01*
X191601161Y-87120582D01*
X191485908Y-87700000D01*
X191601161Y-88279418D01*
X191929375Y-88770625D01*
X192420582Y-89098839D01*
X192853744Y-89185000D01*
X193146256Y-89185000D01*
X193579418Y-89098839D01*
X194070625Y-88770625D01*
X194398839Y-88279418D01*
X194514092Y-87700000D01*
X194398839Y-87120582D01*
X194070625Y-86629375D01*
X193772239Y-86430000D01*
X194070625Y-86230625D01*
X194398839Y-85739418D01*
X194514092Y-85160000D01*
X194398839Y-84580582D01*
X194070625Y-84089375D01*
X193772239Y-83890000D01*
X194070625Y-83690625D01*
X194398839Y-83199418D01*
X194514092Y-82620000D01*
X194398839Y-82040582D01*
X194070625Y-81549375D01*
X193772239Y-81350000D01*
X194070625Y-81150625D01*
X194398839Y-80659418D01*
X194514092Y-80080000D01*
X194398839Y-79500582D01*
X194070625Y-79009375D01*
X193772239Y-78810000D01*
X194070625Y-78610625D01*
X194398839Y-78119418D01*
X194514092Y-77540000D01*
X194398839Y-76960582D01*
X194070625Y-76469375D01*
X194048967Y-76454904D01*
X194209698Y-76388327D01*
X194388327Y-76209699D01*
X194485000Y-75976310D01*
X194485000Y-75285750D01*
X194326250Y-75127000D01*
X193127000Y-75127000D01*
X193127000Y-75147000D01*
X192873000Y-75147000D01*
X192873000Y-75127000D01*
X191673750Y-75127000D01*
X191515000Y-75285750D01*
X191515000Y-75976310D01*
X191611673Y-76209699D01*
X191790302Y-76388327D01*
X191951033Y-76454904D01*
X191929375Y-76469375D01*
X191601161Y-76960582D01*
X191485908Y-77540000D01*
X188170300Y-77540000D01*
X188170300Y-74840400D01*
X188545174Y-74840400D01*
X188925580Y-74682831D01*
X189216731Y-74391680D01*
X189369157Y-74023690D01*
X191515000Y-74023690D01*
X191515000Y-74714250D01*
X191673750Y-74873000D01*
X192873000Y-74873000D01*
X192873000Y-73673750D01*
X193127000Y-73673750D01*
X193127000Y-74873000D01*
X194326250Y-74873000D01*
X194485000Y-74714250D01*
X194485000Y-74023690D01*
X194388327Y-73790301D01*
X194209698Y-73611673D01*
X193976309Y-73515000D01*
X193285750Y-73515000D01*
X193127000Y-73673750D01*
X192873000Y-73673750D01*
X192714250Y-73515000D01*
X192023691Y-73515000D01*
X191790302Y-73611673D01*
X191611673Y-73790301D01*
X191515000Y-74023690D01*
X189369157Y-74023690D01*
X189374300Y-74011274D01*
X189374300Y-73783638D01*
X189375904Y-73781237D01*
X189420000Y-73559552D01*
X189420000Y-73559548D01*
X189434888Y-73484701D01*
X189420000Y-73409854D01*
X189420000Y-54865000D01*
X190510908Y-54865000D01*
X190626161Y-55444418D01*
X190954375Y-55935625D01*
X191252761Y-56135000D01*
X190954375Y-56334375D01*
X190626161Y-56825582D01*
X190510908Y-57405000D01*
X190626161Y-57984418D01*
X190954375Y-58475625D01*
X191252761Y-58675000D01*
X190954375Y-58874375D01*
X190626161Y-59365582D01*
X190510908Y-59945000D01*
X190626161Y-60524418D01*
X190954375Y-61015625D01*
X191252761Y-61215000D01*
X190954375Y-61414375D01*
X190626161Y-61905582D01*
X190510908Y-62485000D01*
X190626161Y-63064418D01*
X190954375Y-63555625D01*
X191252761Y-63755000D01*
X190954375Y-63954375D01*
X190626161Y-64445582D01*
X190510908Y-65025000D01*
X190626161Y-65604418D01*
X190954375Y-66095625D01*
X191252761Y-66295000D01*
X190954375Y-66494375D01*
X190626161Y-66985582D01*
X190510908Y-67565000D01*
X190626161Y-68144418D01*
X190954375Y-68635625D01*
X191445582Y-68963839D01*
X191878744Y-69050000D01*
X192171256Y-69050000D01*
X192604418Y-68963839D01*
X193095625Y-68635625D01*
X193295000Y-68337239D01*
X193494375Y-68635625D01*
X193985582Y-68963839D01*
X194418744Y-69050000D01*
X194711256Y-69050000D01*
X195144418Y-68963839D01*
X195635625Y-68635625D01*
X195963839Y-68144418D01*
X196079092Y-67565000D01*
X195963839Y-66985582D01*
X195635625Y-66494375D01*
X195337239Y-66295000D01*
X195635625Y-66095625D01*
X195963839Y-65604418D01*
X196079092Y-65025000D01*
X195963839Y-64445582D01*
X195635625Y-63954375D01*
X195337239Y-63755000D01*
X195635625Y-63555625D01*
X195963839Y-63064418D01*
X196079092Y-62485000D01*
X195963839Y-61905582D01*
X195635625Y-61414375D01*
X195337239Y-61215000D01*
X195635625Y-61015625D01*
X195963839Y-60524418D01*
X196079092Y-59945000D01*
X195963839Y-59365582D01*
X195635625Y-58874375D01*
X195337239Y-58675000D01*
X195635625Y-58475625D01*
X195963839Y-57984418D01*
X196079092Y-57405000D01*
X195963839Y-56825582D01*
X195635625Y-56334375D01*
X195337239Y-56135000D01*
X195635625Y-55935625D01*
X195963839Y-55444418D01*
X196079092Y-54865000D01*
X195963839Y-54285582D01*
X195635625Y-53794375D01*
X195337239Y-53595000D01*
X195635625Y-53395625D01*
X195963839Y-52904418D01*
X196079092Y-52325000D01*
X195963839Y-51745582D01*
X195635625Y-51254375D01*
X195144418Y-50926161D01*
X194711256Y-50840000D01*
X194418744Y-50840000D01*
X193985582Y-50926161D01*
X193494375Y-51254375D01*
X193482184Y-51272619D01*
X193473157Y-51227235D01*
X193332809Y-51017191D01*
X193122765Y-50876843D01*
X192875000Y-50827560D01*
X191175000Y-50827560D01*
X190927235Y-50876843D01*
X190717191Y-51017191D01*
X190576843Y-51227235D01*
X190527560Y-51475000D01*
X190527560Y-53175000D01*
X190576843Y-53422765D01*
X190717191Y-53632809D01*
X190927235Y-53773157D01*
X190972619Y-53782184D01*
X190954375Y-53794375D01*
X190626161Y-54285582D01*
X190510908Y-54865000D01*
X189420000Y-54865000D01*
X189420000Y-54218043D01*
X189694577Y-54034577D01*
X190011740Y-53559909D01*
X190123113Y-53000000D01*
X190011740Y-52440091D01*
X189694577Y-51965423D01*
X189415896Y-51779214D01*
X189375904Y-51578163D01*
X189375904Y-51578162D01*
X189250329Y-51390227D01*
X189207929Y-51326771D01*
X189144473Y-51284371D01*
X186849394Y-48989293D01*
X187054147Y-48784540D01*
X187265000Y-48275494D01*
X187265000Y-47724506D01*
X187254835Y-47699966D01*
X188984473Y-45970329D01*
X189047929Y-45927929D01*
X189215904Y-45676537D01*
X189260000Y-45454852D01*
X189260000Y-45454848D01*
X189274888Y-45380000D01*
X189260000Y-45305152D01*
X189260000Y-44738430D01*
X189312862Y-44716534D01*
X189716534Y-44312862D01*
X189823165Y-44055431D01*
X192265000Y-44055431D01*
X192265000Y-44944569D01*
X192605259Y-45766026D01*
X193233974Y-46394741D01*
X194055431Y-46735000D01*
X194944569Y-46735000D01*
X195766026Y-46394741D01*
X196394741Y-45766026D01*
X196735000Y-44944569D01*
X196735000Y-44055431D01*
X196394741Y-43233974D01*
X195766026Y-42605259D01*
X194944569Y-42265000D01*
X194055431Y-42265000D01*
X193233974Y-42605259D01*
X192605259Y-43233974D01*
X192265000Y-44055431D01*
X189823165Y-44055431D01*
X189935000Y-43785439D01*
X189935000Y-43214561D01*
X189716534Y-42687138D01*
X189312862Y-42283466D01*
X188785439Y-42065000D01*
X188214561Y-42065000D01*
X187687138Y-42283466D01*
X187283466Y-42687138D01*
X187256475Y-42752299D01*
X187253864Y-42745995D01*
X187007745Y-42671861D01*
X186179605Y-43500000D01*
X187007745Y-44328139D01*
X187253864Y-44254005D01*
X187256290Y-44247254D01*
X187283466Y-44312862D01*
X187687138Y-44716534D01*
X187740000Y-44738430D01*
X187740000Y-45065198D01*
X186180034Y-46625165D01*
X186155494Y-46615000D01*
X185604506Y-46615000D01*
X185095460Y-46825853D01*
X184705853Y-47215460D01*
X184495000Y-47724506D01*
X184495000Y-48275494D01*
X184705853Y-48784540D01*
X185095460Y-49174147D01*
X185123200Y-49185637D01*
X185164096Y-49391236D01*
X185332071Y-49642629D01*
X185395530Y-49685031D01*
X187655694Y-51945196D01*
X187625423Y-51965423D01*
X187308260Y-52440091D01*
X187196887Y-53000000D01*
X187308260Y-53559909D01*
X187625423Y-54034577D01*
X187900000Y-54218044D01*
X187900000Y-60184924D01*
X187831331Y-60139041D01*
X186559749Y-58867459D01*
X186583113Y-58750000D01*
X186471740Y-58190091D01*
X186154577Y-57715423D01*
X186055000Y-57648888D01*
X186055000Y-57323344D01*
X186312862Y-57216534D01*
X186716534Y-56812862D01*
X186935000Y-56285439D01*
X186935000Y-55714561D01*
X186716534Y-55187138D01*
X186312862Y-54783466D01*
X185785439Y-54565000D01*
X185214561Y-54565000D01*
X184687138Y-54783466D01*
X184283466Y-55187138D01*
X184256475Y-55252299D01*
X184253864Y-55245995D01*
X184007745Y-55171861D01*
X183179605Y-56000000D01*
X184007745Y-56828139D01*
X184185000Y-56774748D01*
X184185001Y-57648887D01*
X184085423Y-57715423D01*
X183768260Y-58190091D01*
X183656887Y-58750000D01*
X183768260Y-59309909D01*
X184085423Y-59784577D01*
X184437758Y-60020000D01*
X184085423Y-60255423D01*
X183768260Y-60730091D01*
X183656887Y-61290000D01*
X183768260Y-61849909D01*
X184085423Y-62324577D01*
X184437758Y-62560000D01*
X184085423Y-62795423D01*
X183768260Y-63270091D01*
X183656887Y-63830000D01*
X183768260Y-64389909D01*
X184085423Y-64864577D01*
X184437758Y-65100000D01*
X184085423Y-65335423D01*
X183768260Y-65810091D01*
X183656887Y-66370000D01*
X183768260Y-66929909D01*
X184085423Y-67404577D01*
X184469108Y-67660947D01*
X184264866Y-67757611D01*
X183888959Y-68172577D01*
X183874086Y-68208485D01*
X183104000Y-67438399D01*
X183104000Y-57431671D01*
X183353454Y-57419778D01*
X183754005Y-57253864D01*
X183828139Y-57007745D01*
X183000000Y-56179605D01*
X182985858Y-56193748D01*
X182806252Y-56014142D01*
X182820395Y-56000000D01*
X181992255Y-55171861D01*
X181746136Y-55245995D01*
X181727194Y-55298693D01*
X181420756Y-54992255D01*
X182171861Y-54992255D01*
X183000000Y-55820395D01*
X183828139Y-54992255D01*
X183754005Y-54746136D01*
X183216777Y-54553035D01*
X182646546Y-54580222D01*
X182245995Y-54746136D01*
X182171861Y-54992255D01*
X181420756Y-54992255D01*
X179870253Y-53441752D01*
X179935000Y-53285439D01*
X179935000Y-52714561D01*
X179913103Y-52661698D01*
X181484473Y-51090329D01*
X181547929Y-51047929D01*
X181715904Y-50796537D01*
X181760000Y-50574852D01*
X181760000Y-50574847D01*
X181774888Y-50500000D01*
X181760000Y-50425153D01*
X181760000Y-49184312D01*
X181784540Y-49174147D01*
X182174147Y-48784540D01*
X182385000Y-48275494D01*
X182385000Y-47724506D01*
X182174147Y-47215460D01*
X181784540Y-46825853D01*
X181275494Y-46615000D01*
X180724506Y-46615000D01*
X180215460Y-46825853D01*
X179825853Y-47215460D01*
X179615000Y-47724506D01*
X179615000Y-48275494D01*
X179825853Y-48784540D01*
X180215460Y-49174147D01*
X180240000Y-49184312D01*
X180240001Y-50185197D01*
X178838302Y-51586897D01*
X178785439Y-51565000D01*
X178214561Y-51565000D01*
X177687138Y-51783466D01*
X177283466Y-52187138D01*
X177065000Y-52714561D01*
X177065000Y-53285439D01*
X177283466Y-53812862D01*
X177687138Y-54216534D01*
X178214561Y-54435000D01*
X178713899Y-54435000D01*
X181584001Y-57305103D01*
X181584000Y-67678353D01*
X181569112Y-67753200D01*
X181584000Y-67828047D01*
X181584000Y-67828051D01*
X181628096Y-68049736D01*
X181796071Y-68301129D01*
X181859530Y-68343531D01*
X184023739Y-70507740D01*
X183768260Y-70890091D01*
X183656887Y-71450000D01*
X183768260Y-72009909D01*
X184085423Y-72484577D01*
X184437758Y-72720000D01*
X184085423Y-72955423D01*
X183768260Y-73430091D01*
X183656887Y-73990000D01*
X183768260Y-74549909D01*
X184085423Y-75024577D01*
X184437758Y-75260000D01*
X184085423Y-75495423D01*
X183768260Y-75970091D01*
X183656887Y-76530000D01*
X183768260Y-77089909D01*
X184085423Y-77564577D01*
X184560091Y-77881740D01*
X184978667Y-77965000D01*
X185261333Y-77965000D01*
X185679909Y-77881740D01*
X186029679Y-77648031D01*
X185612711Y-78065000D01*
X185214561Y-78065000D01*
X184687138Y-78283466D01*
X184283466Y-78687138D01*
X184256475Y-78752299D01*
X184253864Y-78745995D01*
X184007745Y-78671861D01*
X183179605Y-79500000D01*
X184007745Y-80328139D01*
X184253864Y-80254005D01*
X184256290Y-80247254D01*
X184283466Y-80312862D01*
X184476058Y-80505454D01*
X184445904Y-80525603D01*
X184393742Y-80603669D01*
X184393741Y-80603670D01*
X184239250Y-80834882D01*
X184166683Y-81199700D01*
X184185001Y-81291790D01*
X184185001Y-81398887D01*
X184085423Y-81465423D01*
X183768260Y-81940091D01*
X183656887Y-82500000D01*
X183768260Y-83059909D01*
X184085423Y-83534577D01*
X184437758Y-83770000D01*
X184085423Y-84005423D01*
X183768260Y-84480091D01*
X183656887Y-85040000D01*
X183768260Y-85599909D01*
X184085423Y-86074577D01*
X184437758Y-86310000D01*
X184085423Y-86545423D01*
X183768260Y-87020091D01*
X183656887Y-87580000D01*
X183768260Y-88139909D01*
X183992977Y-88476221D01*
X182686630Y-89782569D01*
X182623171Y-89824971D01*
X182455196Y-90076364D01*
X182411100Y-90298049D01*
X182411100Y-90298053D01*
X182396212Y-90372900D01*
X182411100Y-90447747D01*
X182411101Y-97783097D01*
X181057500Y-99136698D01*
X181057500Y-86698211D01*
X181174931Y-86580780D01*
X181332500Y-86200374D01*
X181332500Y-85788626D01*
X181174931Y-85408220D01*
X180883780Y-85117069D01*
X180503374Y-84959500D01*
X180297700Y-84959500D01*
X180297700Y-80507745D01*
X182171861Y-80507745D01*
X182245995Y-80753864D01*
X182783223Y-80946965D01*
X183353454Y-80919778D01*
X183754005Y-80753864D01*
X183828139Y-80507745D01*
X183000000Y-79679605D01*
X182171861Y-80507745D01*
X180297700Y-80507745D01*
X180297700Y-79283223D01*
X181553035Y-79283223D01*
X181580222Y-79853454D01*
X181746136Y-80254005D01*
X181992255Y-80328139D01*
X182820395Y-79500000D01*
X181992255Y-78671861D01*
X181746136Y-78745995D01*
X181553035Y-79283223D01*
X180297700Y-79283223D01*
X180297700Y-78492255D01*
X182171861Y-78492255D01*
X183000000Y-79320395D01*
X183828139Y-78492255D01*
X183754005Y-78246136D01*
X183216777Y-78053035D01*
X182646546Y-78080222D01*
X182245995Y-78246136D01*
X182171861Y-78492255D01*
X180297700Y-78492255D01*
X180297700Y-58281646D01*
X180312588Y-58206799D01*
X180297700Y-58131952D01*
X180297700Y-58131948D01*
X180253604Y-57910263D01*
X180085629Y-57658871D01*
X180022173Y-57616471D01*
X171903141Y-49497440D01*
X172350000Y-49497440D01*
X172597765Y-49448157D01*
X172807809Y-49307809D01*
X172948157Y-49097765D01*
X172968739Y-48994292D01*
X173273076Y-49271645D01*
X173683110Y-49441476D01*
X173913000Y-49320155D01*
X173913000Y-48127000D01*
X174167000Y-48127000D01*
X174167000Y-49320155D01*
X174396890Y-49441476D01*
X174806924Y-49271645D01*
X175235183Y-48881358D01*
X175481486Y-48356892D01*
X175360819Y-48127000D01*
X174167000Y-48127000D01*
X173913000Y-48127000D01*
X173893000Y-48127000D01*
X173893000Y-47873000D01*
X173913000Y-47873000D01*
X173913000Y-46679845D01*
X174167000Y-46679845D01*
X174167000Y-47873000D01*
X175360819Y-47873000D01*
X175481486Y-47643108D01*
X175235183Y-47118642D01*
X174806924Y-46728355D01*
X174396890Y-46558524D01*
X174167000Y-46679845D01*
X173913000Y-46679845D01*
X173683110Y-46558524D01*
X173273076Y-46728355D01*
X172968739Y-47005708D01*
X172948157Y-46902235D01*
X172807809Y-46692191D01*
X172597765Y-46551843D01*
X172350000Y-46502560D01*
X172198797Y-46502560D01*
X172047929Y-46276771D01*
X171984473Y-46234371D01*
X169063231Y-43313130D01*
X169020829Y-43249671D01*
X168968284Y-43214561D01*
X177065000Y-43214561D01*
X177065000Y-43785439D01*
X177283466Y-44312862D01*
X177687138Y-44716534D01*
X178214561Y-44935000D01*
X178785439Y-44935000D01*
X179312862Y-44716534D01*
X179521651Y-44507745D01*
X180171861Y-44507745D01*
X180245995Y-44753864D01*
X180783223Y-44946965D01*
X181353454Y-44919778D01*
X181754005Y-44753864D01*
X181828139Y-44507745D01*
X185171861Y-44507745D01*
X185245995Y-44753864D01*
X185783223Y-44946965D01*
X186353454Y-44919778D01*
X186754005Y-44753864D01*
X186828139Y-44507745D01*
X186000000Y-43679605D01*
X185171861Y-44507745D01*
X181828139Y-44507745D01*
X181000000Y-43679605D01*
X180171861Y-44507745D01*
X179521651Y-44507745D01*
X179716534Y-44312862D01*
X179743525Y-44247701D01*
X179746136Y-44254005D01*
X179992255Y-44328139D01*
X180820395Y-43500000D01*
X181179605Y-43500000D01*
X182007745Y-44328139D01*
X182253864Y-44254005D01*
X182446965Y-43716777D01*
X182426295Y-43283223D01*
X184553035Y-43283223D01*
X184580222Y-43853454D01*
X184746136Y-44254005D01*
X184992255Y-44328139D01*
X185820395Y-43500000D01*
X184992255Y-42671861D01*
X184746136Y-42745995D01*
X184553035Y-43283223D01*
X182426295Y-43283223D01*
X182419778Y-43146546D01*
X182253864Y-42745995D01*
X182007745Y-42671861D01*
X181179605Y-43500000D01*
X180820395Y-43500000D01*
X179992255Y-42671861D01*
X179746136Y-42745995D01*
X179743710Y-42752746D01*
X179716534Y-42687138D01*
X179521651Y-42492255D01*
X180171861Y-42492255D01*
X181000000Y-43320395D01*
X181828139Y-42492255D01*
X185171861Y-42492255D01*
X186000000Y-43320395D01*
X186828139Y-42492255D01*
X186754005Y-42246136D01*
X186216777Y-42053035D01*
X185646546Y-42080222D01*
X185245995Y-42246136D01*
X185171861Y-42492255D01*
X181828139Y-42492255D01*
X181754005Y-42246136D01*
X181216777Y-42053035D01*
X180646546Y-42080222D01*
X180245995Y-42246136D01*
X180171861Y-42492255D01*
X179521651Y-42492255D01*
X179312862Y-42283466D01*
X178785439Y-42065000D01*
X178214561Y-42065000D01*
X177687138Y-42283466D01*
X177283466Y-42687138D01*
X177065000Y-43214561D01*
X168968284Y-43214561D01*
X168769437Y-43081696D01*
X168547752Y-43037600D01*
X168547747Y-43037600D01*
X168472900Y-43022712D01*
X168398053Y-43037600D01*
X166911448Y-43037600D01*
X166836600Y-43022712D01*
X166761752Y-43037600D01*
X166761748Y-43037600D01*
X166588205Y-43072120D01*
X166540062Y-43081696D01*
X166424823Y-43158697D01*
X166288671Y-43249671D01*
X166246271Y-43313127D01*
X165600828Y-43958571D01*
X165537372Y-44000971D01*
X165494972Y-44064427D01*
X165494971Y-44064428D01*
X165423670Y-44171138D01*
X165369397Y-44252363D01*
X165332056Y-44440091D01*
X165310412Y-44548900D01*
X165325301Y-44623752D01*
X165325300Y-50487253D01*
X165310412Y-50562100D01*
X165325300Y-50636947D01*
X165325300Y-50636951D01*
X165354810Y-50785307D01*
X157488531Y-42919030D01*
X157446129Y-42855571D01*
X157194737Y-42687596D01*
X156973052Y-42643500D01*
X156973047Y-42643500D01*
X156898200Y-42628612D01*
X156823353Y-42643500D01*
X150286647Y-42643500D01*
X150211800Y-42628612D01*
X150136953Y-42643500D01*
X150136948Y-42643500D01*
X149915263Y-42687596D01*
X149663871Y-42855571D01*
X149621471Y-42919027D01*
X148544804Y-43995695D01*
X148524577Y-43965423D01*
X148049909Y-43648260D01*
X147631333Y-43565000D01*
X147348667Y-43565000D01*
X146930091Y-43648260D01*
X146455423Y-43965423D01*
X146435196Y-43995694D01*
X144874931Y-42435430D01*
X144832529Y-42371971D01*
X144581137Y-42203996D01*
X144359452Y-42159900D01*
X144359447Y-42159900D01*
X144284600Y-42145012D01*
X144209753Y-42159900D01*
X122130348Y-42159900D01*
X122055500Y-42145012D01*
X121980652Y-42159900D01*
X121980648Y-42159900D01*
X121807105Y-42194420D01*
X121758962Y-42203996D01*
X121667664Y-42265000D01*
X121507571Y-42371971D01*
X121465171Y-42435427D01*
X113939468Y-49961131D01*
X113851740Y-49520091D01*
X113534577Y-49045423D01*
X113182242Y-48810000D01*
X113534577Y-48574577D01*
X113851740Y-48099909D01*
X113963113Y-47540000D01*
X113851740Y-46980091D01*
X113534577Y-46505423D01*
X113413894Y-46424785D01*
X113547765Y-46398157D01*
X113757809Y-46257809D01*
X113898157Y-46047765D01*
X113947440Y-45800000D01*
X113947440Y-44200000D01*
X113898157Y-43952235D01*
X113757809Y-43742191D01*
X113547765Y-43601843D01*
X113300000Y-43552560D01*
X111700000Y-43552560D01*
X111452235Y-43601843D01*
X111242191Y-43742191D01*
X111101843Y-43952235D01*
X111052560Y-44200000D01*
X111052560Y-45800000D01*
X111101843Y-46047765D01*
X111242191Y-46257809D01*
X111452235Y-46398157D01*
X111586106Y-46424785D01*
X111465423Y-46505423D01*
X111148260Y-46980091D01*
X111036887Y-47540000D01*
X111148260Y-48099909D01*
X111465423Y-48574577D01*
X111817758Y-48810000D01*
X111465423Y-49045423D01*
X111148260Y-49520091D01*
X111036887Y-50080000D01*
X111148260Y-50639909D01*
X111383591Y-50992107D01*
X110410630Y-51965069D01*
X110347171Y-52007471D01*
X110179196Y-52258864D01*
X110135100Y-52480549D01*
X110135100Y-52480553D01*
X110120212Y-52555400D01*
X110135100Y-52630247D01*
X110135101Y-62585400D01*
X109834126Y-62585400D01*
X109453720Y-62742969D01*
X109327995Y-62868694D01*
X108310300Y-61850999D01*
X108310300Y-61828046D01*
X108325188Y-61753199D01*
X108310300Y-61678352D01*
X108310300Y-61678349D01*
X108266204Y-61456663D01*
X108098229Y-61205271D01*
X108034773Y-61162871D01*
X107552531Y-60680629D01*
X107773839Y-60349418D01*
X107889092Y-59770000D01*
X107773839Y-59190582D01*
X107445625Y-58699375D01*
X107147239Y-58500000D01*
X107445625Y-58300625D01*
X107773839Y-57809418D01*
X107889092Y-57230000D01*
X107773839Y-56650582D01*
X107445625Y-56159375D01*
X107147239Y-55960000D01*
X107445625Y-55760625D01*
X107773839Y-55269418D01*
X107889092Y-54690000D01*
X107773839Y-54110582D01*
X107445625Y-53619375D01*
X106954418Y-53291161D01*
X106521256Y-53205000D01*
X106228744Y-53205000D01*
X106215019Y-53207730D01*
X105719161Y-52711872D01*
X105666997Y-52633803D01*
X105357719Y-52427150D01*
X105084986Y-52372900D01*
X104992900Y-52354583D01*
X104900814Y-52372900D01*
X103331886Y-52372900D01*
X103239800Y-52354583D01*
X103147714Y-52372900D01*
X102874981Y-52427150D01*
X102565703Y-52633803D01*
X102513541Y-52711870D01*
X101862770Y-53362641D01*
X101784704Y-53414803D01*
X101732542Y-53492869D01*
X101732541Y-53492870D01*
X101578050Y-53724082D01*
X101505483Y-54088900D01*
X101523801Y-54180991D01*
X101523800Y-81990814D01*
X101505483Y-82082900D01*
X101544826Y-82280688D01*
X101578050Y-82447718D01*
X101784703Y-82756997D01*
X101862772Y-82809161D01*
X101957711Y-82904100D01*
X101835872Y-83025939D01*
X101757803Y-83078103D01*
X101555581Y-83380750D01*
X101551150Y-83387382D01*
X101478583Y-83752200D01*
X100710000Y-83752200D01*
X100710000Y-44055431D01*
X103265000Y-44055431D01*
X103265000Y-44944569D01*
X103605259Y-45766026D01*
X104233974Y-46394741D01*
X105055431Y-46735000D01*
X105944569Y-46735000D01*
X106766026Y-46394741D01*
X107394741Y-45766026D01*
X107735000Y-44944569D01*
X107735000Y-44055431D01*
X107394741Y-43233974D01*
X106766026Y-42605259D01*
X105944569Y-42265000D01*
X105055431Y-42265000D01*
X104233974Y-42605259D01*
X103605259Y-43233974D01*
X103265000Y-44055431D01*
X100710000Y-44055431D01*
X100710000Y-40710000D01*
X199290000Y-40710000D01*
X199290001Y-114290000D01*
G36*
X171587000Y-104775000D02*
X173873000Y-104775000D01*
X173873000Y-104755000D01*
X174127000Y-104755000D01*
X174127000Y-104775000D01*
X174147000Y-104775000D01*
X174147000Y-105029000D01*
X174127000Y-105029000D01*
X174127000Y-105049000D01*
X173873000Y-105049000D01*
X173873000Y-105029000D01*
X171587000Y-105029000D01*
X171587000Y-105049000D01*
X171333000Y-105049000D01*
X171333000Y-105029000D01*
X171313000Y-105029000D01*
X171313000Y-104775000D01*
X171333000Y-104775000D01*
X171333000Y-104755000D01*
X171587000Y-104755000D01*
X171587000Y-104775000D01*
X171587000Y-104775000D01*
G37*
X171587000Y-104775000D02*
X173873000Y-104775000D01*
X173873000Y-104755000D01*
X174127000Y-104755000D01*
X174127000Y-104775000D01*
X174147000Y-104775000D01*
X174147000Y-105029000D01*
X174127000Y-105029000D01*
X174127000Y-105049000D01*
X173873000Y-105049000D01*
X173873000Y-105029000D01*
X171587000Y-105029000D01*
X171587000Y-105049000D01*
X171333000Y-105049000D01*
X171333000Y-105029000D01*
X171313000Y-105029000D01*
X171313000Y-104775000D01*
X171333000Y-104775000D01*
X171333000Y-104755000D01*
X171587000Y-104755000D01*
X171587000Y-104775000D01*
G36*
X179537501Y-100019797D02*
X178866200Y-100691098D01*
X178891904Y-100629039D01*
X178769915Y-100407000D01*
X177627000Y-100407000D01*
X177627000Y-101550629D01*
X177849041Y-101671914D01*
X177918041Y-101639258D01*
X175304303Y-104252996D01*
X175195183Y-104020642D01*
X174988145Y-103831961D01*
X175097765Y-103810157D01*
X175307809Y-103669809D01*
X175448157Y-103459765D01*
X175497440Y-103212000D01*
X175497440Y-101512000D01*
X175448157Y-101264235D01*
X175307809Y-101054191D01*
X175097765Y-100913843D01*
X174935000Y-100881467D01*
X174935000Y-100629039D01*
X176108096Y-100629039D01*
X176268959Y-101017423D01*
X176644866Y-101432389D01*
X177150959Y-101671914D01*
X177373000Y-101550629D01*
X177373000Y-100407000D01*
X176230085Y-100407000D01*
X176108096Y-100629039D01*
X174935000Y-100629039D01*
X174935000Y-96592086D01*
X174953317Y-96500000D01*
X174942471Y-96445473D01*
X175342971Y-96845973D01*
X175385371Y-96909429D01*
X175636763Y-97077404D01*
X175858448Y-97121500D01*
X175858452Y-97121500D01*
X175933300Y-97136388D01*
X176008148Y-97121500D01*
X176187409Y-97121500D01*
X176148260Y-97180091D01*
X176036887Y-97740000D01*
X176148260Y-98299909D01*
X176465423Y-98774577D01*
X176849108Y-99030947D01*
X176644866Y-99127611D01*
X176268959Y-99542577D01*
X176108096Y-99930961D01*
X176230085Y-100153000D01*
X177373000Y-100153000D01*
X177373000Y-100133000D01*
X177627000Y-100133000D01*
X177627000Y-100153000D01*
X178769915Y-100153000D01*
X178891904Y-99930961D01*
X178731041Y-99542577D01*
X178355134Y-99127611D01*
X178150892Y-99030947D01*
X178534577Y-98774577D01*
X178851740Y-98299909D01*
X178963113Y-97740000D01*
X178851740Y-97180091D01*
X178593537Y-96793664D01*
X179537501Y-95849701D01*
X179537501Y-100019797D01*
X179537501Y-100019797D01*
G37*
X179537501Y-100019797D02*
X178866200Y-100691098D01*
X178891904Y-100629039D01*
X178769915Y-100407000D01*
X177627000Y-100407000D01*
X177627000Y-101550629D01*
X177849041Y-101671914D01*
X177918041Y-101639258D01*
X175304303Y-104252996D01*
X175195183Y-104020642D01*
X174988145Y-103831961D01*
X175097765Y-103810157D01*
X175307809Y-103669809D01*
X175448157Y-103459765D01*
X175497440Y-103212000D01*
X175497440Y-101512000D01*
X175448157Y-101264235D01*
X175307809Y-101054191D01*
X175097765Y-100913843D01*
X174935000Y-100881467D01*
X174935000Y-100629039D01*
X176108096Y-100629039D01*
X176268959Y-101017423D01*
X176644866Y-101432389D01*
X177150959Y-101671914D01*
X177373000Y-101550629D01*
X177373000Y-100407000D01*
X176230085Y-100407000D01*
X176108096Y-100629039D01*
X174935000Y-100629039D01*
X174935000Y-96592086D01*
X174953317Y-96500000D01*
X174942471Y-96445473D01*
X175342971Y-96845973D01*
X175385371Y-96909429D01*
X175636763Y-97077404D01*
X175858448Y-97121500D01*
X175858452Y-97121500D01*
X175933300Y-97136388D01*
X176008148Y-97121500D01*
X176187409Y-97121500D01*
X176148260Y-97180091D01*
X176036887Y-97740000D01*
X176148260Y-98299909D01*
X176465423Y-98774577D01*
X176849108Y-99030947D01*
X176644866Y-99127611D01*
X176268959Y-99542577D01*
X176108096Y-99930961D01*
X176230085Y-100153000D01*
X177373000Y-100153000D01*
X177373000Y-100133000D01*
X177627000Y-100133000D01*
X177627000Y-100153000D01*
X178769915Y-100153000D01*
X178891904Y-99930961D01*
X178731041Y-99542577D01*
X178355134Y-99127611D01*
X178150892Y-99030947D01*
X178534577Y-98774577D01*
X178851740Y-98299909D01*
X178963113Y-97740000D01*
X178851740Y-97180091D01*
X178593537Y-96793664D01*
X179537501Y-95849701D01*
X179537501Y-100019797D01*
G36*
X158990001Y-61528803D02*
X158990000Y-64651242D01*
X158716777Y-64553035D01*
X158146546Y-64580222D01*
X157745995Y-64746136D01*
X157671861Y-64992255D01*
X158500000Y-65820395D01*
X158514142Y-65806252D01*
X158693748Y-65985858D01*
X158679605Y-66000000D01*
X158693748Y-66014143D01*
X158514143Y-66193748D01*
X158500000Y-66179605D01*
X157671861Y-67007745D01*
X157745995Y-67253864D01*
X158283223Y-67446965D01*
X158853454Y-67419778D01*
X159254005Y-67253864D01*
X159316658Y-67045859D01*
X164425270Y-72154472D01*
X164467671Y-72217929D01*
X164719063Y-72385904D01*
X164940748Y-72430000D01*
X164940753Y-72430000D01*
X165015600Y-72444888D01*
X165090447Y-72430000D01*
X165541428Y-72430000D01*
X165524371Y-72455527D01*
X165340827Y-72639072D01*
X165277372Y-72681471D01*
X165234972Y-72744927D01*
X165234971Y-72744928D01*
X165109397Y-72932863D01*
X165050412Y-73229400D01*
X165065301Y-73304252D01*
X165065300Y-82615000D01*
X164785750Y-82615000D01*
X164627000Y-82773750D01*
X164627000Y-83873000D01*
X164647000Y-83873000D01*
X164647000Y-84127000D01*
X164627000Y-84127000D01*
X164627000Y-85226250D01*
X164776074Y-85375324D01*
X163052455Y-87098944D01*
X162931380Y-86977869D01*
X162550974Y-86820300D01*
X162139226Y-86820300D01*
X161758820Y-86977869D01*
X161641389Y-87095300D01*
X161058103Y-87095300D01*
X160296664Y-86333862D01*
X160690625Y-86070625D01*
X161018839Y-85579418D01*
X161134092Y-85000000D01*
X161018839Y-84420582D01*
X160928748Y-84285750D01*
X163115000Y-84285750D01*
X163115000Y-84876309D01*
X163211673Y-85109698D01*
X163390301Y-85288327D01*
X163623690Y-85385000D01*
X164214250Y-85385000D01*
X164373000Y-85226250D01*
X164373000Y-84127000D01*
X163273750Y-84127000D01*
X163115000Y-84285750D01*
X160928748Y-84285750D01*
X160690625Y-83929375D01*
X160392239Y-83730000D01*
X160690625Y-83530625D01*
X160962529Y-83123691D01*
X163115000Y-83123691D01*
X163115000Y-83714250D01*
X163273750Y-83873000D01*
X164373000Y-83873000D01*
X164373000Y-82773750D01*
X164214250Y-82615000D01*
X163623690Y-82615000D01*
X163390301Y-82711673D01*
X163211673Y-82890302D01*
X163115000Y-83123691D01*
X160962529Y-83123691D01*
X161018839Y-83039418D01*
X161134092Y-82460000D01*
X161018839Y-81880582D01*
X160690625Y-81389375D01*
X160199418Y-81061161D01*
X159766256Y-80975000D01*
X159473744Y-80975000D01*
X159040582Y-81061161D01*
X158549375Y-81389375D01*
X158350000Y-81687761D01*
X158150625Y-81389375D01*
X157659418Y-81061161D01*
X157226256Y-80975000D01*
X156933744Y-80975000D01*
X156635900Y-81034245D01*
X156635900Y-78568702D01*
X156866675Y-78337927D01*
X156930129Y-78295529D01*
X156972527Y-78232076D01*
X156972529Y-78232074D01*
X157088064Y-78059163D01*
X157098104Y-78044137D01*
X157142200Y-77822452D01*
X157142200Y-77822448D01*
X157157088Y-77747601D01*
X157142200Y-77672754D01*
X157142200Y-66503082D01*
X157246136Y-66754005D01*
X157492255Y-66828139D01*
X158320395Y-66000000D01*
X157492255Y-65171861D01*
X157246136Y-65245995D01*
X157142200Y-65535156D01*
X157142200Y-60501446D01*
X157157088Y-60426599D01*
X157142200Y-60351752D01*
X157142200Y-60351748D01*
X157098104Y-60130063D01*
X156930129Y-59878671D01*
X156866673Y-59836271D01*
X153086920Y-56056519D01*
X153231041Y-55897423D01*
X153268407Y-55807208D01*
X158990001Y-61528803D01*
X158990001Y-61528803D01*
G37*
X158990001Y-61528803D02*
X158990000Y-64651242D01*
X158716777Y-64553035D01*
X158146546Y-64580222D01*
X157745995Y-64746136D01*
X157671861Y-64992255D01*
X158500000Y-65820395D01*
X158514142Y-65806252D01*
X158693748Y-65985858D01*
X158679605Y-66000000D01*
X158693748Y-66014143D01*
X158514143Y-66193748D01*
X158500000Y-66179605D01*
X157671861Y-67007745D01*
X157745995Y-67253864D01*
X158283223Y-67446965D01*
X158853454Y-67419778D01*
X159254005Y-67253864D01*
X159316658Y-67045859D01*
X164425270Y-72154472D01*
X164467671Y-72217929D01*
X164719063Y-72385904D01*
X164940748Y-72430000D01*
X164940753Y-72430000D01*
X165015600Y-72444888D01*
X165090447Y-72430000D01*
X165541428Y-72430000D01*
X165524371Y-72455527D01*
X165340827Y-72639072D01*
X165277372Y-72681471D01*
X165234972Y-72744927D01*
X165234971Y-72744928D01*
X165109397Y-72932863D01*
X165050412Y-73229400D01*
X165065301Y-73304252D01*
X165065300Y-82615000D01*
X164785750Y-82615000D01*
X164627000Y-82773750D01*
X164627000Y-83873000D01*
X164647000Y-83873000D01*
X164647000Y-84127000D01*
X164627000Y-84127000D01*
X164627000Y-85226250D01*
X164776074Y-85375324D01*
X163052455Y-87098944D01*
X162931380Y-86977869D01*
X162550974Y-86820300D01*
X162139226Y-86820300D01*
X161758820Y-86977869D01*
X161641389Y-87095300D01*
X161058103Y-87095300D01*
X160296664Y-86333862D01*
X160690625Y-86070625D01*
X161018839Y-85579418D01*
X161134092Y-85000000D01*
X161018839Y-84420582D01*
X160928748Y-84285750D01*
X163115000Y-84285750D01*
X163115000Y-84876309D01*
X163211673Y-85109698D01*
X163390301Y-85288327D01*
X163623690Y-85385000D01*
X164214250Y-85385000D01*
X164373000Y-85226250D01*
X164373000Y-84127000D01*
X163273750Y-84127000D01*
X163115000Y-84285750D01*
X160928748Y-84285750D01*
X160690625Y-83929375D01*
X160392239Y-83730000D01*
X160690625Y-83530625D01*
X160962529Y-83123691D01*
X163115000Y-83123691D01*
X163115000Y-83714250D01*
X163273750Y-83873000D01*
X164373000Y-83873000D01*
X164373000Y-82773750D01*
X164214250Y-82615000D01*
X163623690Y-82615000D01*
X163390301Y-82711673D01*
X163211673Y-82890302D01*
X163115000Y-83123691D01*
X160962529Y-83123691D01*
X161018839Y-83039418D01*
X161134092Y-82460000D01*
X161018839Y-81880582D01*
X160690625Y-81389375D01*
X160199418Y-81061161D01*
X159766256Y-80975000D01*
X159473744Y-80975000D01*
X159040582Y-81061161D01*
X158549375Y-81389375D01*
X158350000Y-81687761D01*
X158150625Y-81389375D01*
X157659418Y-81061161D01*
X157226256Y-80975000D01*
X156933744Y-80975000D01*
X156635900Y-81034245D01*
X156635900Y-78568702D01*
X156866675Y-78337927D01*
X156930129Y-78295529D01*
X156972527Y-78232076D01*
X156972529Y-78232074D01*
X157088064Y-78059163D01*
X157098104Y-78044137D01*
X157142200Y-77822452D01*
X157142200Y-77822448D01*
X157157088Y-77747601D01*
X157142200Y-77672754D01*
X157142200Y-66503082D01*
X157246136Y-66754005D01*
X157492255Y-66828139D01*
X158320395Y-66000000D01*
X157492255Y-65171861D01*
X157246136Y-65245995D01*
X157142200Y-65535156D01*
X157142200Y-60501446D01*
X157157088Y-60426599D01*
X157142200Y-60351752D01*
X157142200Y-60351748D01*
X157098104Y-60130063D01*
X156930129Y-59878671D01*
X156866673Y-59836271D01*
X153086920Y-56056519D01*
X153231041Y-55897423D01*
X153268407Y-55807208D01*
X158990001Y-61528803D01*
G36*
X103962000Y-84133000D02*
X103982000Y-84133000D01*
X103982000Y-84387000D01*
X103962000Y-84387000D01*
X103962000Y-84407000D01*
X103708000Y-84407000D01*
X103708000Y-84387000D01*
X103688000Y-84387000D01*
X103688000Y-84133000D01*
X103708000Y-84133000D01*
X103708000Y-84113000D01*
X103962000Y-84113000D01*
X103962000Y-84133000D01*
X103962000Y-84133000D01*
G37*
X103962000Y-84133000D02*
X103982000Y-84133000D01*
X103982000Y-84387000D01*
X103962000Y-84387000D01*
X103962000Y-84407000D01*
X103708000Y-84407000D01*
X103708000Y-84387000D01*
X103688000Y-84387000D01*
X103688000Y-84133000D01*
X103708000Y-84133000D01*
X103708000Y-84113000D01*
X103962000Y-84113000D01*
X103962000Y-84133000D01*
G36*
X177627000Y-76403000D02*
X177647000Y-76403000D01*
X177647000Y-76657000D01*
X177627000Y-76657000D01*
X177627000Y-77800629D01*
X177849041Y-77921914D01*
X178327301Y-77695562D01*
X178327301Y-81057990D01*
X178300000Y-81052560D01*
X176700000Y-81052560D01*
X176474800Y-81097355D01*
X176474800Y-77494652D01*
X176644866Y-77682389D01*
X177150959Y-77921914D01*
X177373000Y-77800629D01*
X177373000Y-76657000D01*
X177353000Y-76657000D01*
X177353000Y-76403000D01*
X177373000Y-76403000D01*
X177373000Y-76383000D01*
X177627000Y-76383000D01*
X177627000Y-76403000D01*
X177627000Y-76403000D01*
G37*
X177627000Y-76403000D02*
X177647000Y-76403000D01*
X177647000Y-76657000D01*
X177627000Y-76657000D01*
X177627000Y-77800629D01*
X177849041Y-77921914D01*
X178327301Y-77695562D01*
X178327301Y-81057990D01*
X178300000Y-81052560D01*
X176700000Y-81052560D01*
X176474800Y-81097355D01*
X176474800Y-77494652D01*
X176644866Y-77682389D01*
X177150959Y-77921914D01*
X177373000Y-77800629D01*
X177373000Y-76657000D01*
X177353000Y-76657000D01*
X177353000Y-76403000D01*
X177373000Y-76403000D01*
X177373000Y-76383000D01*
X177627000Y-76383000D01*
X177627000Y-76403000D01*
G36*
X109969971Y-68344473D02*
X110012371Y-68407929D01*
X110075827Y-68450329D01*
X110263762Y-68575904D01*
X110311864Y-68585472D01*
X110485448Y-68620000D01*
X110485452Y-68620000D01*
X110560300Y-68634888D01*
X110635148Y-68620000D01*
X111281957Y-68620000D01*
X111465423Y-68894577D01*
X111849108Y-69150947D01*
X111644866Y-69247611D01*
X111268959Y-69662577D01*
X111108096Y-70050961D01*
X111230085Y-70273000D01*
X112373000Y-70273000D01*
X112373000Y-70253000D01*
X112627000Y-70253000D01*
X112627000Y-70273000D01*
X112647000Y-70273000D01*
X112647000Y-70527000D01*
X112627000Y-70527000D01*
X112627000Y-70547000D01*
X112373000Y-70547000D01*
X112373000Y-70527000D01*
X111230085Y-70527000D01*
X111108096Y-70749039D01*
X111268959Y-71137423D01*
X111644866Y-71552389D01*
X111849108Y-71649053D01*
X111465423Y-71905423D01*
X111148260Y-72380091D01*
X111036887Y-72940000D01*
X111148260Y-73499909D01*
X111465423Y-73974577D01*
X111817758Y-74210000D01*
X111465423Y-74445423D01*
X111148260Y-74920091D01*
X111036887Y-75480000D01*
X111148260Y-76039909D01*
X111465423Y-76514577D01*
X111817758Y-76750000D01*
X111465423Y-76985423D01*
X111148260Y-77460091D01*
X111129883Y-77552481D01*
X107048400Y-73470999D01*
X107048400Y-71465449D01*
X107073797Y-71427440D01*
X107225000Y-71427440D01*
X107472765Y-71378157D01*
X107682809Y-71237809D01*
X107823157Y-71027765D01*
X107872440Y-70780000D01*
X107872440Y-69080000D01*
X107823157Y-68832235D01*
X107682809Y-68622191D01*
X107472765Y-68481843D01*
X107427381Y-68472816D01*
X107445625Y-68460625D01*
X107773839Y-67969418D01*
X107889092Y-67390000D01*
X107773839Y-66810582D01*
X107445625Y-66319375D01*
X107147239Y-66120000D01*
X107445625Y-65920625D01*
X107485879Y-65860380D01*
X109969971Y-68344473D01*
X109969971Y-68344473D01*
G37*
X109969971Y-68344473D02*
X110012371Y-68407929D01*
X110075827Y-68450329D01*
X110263762Y-68575904D01*
X110311864Y-68585472D01*
X110485448Y-68620000D01*
X110485452Y-68620000D01*
X110560300Y-68634888D01*
X110635148Y-68620000D01*
X111281957Y-68620000D01*
X111465423Y-68894577D01*
X111849108Y-69150947D01*
X111644866Y-69247611D01*
X111268959Y-69662577D01*
X111108096Y-70050961D01*
X111230085Y-70273000D01*
X112373000Y-70273000D01*
X112373000Y-70253000D01*
X112627000Y-70253000D01*
X112627000Y-70273000D01*
X112647000Y-70273000D01*
X112647000Y-70527000D01*
X112627000Y-70527000D01*
X112627000Y-70547000D01*
X112373000Y-70547000D01*
X112373000Y-70527000D01*
X111230085Y-70527000D01*
X111108096Y-70749039D01*
X111268959Y-71137423D01*
X111644866Y-71552389D01*
X111849108Y-71649053D01*
X111465423Y-71905423D01*
X111148260Y-72380091D01*
X111036887Y-72940000D01*
X111148260Y-73499909D01*
X111465423Y-73974577D01*
X111817758Y-74210000D01*
X111465423Y-74445423D01*
X111148260Y-74920091D01*
X111036887Y-75480000D01*
X111148260Y-76039909D01*
X111465423Y-76514577D01*
X111817758Y-76750000D01*
X111465423Y-76985423D01*
X111148260Y-77460091D01*
X111129883Y-77552481D01*
X107048400Y-73470999D01*
X107048400Y-71465449D01*
X107073797Y-71427440D01*
X107225000Y-71427440D01*
X107472765Y-71378157D01*
X107682809Y-71237809D01*
X107823157Y-71027765D01*
X107872440Y-70780000D01*
X107872440Y-69080000D01*
X107823157Y-68832235D01*
X107682809Y-68622191D01*
X107472765Y-68481843D01*
X107427381Y-68472816D01*
X107445625Y-68460625D01*
X107773839Y-67969418D01*
X107889092Y-67390000D01*
X107773839Y-66810582D01*
X107445625Y-66319375D01*
X107147239Y-66120000D01*
X107445625Y-65920625D01*
X107485879Y-65860380D01*
X109969971Y-68344473D01*
G36*
X186300300Y-77377410D02*
X186238031Y-77439679D01*
X186300300Y-77346487D01*
X186300300Y-77377410D01*
X186300300Y-77377410D01*
G37*
X186300300Y-77377410D02*
X186238031Y-77439679D01*
X186300300Y-77346487D01*
X186300300Y-77377410D01*
G36*
X126612937Y-68756162D02*
X125943630Y-69425469D01*
X125880171Y-69467871D01*
X125712196Y-69719264D01*
X125668100Y-69940949D01*
X125668100Y-69940953D01*
X125653212Y-70015800D01*
X125668100Y-70090647D01*
X125668101Y-71483997D01*
X122923681Y-74228417D01*
X122919778Y-74146546D01*
X122753864Y-73745995D01*
X122507745Y-73671861D01*
X121679605Y-74500000D01*
X121693748Y-74514143D01*
X121514143Y-74693748D01*
X121500000Y-74679605D01*
X121485858Y-74693748D01*
X121306253Y-74514143D01*
X121320395Y-74500000D01*
X121306253Y-74485858D01*
X121485858Y-74306253D01*
X121500000Y-74320395D01*
X122328139Y-73492255D01*
X122254005Y-73246136D01*
X121870509Y-73108292D01*
X126456606Y-68522196D01*
X126612937Y-68756162D01*
X126612937Y-68756162D01*
G37*
X126612937Y-68756162D02*
X125943630Y-69425469D01*
X125880171Y-69467871D01*
X125712196Y-69719264D01*
X125668100Y-69940949D01*
X125668100Y-69940953D01*
X125653212Y-70015800D01*
X125668100Y-70090647D01*
X125668101Y-71483997D01*
X122923681Y-74228417D01*
X122919778Y-74146546D01*
X122753864Y-73745995D01*
X122507745Y-73671861D01*
X121679605Y-74500000D01*
X121693748Y-74514143D01*
X121514143Y-74693748D01*
X121500000Y-74679605D01*
X121485858Y-74693748D01*
X121306253Y-74514143D01*
X121320395Y-74500000D01*
X121306253Y-74485858D01*
X121485858Y-74306253D01*
X121500000Y-74320395D01*
X122328139Y-73492255D01*
X122254005Y-73246136D01*
X121870509Y-73108292D01*
X126456606Y-68522196D01*
X126612937Y-68756162D01*
G36*
X141693748Y-73485858D02*
X141679605Y-73500000D01*
X141693748Y-73514143D01*
X141514143Y-73693748D01*
X141500000Y-73679605D01*
X141485858Y-73693748D01*
X141306252Y-73514142D01*
X141320395Y-73500000D01*
X141306253Y-73485858D01*
X141485858Y-73306253D01*
X141500000Y-73320395D01*
X141514142Y-73306252D01*
X141693748Y-73485858D01*
X141693748Y-73485858D01*
G37*
X141693748Y-73485858D02*
X141679605Y-73500000D01*
X141693748Y-73514143D01*
X141514143Y-73693748D01*
X141500000Y-73679605D01*
X141485858Y-73693748D01*
X141306252Y-73514142D01*
X141320395Y-73500000D01*
X141306253Y-73485858D01*
X141485858Y-73306253D01*
X141500000Y-73320395D01*
X141514142Y-73306252D01*
X141693748Y-73485858D01*
G36*
X146091312Y-62456114D02*
X146026887Y-62780000D01*
X146138260Y-63339909D01*
X146455423Y-63814577D01*
X146734104Y-64000786D01*
X146751386Y-64087667D01*
X146455423Y-64285423D01*
X146138260Y-64760091D01*
X146026887Y-65320000D01*
X146138260Y-65879909D01*
X146455423Y-66354577D01*
X146839108Y-66610947D01*
X146634866Y-66707611D01*
X146258959Y-67122577D01*
X146098096Y-67510961D01*
X146220085Y-67733000D01*
X147363000Y-67733000D01*
X147363000Y-67713000D01*
X147617000Y-67713000D01*
X147617000Y-67733000D01*
X147637000Y-67733000D01*
X147637000Y-67987000D01*
X147617000Y-67987000D01*
X147617000Y-68007000D01*
X147363000Y-68007000D01*
X147363000Y-67987000D01*
X146220085Y-67987000D01*
X146098096Y-68209039D01*
X146258959Y-68597423D01*
X146634866Y-69012389D01*
X146839108Y-69109053D01*
X146455423Y-69365423D01*
X146138260Y-69840091D01*
X146026887Y-70400000D01*
X146138260Y-70959909D01*
X146201597Y-71054700D01*
X142324300Y-71054700D01*
X142324300Y-65393146D01*
X142339188Y-65318299D01*
X142324300Y-65243452D01*
X142324300Y-65243448D01*
X142280204Y-65021763D01*
X142112229Y-64770371D01*
X142048773Y-64727971D01*
X133377023Y-56056222D01*
X133601740Y-55719909D01*
X133713113Y-55160000D01*
X133601740Y-54600091D01*
X133284577Y-54125423D01*
X132932242Y-53890000D01*
X133284577Y-53654577D01*
X133601740Y-53179909D01*
X133713113Y-52620000D01*
X133601740Y-52060091D01*
X133284577Y-51585423D01*
X133005896Y-51399214D01*
X132988614Y-51312333D01*
X133284577Y-51114577D01*
X133601740Y-50639909D01*
X133713113Y-50080000D01*
X133712595Y-50077396D01*
X146091312Y-62456114D01*
X146091312Y-62456114D01*
G37*
X146091312Y-62456114D02*
X146026887Y-62780000D01*
X146138260Y-63339909D01*
X146455423Y-63814577D01*
X146734104Y-64000786D01*
X146751386Y-64087667D01*
X146455423Y-64285423D01*
X146138260Y-64760091D01*
X146026887Y-65320000D01*
X146138260Y-65879909D01*
X146455423Y-66354577D01*
X146839108Y-66610947D01*
X146634866Y-66707611D01*
X146258959Y-67122577D01*
X146098096Y-67510961D01*
X146220085Y-67733000D01*
X147363000Y-67733000D01*
X147363000Y-67713000D01*
X147617000Y-67713000D01*
X147617000Y-67733000D01*
X147637000Y-67733000D01*
X147637000Y-67987000D01*
X147617000Y-67987000D01*
X147617000Y-68007000D01*
X147363000Y-68007000D01*
X147363000Y-67987000D01*
X146220085Y-67987000D01*
X146098096Y-68209039D01*
X146258959Y-68597423D01*
X146634866Y-69012389D01*
X146839108Y-69109053D01*
X146455423Y-69365423D01*
X146138260Y-69840091D01*
X146026887Y-70400000D01*
X146138260Y-70959909D01*
X146201597Y-71054700D01*
X142324300Y-71054700D01*
X142324300Y-65393146D01*
X142339188Y-65318299D01*
X142324300Y-65243452D01*
X142324300Y-65243448D01*
X142280204Y-65021763D01*
X142112229Y-64770371D01*
X142048773Y-64727971D01*
X133377023Y-56056222D01*
X133601740Y-55719909D01*
X133713113Y-55160000D01*
X133601740Y-54600091D01*
X133284577Y-54125423D01*
X132932242Y-53890000D01*
X133284577Y-53654577D01*
X133601740Y-53179909D01*
X133713113Y-52620000D01*
X133601740Y-52060091D01*
X133284577Y-51585423D01*
X133005896Y-51399214D01*
X132988614Y-51312333D01*
X133284577Y-51114577D01*
X133601740Y-50639909D01*
X133713113Y-50080000D01*
X133712595Y-50077396D01*
X146091312Y-62456114D01*
G36*
X186300300Y-70633514D02*
X186154577Y-70415423D01*
X185875896Y-70229214D01*
X185854106Y-70119670D01*
X185975134Y-70062389D01*
X186300300Y-69703436D01*
X186300300Y-70633514D01*
X186300300Y-70633514D01*
G37*
X186300300Y-70633514D02*
X186154577Y-70415423D01*
X185875896Y-70229214D01*
X185854106Y-70119670D01*
X185975134Y-70062389D01*
X186300300Y-69703436D01*
X186300300Y-70633514D01*
G36*
X185247000Y-68783000D02*
X185267000Y-68783000D01*
X185267000Y-69037000D01*
X185247000Y-69037000D01*
X185247000Y-69057000D01*
X184993000Y-69057000D01*
X184993000Y-69037000D01*
X184973000Y-69037000D01*
X184973000Y-68783000D01*
X184993000Y-68783000D01*
X184993000Y-68763000D01*
X185247000Y-68763000D01*
X185247000Y-68783000D01*
X185247000Y-68783000D01*
G37*
X185247000Y-68783000D02*
X185267000Y-68783000D01*
X185267000Y-69037000D01*
X185247000Y-69037000D01*
X185247000Y-69057000D01*
X184993000Y-69057000D01*
X184993000Y-69037000D01*
X184973000Y-69037000D01*
X184973000Y-68783000D01*
X184993000Y-68783000D01*
X184993000Y-68763000D01*
X185247000Y-68763000D01*
X185247000Y-68783000D01*
G36*
X152127000Y-55033000D02*
X152147000Y-55033000D01*
X152147000Y-55287000D01*
X152127000Y-55287000D01*
X152127000Y-55307000D01*
X151873000Y-55307000D01*
X151873000Y-55287000D01*
X151853000Y-55287000D01*
X151853000Y-55033000D01*
X151873000Y-55033000D01*
X151873000Y-55013000D01*
X152127000Y-55013000D01*
X152127000Y-55033000D01*
X152127000Y-55033000D01*
G37*
X152127000Y-55033000D02*
X152147000Y-55033000D01*
X152147000Y-55287000D01*
X152127000Y-55287000D01*
X152127000Y-55307000D01*
X151873000Y-55307000D01*
X151873000Y-55287000D01*
X151853000Y-55287000D01*
X151853000Y-55033000D01*
X151873000Y-55033000D01*
X151873000Y-55013000D01*
X152127000Y-55013000D01*
X152127000Y-55033000D01*
G36*
X103962000Y-54563000D02*
X103982000Y-54563000D01*
X103982000Y-54817000D01*
X103962000Y-54817000D01*
X103962000Y-54837000D01*
X103708000Y-54837000D01*
X103708000Y-54817000D01*
X103688000Y-54817000D01*
X103688000Y-54563000D01*
X103708000Y-54563000D01*
X103708000Y-54543000D01*
X103962000Y-54543000D01*
X103962000Y-54563000D01*
X103962000Y-54563000D01*
G37*
X103962000Y-54563000D02*
X103982000Y-54563000D01*
X103982000Y-54817000D01*
X103962000Y-54817000D01*
X103962000Y-54837000D01*
X103708000Y-54837000D01*
X103708000Y-54817000D01*
X103688000Y-54817000D01*
X103688000Y-54563000D01*
X103708000Y-54563000D01*
X103708000Y-54543000D01*
X103962000Y-54543000D01*
X103962000Y-54563000D01*
G04 #@! TD*
M02*
