G04 #@! TF.GenerationSoftware,KiCad,Pcbnew,(5.0.0-3-g5ebb6b6)*
G04 #@! TF.CreationDate,2019-09-07T17:36:41+09:00*
G04 #@! TF.ProjectId,KZ80_PIOSIO,4B5A38305F50494F53494F2E6B696361,rev?*
G04 #@! TF.SameCoordinates,Original*
G04 #@! TF.FileFunction,Soldermask,Top*
G04 #@! TF.FilePolarity,Negative*
%FSLAX46Y46*%
G04 Gerber Fmt 4.6, Leading zero omitted, Abs format (unit mm)*
G04 Created by KiCad (PCBNEW (5.0.0-3-g5ebb6b6)) date *
%MOMM*%
%LPD*%
G01*
G04 APERTURE LIST*
%ADD10R,2.100000X2.100000*%
%ADD11O,2.100000X2.100000*%
%ADD12R,2.000000X2.000000*%
%ADD13C,2.000000*%
%ADD14C,1.900000*%
%ADD15C,3.600000*%
%ADD16O,2.000000X2.000000*%
%ADD17R,1.900000X1.900000*%
G04 APERTURE END LIST*
D10*
G04 #@! TO.C,JP2*
X172510000Y-58880000D03*
D11*
X172510000Y-61420000D03*
X172510000Y-63960000D03*
G04 #@! TD*
D10*
G04 #@! TO.C,J8*
X192025000Y-52325000D03*
D11*
X194565000Y-52325000D03*
X192025000Y-54865000D03*
X194565000Y-54865000D03*
X192025000Y-57405000D03*
X194565000Y-57405000D03*
X192025000Y-59945000D03*
X194565000Y-59945000D03*
X192025000Y-62485000D03*
X194565000Y-62485000D03*
X192025000Y-65025000D03*
X194565000Y-65025000D03*
X192025000Y-67565000D03*
X194565000Y-67565000D03*
G04 #@! TD*
D12*
G04 #@! TO.C,C9*
X185750000Y-105500000D03*
D13*
X183250000Y-105500000D03*
G04 #@! TD*
G04 #@! TO.C,C1*
X141500000Y-73500000D03*
X139000000Y-73500000D03*
G04 #@! TD*
G04 #@! TO.C,C2*
X119000000Y-74500000D03*
X121500000Y-74500000D03*
G04 #@! TD*
G04 #@! TO.C,C3*
X158500000Y-66000000D03*
X161000000Y-66000000D03*
G04 #@! TD*
G04 #@! TO.C,C4*
X185500000Y-79500000D03*
X183000000Y-79500000D03*
G04 #@! TD*
G04 #@! TO.C,C5*
X183000000Y-56000000D03*
X185500000Y-56000000D03*
G04 #@! TD*
G04 #@! TO.C,C6*
X173000000Y-82500000D03*
X173000000Y-85000000D03*
G04 #@! TD*
G04 #@! TO.C,C7*
X181000000Y-43500000D03*
X178500000Y-43500000D03*
G04 #@! TD*
G04 #@! TO.C,C8*
X188500000Y-43500000D03*
X186000000Y-43500000D03*
G04 #@! TD*
D10*
G04 #@! TO.C,J6*
X171500000Y-48000000D03*
D11*
X174040000Y-48000000D03*
G04 #@! TD*
D10*
G04 #@! TO.C,JP1*
X158000000Y-91500000D03*
D11*
X155460000Y-91500000D03*
X152920000Y-91500000D03*
G04 #@! TD*
G04 #@! TO.C,J1*
X193000000Y-87700000D03*
X193000000Y-85160000D03*
X193000000Y-82620000D03*
X193000000Y-80080000D03*
X193000000Y-77540000D03*
D10*
X193000000Y-75000000D03*
G04 #@! TD*
G04 #@! TO.C,J2*
X193000000Y-92500000D03*
D11*
X193000000Y-95040000D03*
X193000000Y-97580000D03*
X193000000Y-100120000D03*
X193000000Y-102660000D03*
X193000000Y-105200000D03*
G04 #@! TD*
D10*
G04 #@! TO.C,J7*
X152000000Y-85000000D03*
D11*
X152000000Y-82460000D03*
X154540000Y-85000000D03*
X154540000Y-82460000D03*
X157080000Y-85000000D03*
X157080000Y-82460000D03*
X159620000Y-85000000D03*
X159620000Y-82460000D03*
G04 #@! TD*
D10*
G04 #@! TO.C,J3*
X106375000Y-69930000D03*
D11*
X103835000Y-69930000D03*
X106375000Y-67390000D03*
X103835000Y-67390000D03*
X106375000Y-64850000D03*
X103835000Y-64850000D03*
X106375000Y-62310000D03*
X103835000Y-62310000D03*
X106375000Y-59770000D03*
X103835000Y-59770000D03*
X106375000Y-57230000D03*
X103835000Y-57230000D03*
X106375000Y-54690000D03*
X103835000Y-54690000D03*
G04 #@! TD*
G04 #@! TO.C,J4*
X103835000Y-84260000D03*
X106375000Y-84260000D03*
X103835000Y-86800000D03*
X106375000Y-86800000D03*
X103835000Y-89340000D03*
X106375000Y-89340000D03*
X103835000Y-91880000D03*
X106375000Y-91880000D03*
X103835000Y-94420000D03*
X106375000Y-94420000D03*
X103835000Y-96960000D03*
X106375000Y-96960000D03*
X103835000Y-99500000D03*
D10*
X106375000Y-99500000D03*
G04 #@! TD*
G04 #@! TO.C,J5*
X174000000Y-102362000D03*
D11*
X174000000Y-104902000D03*
X171460000Y-102362000D03*
X171460000Y-104902000D03*
X168920000Y-102362000D03*
X168920000Y-104902000D03*
X166380000Y-102362000D03*
X166380000Y-104902000D03*
X163840000Y-102362000D03*
X163840000Y-104902000D03*
X161300000Y-102362000D03*
X161300000Y-104902000D03*
X158760000Y-102362000D03*
X158760000Y-104902000D03*
X156220000Y-102362000D03*
X156220000Y-104902000D03*
X153680000Y-102362000D03*
X153680000Y-104902000D03*
X151140000Y-102362000D03*
X151140000Y-104902000D03*
X148600000Y-102362000D03*
X148600000Y-104902000D03*
X146060000Y-102362000D03*
X146060000Y-104902000D03*
X143520000Y-102362000D03*
X143520000Y-104902000D03*
X140980000Y-102362000D03*
X140980000Y-104902000D03*
X138440000Y-102362000D03*
X138440000Y-104902000D03*
X135900000Y-102362000D03*
X135900000Y-104902000D03*
X133360000Y-102362000D03*
X133360000Y-104902000D03*
X130820000Y-102362000D03*
X130820000Y-104902000D03*
X128280000Y-102362000D03*
X128280000Y-104902000D03*
X125740000Y-102362000D03*
X125740000Y-104902000D03*
G04 #@! TD*
D14*
G04 #@! TO.C,Y1*
X181000000Y-48000000D03*
X185880000Y-48000000D03*
G04 #@! TD*
D15*
G04 #@! TO.C,MH1*
X105500000Y-44500000D03*
G04 #@! TD*
G04 #@! TO.C,MH2*
X194500000Y-44500000D03*
G04 #@! TD*
G04 #@! TO.C,MH3*
X105500000Y-110500000D03*
G04 #@! TD*
G04 #@! TO.C,MH4*
X194500000Y-110500000D03*
G04 #@! TD*
D16*
G04 #@! TO.C,U3*
X185120000Y-82500000D03*
X177500000Y-100280000D03*
X185120000Y-85040000D03*
X177500000Y-97740000D03*
X185120000Y-87580000D03*
X177500000Y-95200000D03*
X185120000Y-90120000D03*
X177500000Y-92660000D03*
X185120000Y-92660000D03*
X177500000Y-90120000D03*
X185120000Y-95200000D03*
X177500000Y-87580000D03*
X185120000Y-97740000D03*
X177500000Y-85040000D03*
X185120000Y-100280000D03*
D12*
X177500000Y-82500000D03*
G04 #@! TD*
G04 #@! TO.C,U5*
X177500000Y-58750000D03*
D16*
X185120000Y-76530000D03*
X177500000Y-61290000D03*
X185120000Y-73990000D03*
X177500000Y-63830000D03*
X185120000Y-71450000D03*
X177500000Y-66370000D03*
X185120000Y-68910000D03*
X177500000Y-68910000D03*
X185120000Y-66370000D03*
X177500000Y-71450000D03*
X185120000Y-63830000D03*
X177500000Y-73990000D03*
X185120000Y-61290000D03*
X177500000Y-76530000D03*
X185120000Y-58750000D03*
G04 #@! TD*
D12*
G04 #@! TO.C,U4*
X152000000Y-45000000D03*
D16*
X167240000Y-78020000D03*
X152000000Y-47540000D03*
X167240000Y-75480000D03*
X152000000Y-50080000D03*
X167240000Y-72940000D03*
X152000000Y-52620000D03*
X167240000Y-70400000D03*
X152000000Y-55160000D03*
X167240000Y-67860000D03*
X152000000Y-57700000D03*
X167240000Y-65320000D03*
X152000000Y-60240000D03*
X167240000Y-62780000D03*
X152000000Y-62780000D03*
X167240000Y-60240000D03*
X152000000Y-65320000D03*
X167240000Y-57700000D03*
X152000000Y-67860000D03*
X167240000Y-55160000D03*
X152000000Y-70400000D03*
X167240000Y-52620000D03*
X152000000Y-72940000D03*
X167240000Y-50080000D03*
X152000000Y-75480000D03*
X167240000Y-47540000D03*
X152000000Y-78020000D03*
X167240000Y-45000000D03*
G04 #@! TD*
G04 #@! TO.C,U1*
X147490000Y-45000000D03*
X132250000Y-93260000D03*
X147490000Y-47540000D03*
X132250000Y-90720000D03*
X147490000Y-50080000D03*
X132250000Y-88180000D03*
X147490000Y-52620000D03*
X132250000Y-85640000D03*
X147490000Y-55160000D03*
X132250000Y-83100000D03*
X147490000Y-57700000D03*
X132250000Y-80560000D03*
X147490000Y-60240000D03*
X132250000Y-78020000D03*
X147490000Y-62780000D03*
X132250000Y-75480000D03*
X147490000Y-65320000D03*
X132250000Y-72940000D03*
X147490000Y-67860000D03*
X132250000Y-70400000D03*
X147490000Y-70400000D03*
X132250000Y-67860000D03*
X147490000Y-72940000D03*
X132250000Y-65320000D03*
X147490000Y-75480000D03*
X132250000Y-62780000D03*
X147490000Y-78020000D03*
X132250000Y-60240000D03*
X147490000Y-80560000D03*
X132250000Y-57700000D03*
X147490000Y-83100000D03*
X132250000Y-55160000D03*
X147490000Y-85640000D03*
X132250000Y-52620000D03*
X147490000Y-88180000D03*
X132250000Y-50080000D03*
X147490000Y-90720000D03*
X132250000Y-47540000D03*
X147490000Y-93260000D03*
D12*
X132250000Y-45000000D03*
G04 #@! TD*
G04 #@! TO.C,U2*
X112500000Y-45000000D03*
D16*
X127740000Y-93260000D03*
X112500000Y-47540000D03*
X127740000Y-90720000D03*
X112500000Y-50080000D03*
X127740000Y-88180000D03*
X112500000Y-52620000D03*
X127740000Y-85640000D03*
X112500000Y-55160000D03*
X127740000Y-83100000D03*
X112500000Y-57700000D03*
X127740000Y-80560000D03*
X112500000Y-60240000D03*
X127740000Y-78020000D03*
X112500000Y-62780000D03*
X127740000Y-75480000D03*
X112500000Y-65320000D03*
X127740000Y-72940000D03*
X112500000Y-67860000D03*
X127740000Y-70400000D03*
X112500000Y-70400000D03*
X127740000Y-67860000D03*
X112500000Y-72940000D03*
X127740000Y-65320000D03*
X112500000Y-75480000D03*
X127740000Y-62780000D03*
X112500000Y-78020000D03*
X127740000Y-60240000D03*
X112500000Y-80560000D03*
X127740000Y-57700000D03*
X112500000Y-83100000D03*
X127740000Y-55160000D03*
X112500000Y-85640000D03*
X127740000Y-52620000D03*
X112500000Y-88180000D03*
X127740000Y-50080000D03*
X112500000Y-90720000D03*
X127740000Y-47540000D03*
X112500000Y-93260000D03*
X127740000Y-45000000D03*
G04 #@! TD*
D14*
G04 #@! TO.C,Q1*
X167040000Y-84000000D03*
X169580000Y-84000000D03*
D17*
X164500000Y-84000000D03*
G04 #@! TD*
D13*
G04 #@! TO.C,R1*
X173000000Y-90500000D03*
D16*
X162840000Y-90500000D03*
G04 #@! TD*
G04 #@! TO.C,R2*
X162840000Y-95500000D03*
D13*
X173000000Y-95500000D03*
G04 #@! TD*
G04 #@! TO.C,R3*
X178500000Y-53000000D03*
D16*
X188660000Y-53000000D03*
G04 #@! TD*
M02*
